<svg aria-roledescription="gitGraph" role="graphics-document document" viewBox="-118.4765625 -34.75224685668945 1376.4765625 374.2771911621094" style="max-width: 1376.48px; background: rgb(23, 23, 25);" xmlns="http://www.w3.org/2000/svg" width="100%" id="export-svg"><style xmlns="http://www.w3.org/1999/xhtml">@import url("https://cdnjs.cloudflare.com/ajax/libs/font-awesome/6.2.0/css/all.min.css"); p {margin: 0;}</style><style>#export-svg{font-family:"trebuchet ms",verdana,arial,sans-serif;font-size:16px;fill:#ccc;}#export-svg .error-icon{fill:#a44141;}#export-svg .error-text{fill:#ddd;stroke:#ddd;}#export-svg .edge-thickness-normal{stroke-width:1px;}#export-svg .edge-thickness-thick{stroke-width:3.5px;}#export-svg .edge-pattern-solid{stroke-dasharray:0;}#export-svg .edge-thickness-invisible{stroke-width:0;fill:none;}#export-svg .edge-pattern-dashed{stroke-dasharray:3;}#export-svg .edge-pattern-dotted{stroke-dasharray:2;}#export-svg .marker{fill:lightgrey;stroke:lightgrey;}#export-svg .marker.cross{stroke:lightgrey;}#export-svg svg{font-family:"trebuchet ms",verdana,arial,sans-serif;font-size:16px;}#export-svg p{margin:0;}#export-svg .commit-id,#export-svg .commit-msg,#export-svg .branch-label{fill:lightgrey;color:lightgrey;font-family:'trebuchet ms',verdana,arial,sans-serif;font-family:var(--mermaid-font-family);}#export-svg .branch-label0{fill:#2c2c2c;}#export-svg .commit0{stroke:hsl(180, 1.5873015873%, 48.3529411765%);fill:hsl(180, 1.5873015873%, 48.3529411765%);}#export-svg .commit-highlight0{stroke:rgb(133.6571428571, 129.7428571428, 129.7428571428);fill:rgb(133.6571428571, 129.7428571428, 129.7428571428);}#export-svg .label0{fill:hsl(180, 1.5873015873%, 48.3529411765%);}#export-svg .arrow0{stroke:hsl(180, 1.5873015873%, 48.3529411765%);}#export-svg .branch-label1{fill:lightgrey;}#export-svg .commit1{stroke:hsl(321.6393442623, 65.5913978495%, 38.2352941176%);fill:hsl(321.6393442623, 65.5913978495%, 38.2352941176%);}#export-svg .commit-highlight1{stroke:rgb(93.5483870969, 221.4516129033, 139.677419355);fill:rgb(93.5483870969, 221.4516129033, 139.677419355);}#export-svg .label1{fill:hsl(321.6393442623, 65.5913978495%, 38.2352941176%);}#export-svg .arrow1{stroke:hsl(321.6393442623, 65.5913978495%, 38.2352941176%);}#export-svg .branch-label2{fill:lightgrey;}#export-svg .commit2{stroke:hsl(194.4, 16.5562913907%, 49.6078431373%);fill:hsl(194.4, 16.5562913907%, 49.6078431373%);}#export-svg .commit-highlight2{stroke:rgb(149.4437086091, 117.6092715231, 107.5562913906);fill:rgb(149.4437086091, 117.6092715231, 107.5562913906);}#export-svg .label2{fill:hsl(194.4, 16.5562913907%, 49.6078431373%);}#export-svg .arrow2{stroke:hsl(194.4, 16.5562913907%, 49.6078431373%);}#export-svg .branch-label3{fill:#2c2c2c;}#export-svg .commit3{stroke:hsl(23.0769230769, 49.0566037736%, 40.7843137255%);fill:hsl(23.0769230769, 49.0566037736%, 40.7843137255%);}#export-svg .commit-highlight3{stroke:rgb(99.9811320754, 162.7735849057, 202.0188679245);fill:rgb(99.9811320754, 162.7735849057, 202.0188679245);}#export-svg .label3{fill:hsl(23.0769230769, 49.0566037736%, 40.7843137255%);}#export-svg .arrow3{stroke:hsl(23.0769230769, 49.0566037736%, 40.7843137255%);}#export-svg .branch-label4{fill:lightgrey;}#export-svg .commit4{stroke:hsl(0, 83.3333333333%, 43.5294117647%);fill:hsl(0, 83.3333333333%, 43.5294117647%);}#export-svg .commit-highlight4{stroke:rgb(51.5000000001, 236.5, 236.5);fill:rgb(51.5000000001, 236.5, 236.5);}#export-svg .label4{fill:hsl(0, 83.3333333333%, 43.5294117647%);}#export-svg .arrow4{stroke:hsl(0, 83.3333333333%, 43.5294117647%);}#export-svg .branch-label5{fill:lightgrey;}#export-svg .commit5{stroke:hsl(289.1666666667, 100%, 24.1176470588%);fill:hsl(289.1666666667, 100%, 24.1176470588%);}#export-svg .commit-highlight5{stroke:rgb(154.2083333334, 255, 132.0000000001);fill:rgb(154.2083333334, 255, 132.0000000001);}#export-svg .label5{fill:hsl(289.1666666667, 100%, 24.1176470588%);}#export-svg .arrow5{stroke:hsl(289.1666666667, 100%, 24.1176470588%);}#export-svg .branch-label6{fill:lightgrey;}#export-svg .commit6{stroke:hsl(35.1315789474, 98.7012987013%, 40.1960784314%);fill:hsl(35.1315789474, 98.7012987013%, 40.1960784314%);}#export-svg .commit-highlight6{stroke:rgb(51.331168831, 135.1948051946, 253.6688311688);fill:rgb(51.331168831, 135.1948051946, 253.6688311688);}#export-svg .label6{fill:hsl(35.1315789474, 98.7012987013%, 40.1960784314%);}#export-svg .arrow6{stroke:hsl(35.1315789474, 98.7012987013%, 40.1960784314%);}#export-svg .branch-label7{fill:lightgrey;}#export-svg .commit7{stroke:hsl(106.1538461538, 84.4155844156%, 35.0980392157%);fill:hsl(106.1538461538, 84.4155844156%, 35.0980392157%);}#export-svg .commit-highlight7{stroke:rgb(206.1818181817, 89.948051948, 241.051948052);fill:rgb(206.1818181817, 89.948051948, 241.051948052);}#export-svg .label7{fill:hsl(106.1538461538, 84.4155844156%, 35.0980392157%);}#export-svg .arrow7{stroke:hsl(106.1538461538, 84.4155844156%, 35.0980392157%);}#export-svg .branch{stroke-width:1;stroke:lightgrey;stroke-dasharray:2;}#export-svg .commit-label{font-size:10px;fill:rgb(183.8476190475, 181.5523809523, 181.5523809523);}#export-svg .commit-label-bkg{font-size:10px;fill:hsl(180, 1.5873015873%, 28.3529411765%);opacity:0.5;}#export-svg .tag-label{font-size:10px;fill:#e0dfdf;}#export-svg .tag-label-bkg{fill:#1f2020;stroke:#cccccc;}#export-svg .tag-hole{fill:#ccc;}#export-svg .commit-merge{stroke:#1f2020;fill:#1f2020;}#export-svg .commit-reverse{stroke:#1f2020;fill:#1f2020;stroke-width:3;}#export-svg .commit-highlight-inner{stroke:#1f2020;fill:#1f2020;}#export-svg .arrow{stroke-width:8;stroke-linecap:round;fill:none;}#export-svg .gitTitleText{text-anchor:middle;font-size:18px;fill:#ccc;}#export-svg .node .neo-node{stroke:#ccc;}#export-svg [data-look="neo"].node rect,#export-svg [data-look="neo"].cluster rect,#export-svg [data-look="neo"].node polygon{stroke:url(#export-svg-gradient);filter:drop-shadow( 1px 2px 2px rgba(185,185,185,1));}#export-svg [data-look="neo"].node rect,#export-svg [data-look="neo"].node polygon,#export-svg [data-look="neo"].node path{stroke:url(#export-svg-gradient);filter:drop-shadow( 1px 2px 2px rgba(185,185,185,1));}#export-svg [data-look="neo"].node .neo-line path{stroke:#cccccc;filter:none;}#export-svg [data-look="neo"].node circle{stroke:url(#export-svg-gradient);filter:drop-shadow( 1px 2px 2px rgba(185,185,185,1));}#export-svg [data-look="neo"].node circle .state-start{fill:#000000;}#export-svg [data-look="neo"].statediagram-cluster rect{fill:#1f2020;stroke:url(#export-svg-gradient);stroke-width:1px;}#export-svg :root{--mermaid-font-family:"trebuchet ms",verdana,arial,sans-serif;}</style><g/><g class="commit-bullets"/><g class="commit-labels"/><g><line class="branch branch0" y2="0" x2="1250" y1="0" x1="0"/><rect transform="translate(-19, -8.5)" height="21" width="52.6875" y="-0.5" x="-68.6875" ry="4" rx="4" class="branchLabelBkg label0"/><g class="branchLabel"><g transform="translate(-78.6875, -9.5)" class="label branch-label0"><text><tspan class="row" x="0" dy="1em" xml:space="preserve">main</tspan></text></g></g><line class="branch branch1" y2="90" x2="1250" y1="90" x1="0"/><rect transform="translate(-19, 81.31640625)" height="21.3671875" width="50.90625" y="-0.68359375" x="-66.90625" ry="4" rx="4" class="branchLabelBkg label1"/><g class="branchLabel"><g transform="translate(-76.90625, 80.31640625)" class="label branch-label1"><text><tspan class="row" x="0" dy="1em" xml:space="preserve">style</tspan></text></g></g><line class="branch branch2" y2="180" x2="1250" y1="180" x1="0"/><rect transform="translate(-19, 171.31640625)" height="21.3671875" width="64.234375" y="-0.68359375" x="-80.234375" ry="4" rx="4" class="branchLabelBkg label2"/><g class="branchLabel"><g transform="translate(-90.234375, 170.31640625)" class="label branch-label2"><text><tspan class="row" x="0" dy="1em" xml:space="preserve">writing</tspan></text></g></g><line class="branch branch3" y2="270" x2="1250" y1="270" x1="0"/><rect transform="translate(-19, 261.5)" height="21" width="75.4765625" y="-0.5" x="-91.4765625" ry="4" rx="4" class="branchLabelBkg label3"/><g class="branchLabel"><g transform="translate(-101.4765625, 260.5)" class="label branch-label3"><text><tspan class="row" x="0" dy="1em" xml:space="preserve">overleaf</tspan></text></g></g></g><g class="commit-arrows"><path class="arrow arrow1" d="M 10 0 L 10 70 A 20 20, 0, 0, 0, 30 90 L 60 90"/><path class="arrow arrow1" d="M 60 90 L 110 90"/><path class="arrow arrow1" d="M 110 90 L 160 90"/><path class="arrow arrow2" d="M 10 0 L 10 160 A 20 20, 0, 0, 0, 30 180 L 210 180"/><path class="arrow arrow0" d="M 10 0 L 260 0"/><path class="arrow arrow1" d="M 160 90 L 240 90 A 20 20, 0, 0, 0, 260 70 L 260 0"/><path class="arrow arrow0" d="M 260 0 L 310 0"/><path class="arrow arrow2" d="M 210 180 L 290 180 A 20 20, 0, 0, 0, 310 160 L 310 0"/><path class="arrow arrow0" d="M 310 0 L 360 0"/><path class="arrow arrow2" d="M 210 180 L 410 180"/><path class="arrow arrow2" d="M 410 180 L 460 180"/><path class="arrow arrow2" d="M 460 180 L 510 180"/><path class="arrow arrow1" d="M 160 90 L 160 125 A 10 10, 0, 0, 0, 170 135 L 500 135 A 10 10, 0, 0, 1, 510 145 L 510 180"/><path class="arrow arrow3" d="M 510 180 L 510 250 A 20 20, 0, 0, 0, 530 270 L 560 270"/><path class="arrow arrow2" d="M 510 180 L 610 180"/><path class="arrow arrow2" d="M 610 180 L 660 180"/><path class="arrow arrow3" d="M 560 270 L 710 270"/><path class="arrow arrow3" d="M 710 270 L 760 270"/><path class="arrow arrow3" d="M 660 180 L 660 215 A 10 10, 0, 0, 0, 670 225 L 750 225 A 10 10, 0, 0, 1, 760 235 L 760 270"/><path class="arrow arrow3" d="M 760 270 L 810 270"/><path class="arrow arrow2" d="M 660 180 L 860 180"/><path class="arrow arrow0" d="M 360 0 L 910 0"/><path class="arrow arrow2" d="M 860 180 L 890 180 A 20 20, 0, 0, 0, 910 160 L 910 0"/><path class="arrow arrow0" d="M 910 0 L 960 0"/><path class="arrow arrow2" d="M 860 180 L 1010 180"/><path class="arrow arrow3" d="M 810 270 L 990 270 A 20 20, 0, 0, 0, 1010 250 L 1010 180"/><path class="arrow arrow2" d="M 1010 180 L 1060 180"/><path class="arrow arrow2" d="M 1060 180 L 1110 180"/><path class="arrow arrow0" d="M 960 0 L 1160 0"/><path class="arrow arrow2" d="M 1110 180 L 1140 180 A 20 20, 0, 0, 0, 1160 160 L 1160 0"/><path class="arrow arrow0" d="M 1160 0 L 1210 0"/></g><g class="commit-bullets"><circle class="commit 1st commit commit0" r="10" cy="0" cx="10"/><circle class="commit Only for style purposes commit1" r="10" cy="90" cx="60"/><circle class="commit Tables and Boxes commit1" r="10" cy="90" cx="110"/><circle class="commit Glossaries and Chapters commit1" r="10" cy="90" cx="160"/><circle class="commit Small paragraphs commit2" r="10" cy="180" cx="210"/><circle class="commit 5-270ce6f commit0" r="9" cy="0" cx="260"/><circle class="commit commit-merge 5-270ce6f commit0" r="6" cy="0" cx="260"/><circle class="commit 6-e4b77b8 commit0" r="9" cy="0" cx="310"/><circle class="commit commit-merge 6-e4b77b8 commit0" r="6" cy="0" cx="310"/><circle class="commit 7-8c10fe7 commit0" r="10" cy="0" cx="360"/><circle class="commit 8-9d0bfe0 commit2" r="10" cy="180" cx="410"/><circle class="commit 9-3ffb92b commit2" r="10" cy="180" cx="460"/><circle class="commit 10-ba0dac1 commit2" r="9" cy="180" cx="510"/><circle class="commit commit-merge 10-ba0dac1 commit2" r="6" cy="180" cx="510"/><rect class="commit Just tex commit-highlight3 commit-highlight-outer" height="20" width="20" y="260" x="550"/><rect class="commit Just tex commit3 commit-highlight-inner" height="12" width="12" y="264" x="554"/><circle class="commit 12-21156b5 commit2" r="10" cy="180" cx="610"/><circle class="commit Intro commit2" r="10" cy="180" cx="660"/><circle class="commit 14-63c0c61 commit3" r="10" cy="270" cx="710"/><circle class="commit 15-51c7b63 commit-cherry-pick" r="10" cy="270" cx="760"/><circle class="commit 15-51c7b63 commit-cherry-pick" fill="#fff" r="2.75" cy="272" cx="757"/><circle class="commit 15-51c7b63 commit-cherry-pick" fill="#fff" r="2.75" cy="272" cx="763"/><line class="commit 15-51c7b63 commit-cherry-pick" stroke="#fff" y2="265" x2="760" y1="271" x1="763"/><line class="commit 15-51c7b63 commit-cherry-pick" stroke="#fff" y2="265" x2="760" y1="271" x1="757"/><circle class="commit 16-23bdb42 commit3" r="10" cy="270" cx="810"/><circle class="commit 17-b6f9f0e commit2" r="10" cy="180" cx="860"/><circle class="commit 18-a2700af commit0" r="9" cy="0" cx="910"/><circle class="commit commit-merge 18-a2700af commit0" r="6" cy="0" cx="910"/><circle class="commit 19-b743918 commit0" r="10" cy="0" cx="960"/><circle class="commit 20-a2881f2 commit2" r="9" cy="180" cx="1010"/><path class="commit commit-reverse 20-a2881f2 commit2" d="M 1005,175L1015,185M1005,185L1015,175"/><circle class="commit Conflicts Solved commit2" r="10" cy="180" cx="1060"/><circle class="commit Final Version commit2" r="10" cy="180" cx="1110"/><circle class="commit 23-b46576a commit0" r="9" cy="0" cx="1160"/><circle class="commit commit-merge 23-b46576a commit0" r="6" cy="0" cx="1160"/><circle class="commit 24-4907843 commit0" r="10" cy="0" cx="1210"/></g><g class="commit-labels"><g transform="translate(-29.670625, 26.436875) rotate(-45, 0, 0)"><rect height="15" width="52.34375" y="13.5" x="-16.171875" class="commit-label-bkg"/><text class="commit-label" y="25" x="-14.171875">1st commit</text></g><g transform="translate(-50.160937499999996, 44.7703125) rotate(-45, 50, 90)"><rect height="15.1044921875" width="106.265625" y="103.5" x="6.8671875" class="commit-label-bkg"/><text class="commit-label" y="115" x="8.8671875">Only for style purposes</text></g><g transform="translate(-41.3021875, 36.8440625) rotate(-45, 100, 90)"><rect height="15" width="82.953125" y="103.5" x="68.5234375" class="commit-label-bkg"/><text class="commit-label" y="115" x="70.5234375">Tables and Boxes</text></g><g transform="translate(-53.12375, 47.42125) rotate(-45, 150, 90)"><rect height="15" width="114.0625" y="103.5" x="102.96875" class="commit-label-bkg"/><text class="commit-label" y="115" x="104.96875">Glossaries and Chapters</text></g><g transform="translate(-41.0825, 36.647499999999994) rotate(-45, 200, 180)"><rect height="15.1044921875" width="82.375" y="193.5" x="168.8125" class="commit-label-bkg"/><text class="commit-label" y="205" x="170.8125">Small paragraphs</text></g><g transform="translate(-28.2040625, 25.1246875) rotate(-45, 350, 0)"><rect height="15" width="48.484375" y="13.5" x="335.7578125" class="commit-label-bkg"/><text class="commit-label" y="25" x="337.7578125">7-8c10fe7</text></g><polygon points="317.69580078125,-17.2  &#10;      317.69580078125,-21.2&#10;      325.69580078125,-26.7&#10;      394.30419921875,-26.7&#10;      394.30419921875,-11.7&#10;      325.69580078125,-11.7" class="tag-label-bkg"/><circle class="tag-hole" r="1.5" cx="321.69580078125" cy="-19.2"/><text x="329.69580078125" class="tag-label" y="-16">Alpha version</text><g transform="translate(-28.417812499999997, 25.315937499999997) rotate(-45, 400, 180)"><rect height="15" width="49.046875" y="193.5" x="385.4765625" class="commit-label-bkg"/><text class="commit-label" y="205" x="387.4765625">8-9d0bfe0</text></g><g transform="translate(-27.2896875, 24.3065625) rotate(-45, 450, 180)"><rect height="15" width="46.078125" y="193.5" x="436.9609375" class="commit-label-bkg"/><text class="commit-label" y="205" x="438.9609375">9-3ffb92b</text></g><g transform="translate(-24.398125, 21.719375) rotate(-45, 550, 270)"><rect height="15" width="38.46875" y="283.5" x="540.765625" class="commit-label-bkg"/><text class="commit-label" y="295" x="542.765625">Just tex</text></g><g transform="translate(-31.309375, 27.903125000000003) rotate(-45, 600, 180)"><rect height="15" width="56.65625" y="193.5" x="581.671875" class="commit-label-bkg"/><text class="commit-label" y="205" x="583.671875">12-21156b5</text></g><g transform="translate(-18.9059375, 16.8053125) rotate(-45, 650, 180)"><rect height="15" width="24.015625" y="193.5" x="647.9921875" class="commit-label-bkg"/><text class="commit-label" y="205" x="649.9921875">Intro</text></g><g transform="translate(-31.1609375, 27.770312500000003) rotate(-45, 700, 270)"><rect height="15" width="56.265625" y="283.5" x="681.8671875" class="commit-label-bkg"/><text class="commit-label" y="295" x="683.8671875">14-63c0c61</text></g><polygon points="712.15625,252.8  &#10;      712.15625,248.8&#10;      720.15625,243.24775390625&#10;      799.84375,243.24775390625&#10;      799.84375,258.35224609375&#10;      720.15625,258.35224609375" class="tag-label-bkg"/><circle class="tag-hole" r="1.5" cx="716.15625" cy="250.8"/><text x="724.15625" class="tag-label" y="254">cherry-pick:Intro</text><g transform="translate(-31.5884375, 28.1528125) rotate(-45, 800, 270)"><rect height="15" width="57.390625" y="283.5" x="781.3046875" class="commit-label-bkg"/><text class="commit-label" y="295" x="783.3046875">16-23bdb42</text></g><g transform="translate(-29.474687499999998, 26.2615625) rotate(-45, 850, 180)"><rect height="15" width="51.828125" y="193.5" x="834.0859375" class="commit-label-bkg"/><text class="commit-label" y="205" x="836.0859375">17-b6f9f0e</text></g><g transform="translate(-31.5884375, 28.1528125) rotate(-45, 950, 0)"><rect height="15" width="57.390625" y="13.5" x="931.3046875" class="commit-label-bkg"/><text class="commit-label" y="25" x="933.3046875">19-b743918</text></g><polygon points="919.640625,-17.2  &#10;      919.640625,-21.2&#10;      927.640625,-26.7&#10;      992.359375,-26.7&#10;      992.359375,-11.7&#10;      927.640625,-11.7" class="tag-label-bkg"/><circle class="tag-hole" r="1.5" cx="923.640625" cy="-19.2"/><text x="931.640625" class="tag-label" y="-16">Beta Version</text><g transform="translate(-38.5471875, 34.3790625) rotate(-45, 1050, 180)"><rect height="15" width="75.703125" y="193.5" x="1022.1484375" class="commit-label-bkg"/><text class="commit-label" y="205" x="1024.1484375">Conflicts Solved</text></g><g transform="translate(-33.26875, 29.65625) rotate(-45, 1100, 180)"><rect height="15" width="61.8125" y="193.5" x="1079.09375" class="commit-label-bkg"/><text class="commit-label" y="205" x="1081.09375">Final Version</text></g><g transform="translate(-31.5884375, 28.1528125) rotate(-45, 1200, 0)"><rect height="15" width="57.390625" y="13.5" x="1181.3046875" class="commit-label-bkg"/><text class="commit-label" y="25" x="1183.3046875">24-4907843</text></g><polygon points="1163.5390625,-17.2  &#10;      1163.5390625,-21.2&#10;      1171.5390625,-26.75224609375&#10;      1248.4609375,-26.75224609375&#10;      1248.4609375,-11.64775390625&#10;      1171.5390625,-11.64775390625" class="tag-label-bkg"/><circle class="tag-hole" r="1.5" cx="1167.5390625" cy="-19.2"/><text x="1175.5390625" class="tag-label" y="-16">Printing version</text></g></svg>