<svg aria-roledescription="gitGraph" role="graphics-document document" viewBox="-118.4765625 -34.75224685668945 1376.4765625 372.3482360839844" style="max-width: 1376.4765625px;" xmlns="http://www.w3.org/2000/svg" width="100%" id="export-svg"><style xmlns="http://www.w3.org/1999/xhtml">@import url("https://cdnjs.cloudflare.com/ajax/libs/font-awesome/6.2.0/css/all.min.css"); p {margin: 0;}</style><style>#export-svg{font-family:"trebuchet ms",verdana,arial,sans-serif;font-size:16px;fill:#333;}#export-svg .error-icon{fill:hsl(220.5882352941, 100%, 98.3333333333%);}#export-svg .error-text{fill:rgb(8.5000000002, 5.7500000001, 0);stroke:rgb(8.5000000002, 5.7500000001, 0);}#export-svg .edge-thickness-normal{stroke-width:1px;}#export-svg .edge-thickness-thick{stroke-width:3.5px;}#export-svg .edge-pattern-solid{stroke-dasharray:0;}#export-svg .edge-thickness-invisible{stroke-width:0;fill:none;}#export-svg .edge-pattern-dashed{stroke-dasharray:3;}#export-svg .edge-pattern-dotted{stroke-dasharray:2;}#export-svg .marker{fill:#0b0b0b;stroke:#0b0b0b;}#export-svg .marker.cross{stroke:#0b0b0b;}#export-svg svg{font-family:"trebuchet ms",verdana,arial,sans-serif;font-size:16px;}#export-svg p{margin:0;}#export-svg .commit-id,#export-svg .commit-msg,#export-svg .branch-label{fill:lightgrey;color:lightgrey;font-family:'trebuchet ms',verdana,arial,sans-serif;font-family:var(--mermaid-font-family);}#export-svg .branch-label0{fill:#333;}#export-svg .commit0{stroke:hsl(40.5882352941, 100%, 68.3333333333%);fill:hsl(40.5882352941, 100%, 68.3333333333%);}#export-svg .commit-highlight0{stroke:rgb(0, 52.2500000001, 161.5000000002);fill:rgb(0, 52.2500000001, 161.5000000002);}#export-svg .label0{fill:hsl(40.5882352941, 100%, 68.3333333333%);}#export-svg .arrow0{stroke:hsl(40.5882352941, 100%, 68.3333333333%);}#export-svg .branch-label1{fill:#333;}#export-svg .commit1{stroke:hsl(-79.4117647059, 100%, 68.3333333333%);fill:hsl(-79.4117647059, 100%, 68.3333333333%);}#export-svg .commit-highlight1{stroke:rgb(52.2500000001, 161.5000000002, 0);fill:rgb(52.2500000001, 161.5000000002, 0);}#export-svg .label1{fill:hsl(-79.4117647059, 100%, 68.3333333333%);}#export-svg .arrow1{stroke:hsl(-79.4117647059, 100%, 68.3333333333%);}#export-svg .branch-label2{fill:#333;}#export-svg .commit2{stroke:hsl(220.5882352941, 100%, 73.3333333333%);fill:hsl(220.5882352941, 100%, 73.3333333333%);}#export-svg .commit-highlight2{stroke:rgb(136.0000000002, 92.0000000001, 0);fill:rgb(136.0000000002, 92.0000000001, 0);}#export-svg .label2{fill:hsl(220.5882352941, 100%, 73.3333333333%);}#export-svg .arrow2{stroke:hsl(220.5882352941, 100%, 73.3333333333%);}#export-svg .branch-label3{fill:#333;}#export-svg .commit3{stroke:hsl(10.5882352941, 100%, 68.3333333333%);fill:hsl(10.5882352941, 100%, 68.3333333333%);}#export-svg .commit-highlight3{stroke:rgb(0, 133.0000000002, 161.5000000002);fill:rgb(0, 133.0000000002, 161.5000000002);}#export-svg .label3{fill:hsl(10.5882352941, 100%, 68.3333333333%);}#export-svg .arrow3{stroke:hsl(10.5882352941, 100%, 68.3333333333%);}#export-svg .branch-label4{fill:#333;}#export-svg .commit4{stroke:hsl(-19.4117647059, 100%, 68.3333333333%);fill:hsl(-19.4117647059, 100%, 68.3333333333%);}#export-svg .commit-highlight4{stroke:rgb(0, 161.5000000002, 109.2500000001);fill:rgb(0, 161.5000000002, 109.2500000001);}#export-svg .label4{fill:hsl(-19.4117647059, 100%, 68.3333333333%);}#export-svg .arrow4{stroke:hsl(-19.4117647059, 100%, 68.3333333333%);}#export-svg .branch-label5{fill:#333;}#export-svg .commit5{stroke:hsl(-49.4117647059, 100%, 68.3333333333%);fill:hsl(-49.4117647059, 100%, 68.3333333333%);}#export-svg .commit-highlight5{stroke:rgb(0, 161.5000000002, 28.5);fill:rgb(0, 161.5000000002, 28.5);}#export-svg .label5{fill:hsl(-49.4117647059, 100%, 68.3333333333%);}#export-svg .arrow5{stroke:hsl(-49.4117647059, 100%, 68.3333333333%);}#export-svg .branch-label6{fill:#333;}#export-svg .commit6{stroke:hsl(100.5882352941, 100%, 68.3333333333%);fill:hsl(100.5882352941, 100%, 68.3333333333%);}#export-svg .commit-highlight6{stroke:rgb(109.2500000001, 0, 161.5000000002);fill:rgb(109.2500000001, 0, 161.5000000002);}#export-svg .label6{fill:hsl(100.5882352941, 100%, 68.3333333333%);}#export-svg .arrow6{stroke:hsl(100.5882352941, 100%, 68.3333333333%);}#export-svg .branch-label7{fill:#333;}#export-svg .commit7{stroke:hsl(160.5882352941, 100%, 68.3333333333%);fill:hsl(160.5882352941, 100%, 68.3333333333%);}#export-svg .commit-highlight7{stroke:rgb(161.5000000002, 0, 52.2500000001);fill:rgb(161.5000000002, 0, 52.2500000001);}#export-svg .label7{fill:hsl(160.5882352941, 100%, 68.3333333333%);}#export-svg .arrow7{stroke:hsl(160.5882352941, 100%, 68.3333333333%);}#export-svg .branch{stroke-width:1;stroke:#0b0b0b;stroke-dasharray:2;}#export-svg .commit-label{font-size:10px;fill:rgb(11.0000000001, 34.0000000002, 0);}#export-svg .commit-label-bkg{font-size:10px;fill:hsl(-79.4117647059, 100%, 93.3333333333%);opacity:0.5;}#export-svg .tag-label{font-size:10px;fill:#333;}#export-svg .tag-label-bkg{fill:#fff4dd;stroke:hsl(40.5882352941, 60%, 83.3333333333%);}#export-svg .tag-hole{fill:#333;}#export-svg .commit-merge{stroke:#fff4dd;fill:#fff4dd;}#export-svg .commit-reverse{stroke:#fff4dd;fill:#fff4dd;stroke-width:3;}#export-svg .commit-highlight-inner{stroke:#fff4dd;fill:#fff4dd;}#export-svg .arrow{stroke-width:8;stroke-linecap:round;fill:none;}#export-svg .gitTitleText{text-anchor:middle;font-size:18px;fill:#333;}#export-svg .node .neo-node{stroke:hsl(40.5882352941, 60%, 83.3333333333%);}#export-svg [data-look="neo"].node rect,#export-svg [data-look="neo"].cluster rect,#export-svg [data-look="neo"].node polygon{stroke:url(#export-svg-gradient);filter:drop-shadow( 1px 2px 2px rgba(185,185,185,1));}#export-svg [data-look="neo"].node rect,#export-svg [data-look="neo"].node polygon,#export-svg [data-look="neo"].node path{stroke:url(#export-svg-gradient);filter:drop-shadow( 1px 2px 2px rgba(185,185,185,1));}#export-svg [data-look="neo"].node .neo-line path{stroke:hsl(40.5882352941, 60%, 83.3333333333%);filter:none;}#export-svg [data-look="neo"].node circle{stroke:url(#export-svg-gradient);filter:drop-shadow( 1px 2px 2px rgba(185,185,185,1));}#export-svg [data-look="neo"].node circle .state-start{fill:#000000;}#export-svg [data-look="neo"].statediagram-cluster rect{fill:#fff4dd;stroke:url(#export-svg-gradient);stroke-width:1px;}#export-svg :root{--mermaid-font-family:"trebuchet ms",verdana,arial,sans-serif;}</style><g/><g class="commit-bullets"/><g class="commit-labels"/><g><line class="branch branch0" y2="0" x2="1250" y1="0" x1="0"/><rect transform="translate(-19, -8.5)" height="21" width="52.6875" y="-0.5" x="-68.6875" ry="4" rx="4" class="branchLabelBkg label0"/><g class="branchLabel"><g transform="translate(-78.6875, -9.5)" class="label branch-label0"><text><tspan class="row" x="0" dy="1em" xml:space="preserve">main</tspan></text></g></g><line class="branch branch1" y2="90" x2="1250" y1="90" x1="0"/><rect transform="translate(-19, 81.31640625)" height="21.3671875" width="50.90625" y="-0.68359375" x="-66.90625" ry="4" rx="4" class="branchLabelBkg label1"/><g class="branchLabel"><g transform="translate(-76.90625, 80.31640625)" class="label branch-label1"><text><tspan class="row" x="0" dy="1em" xml:space="preserve">style</tspan></text></g></g><line class="branch branch2" y2="180" x2="1250" y1="180" x1="0"/><rect transform="translate(-19, 171.31640625)" height="21.3671875" width="64.234375" y="-0.68359375" x="-80.234375" ry="4" rx="4" class="branchLabelBkg label2"/><g class="branchLabel"><g transform="translate(-90.234375, 170.31640625)" class="label branch-label2"><text><tspan class="row" x="0" dy="1em" xml:space="preserve">writing</tspan></text></g></g><line class="branch branch3" y2="270" x2="1250" y1="270" x1="0"/><rect transform="translate(-19, 261.5)" height="21" width="75.4765625" y="-0.5" x="-91.4765625" ry="4" rx="4" class="branchLabelBkg label3"/><g class="branchLabel"><g transform="translate(-101.4765625, 260.5)" class="label branch-label3"><text><tspan class="row" x="0" dy="1em" xml:space="preserve">overleaf</tspan></text></g></g></g><g class="commit-arrows"><path class="arrow arrow1" d="M 10 0 L 10 70 A 20 20, 0, 0, 0, 30 90 L 60 90"/><path class="arrow arrow1" d="M 60 90 L 110 90"/><path class="arrow arrow1" d="M 110 90 L 160 90"/><path class="arrow arrow2" d="M 10 0 L 10 160 A 20 20, 0, 0, 0, 30 180 L 210 180"/><path class="arrow arrow0" d="M 10 0 L 260 0"/><path class="arrow arrow1" d="M 160 90 L 240 90 A 20 20, 0, 0, 0, 260 70 L 260 0"/><path class="arrow arrow0" d="M 260 0 L 310 0"/><path class="arrow arrow2" d="M 210 180 L 290 180 A 20 20, 0, 0, 0, 310 160 L 310 0"/><path class="arrow arrow0" d="M 310 0 L 360 0"/><path class="arrow arrow2" d="M 210 180 L 410 180"/><path class="arrow arrow2" d="M 410 180 L 460 180"/><path class="arrow arrow2" d="M 460 180 L 510 180"/><path class="arrow arrow1" d="M 160 90 L 160 125 A 10 10, 0, 0, 0, 170 135 L 500 135 A 10 10, 0, 0, 1, 510 145 L 510 180"/><path class="arrow arrow3" d="M 510 180 L 510 250 A 20 20, 0, 0, 0, 530 270 L 560 270"/><path class="arrow arrow2" d="M 510 180 L 610 180"/><path class="arrow arrow2" d="M 610 180 L 660 180"/><path class="arrow arrow3" d="M 560 270 L 710 270"/><path class="arrow arrow3" d="M 710 270 L 760 270"/><path class="arrow arrow3" d="M 660 180 L 660 215 A 10 10, 0, 0, 0, 670 225 L 750 225 A 10 10, 0, 0, 1, 760 235 L 760 270"/><path class="arrow arrow3" d="M 760 270 L 810 270"/><path class="arrow arrow2" d="M 660 180 L 860 180"/><path class="arrow arrow0" d="M 360 0 L 910 0"/><path class="arrow arrow2" d="M 860 180 L 890 180 A 20 20, 0, 0, 0, 910 160 L 910 0"/><path class="arrow arrow0" d="M 910 0 L 960 0"/><path class="arrow arrow2" d="M 860 180 L 1010 180"/><path class="arrow arrow3" d="M 810 270 L 990 270 A 20 20, 0, 0, 0, 1010 250 L 1010 180"/><path class="arrow arrow2" d="M 1010 180 L 1060 180"/><path class="arrow arrow2" d="M 1060 180 L 1110 180"/><path class="arrow arrow0" d="M 960 0 L 1160 0"/><path class="arrow arrow2" d="M 1110 180 L 1140 180 A 20 20, 0, 0, 0, 1160 160 L 1160 0"/><path class="arrow arrow0" d="M 1160 0 L 1210 0"/></g><g class="commit-bullets"><circle class="commit 1st commit commit0" r="10" cy="0" cx="10"/><circle class="commit Only for style purposes commit1" r="10" cy="90" cx="60"/><circle class="commit Tables and Boxes commit1" r="10" cy="90" cx="110"/><circle class="commit Glossaries and Chapters commit1" r="10" cy="90" cx="160"/><circle class="commit Small paragraphs commit2" r="10" cy="180" cx="210"/><circle class="commit 5-b410060 commit0" r="9" cy="0" cx="260"/><circle class="commit commit-merge 5-b410060 commit0" r="6" cy="0" cx="260"/><circle class="commit 6-3541969 commit0" r="9" cy="0" cx="310"/><circle class="commit commit-merge 6-3541969 commit0" r="6" cy="0" cx="310"/><circle class="commit 7-cd7cc4a commit0" r="10" cy="0" cx="360"/><circle class="commit 8-adce499 commit2" r="10" cy="180" cx="410"/><circle class="commit 9-74fca99 commit2" r="10" cy="180" cx="460"/><circle class="commit 10-5510b4d commit2" r="9" cy="180" cx="510"/><circle class="commit commit-merge 10-5510b4d commit2" r="6" cy="180" cx="510"/><rect class="commit Just tex commit-highlight3 commit-highlight-outer" height="20" width="20" y="260" x="550"/><rect class="commit Just tex commit3 commit-highlight-inner" height="12" width="12" y="264" x="554"/><circle class="commit 12-cb23429 commit2" r="10" cy="180" cx="610"/><circle class="commit Intro commit2" r="10" cy="180" cx="660"/><circle class="commit 14-95bf3a1 commit3" r="10" cy="270" cx="710"/><circle class="commit 15-87d77ed commit-cherry-pick" r="10" cy="270" cx="760"/><circle class="commit 15-87d77ed commit-cherry-pick" fill="#fff" r="2.75" cy="272" cx="757"/><circle class="commit 15-87d77ed commit-cherry-pick" fill="#fff" r="2.75" cy="272" cx="763"/><line class="commit 15-87d77ed commit-cherry-pick" stroke="#fff" y2="265" x2="760" y1="271" x1="763"/><line class="commit 15-87d77ed commit-cherry-pick" stroke="#fff" y2="265" x2="760" y1="271" x1="757"/><circle class="commit 16-5e1e5f4 commit3" r="10" cy="270" cx="810"/><circle class="commit 17-e6199c5 commit2" r="10" cy="180" cx="860"/><circle class="commit 18-1cf5b47 commit0" r="9" cy="0" cx="910"/><circle class="commit commit-merge 18-1cf5b47 commit0" r="6" cy="0" cx="910"/><circle class="commit 19-dd71ce1 commit0" r="10" cy="0" cx="960"/><circle class="commit 20-baf9694 commit2" r="9" cy="180" cx="1010"/><path class="commit commit-reverse 20-baf9694 commit2" d="M 1005,175L1015,185M1005,185L1015,175"/><circle class="commit Conflicts Solved commit2" r="10" cy="180" cx="1060"/><circle class="commit Final Version commit2" r="10" cy="180" cx="1110"/><circle class="commit 23-8432789 commit0" r="9" cy="0" cx="1160"/><circle class="commit commit-merge 23-8432789 commit0" r="6" cy="0" cx="1160"/><circle class="commit 24-a52aaa4 commit0" r="10" cy="0" cx="1210"/></g><g class="commit-labels"><g transform="translate(-29.670625, 26.436875) rotate(-45, 0, 0)"><rect height="15" width="52.34375" y="13.5" x="-16.171875" class="commit-label-bkg"/><text class="commit-label" y="25" x="-14.171875">1st commit</text></g><g transform="translate(-50.160937499999996, 44.7703125) rotate(-45, 50, 90)"><rect height="15.1044921875" width="106.265625" y="103.5" x="6.8671875" class="commit-label-bkg"/><text class="commit-label" y="115" x="8.8671875">Only for style purposes</text></g><g transform="translate(-41.3021875, 36.8440625) rotate(-45, 100, 90)"><rect height="15" width="82.953125" y="103.5" x="68.5234375" class="commit-label-bkg"/><text class="commit-label" y="115" x="70.5234375">Tables and Boxes</text></g><g transform="translate(-53.12375, 47.42125) rotate(-45, 150, 90)"><rect height="15" width="114.0625" y="103.5" x="102.96875" class="commit-label-bkg"/><text class="commit-label" y="115" x="104.96875">Glossaries and Chapters</text></g><g transform="translate(-41.0825, 36.647499999999994) rotate(-45, 200, 180)"><rect height="15.1044921875" width="82.375" y="193.5" x="168.8125" class="commit-label-bkg"/><text class="commit-label" y="205" x="170.8125">Small paragraphs</text></g><g transform="translate(-28.8334375, 25.6878125) rotate(-45, 350, 0)"><rect height="15" width="50.140625" y="13.5" x="334.9296875" class="commit-label-bkg"/><text class="commit-label" y="25" x="336.9296875">7-cd7cc4a</text></g><polygon points="317.69580078125,-17.2  &#10;      317.69580078125,-21.2&#10;      325.69580078125,-26.7&#10;      394.30419921875,-26.7&#10;      394.30419921875,-11.7&#10;      325.69580078125,-11.7" class="tag-label-bkg"/><circle class="tag-hole" r="1.5" cx="321.69580078125" cy="-19.2"/><text x="329.69580078125" class="tag-label" y="-16">Alpha version</text><g transform="translate(-29.2609375, 26.0703125) rotate(-45, 400, 180)"><rect height="15" width="51.265625" y="193.5" x="384.3671875" class="commit-label-bkg"/><text class="commit-label" y="205" x="386.3671875">8-adce499</text></g><g transform="translate(-28.2040625, 25.1246875) rotate(-45, 450, 180)"><rect height="15" width="48.484375" y="193.5" x="435.7578125" class="commit-label-bkg"/><text class="commit-label" y="205" x="437.7578125">9-74fca99</text></g><g transform="translate(-24.398125, 21.719375) rotate(-45, 550, 270)"><rect height="15" width="38.46875" y="283.5" x="540.765625" class="commit-label-bkg"/><text class="commit-label" y="295" x="542.765625">Just tex</text></g><g transform="translate(-31.3746875, 27.9615625) rotate(-45, 600, 180)"><rect height="15" width="56.828125" y="193.5" x="581.5859375" class="commit-label-bkg"/><text class="commit-label" y="205" x="583.5859375">12-cb23429</text></g><g transform="translate(-18.9059375, 16.8053125) rotate(-45, 650, 180)"><rect height="15" width="24.015625" y="193.5" x="647.9921875" class="commit-label-bkg"/><text class="commit-label" y="205" x="649.9921875">Intro</text></g><g transform="translate(-30.5315625, 27.2071875) rotate(-45, 700, 270)"><rect height="15" width="54.609375" y="283.5" x="682.6953125" class="commit-label-bkg"/><text class="commit-label" y="295" x="684.6953125">14-95bf3a1</text></g><polygon points="712.15625,252.8  &#10;      712.15625,248.8&#10;      720.15625,243.24775390625&#10;      799.84375,243.24775390625&#10;      799.84375,258.35224609375&#10;      720.15625,258.35224609375" class="tag-label-bkg"/><circle class="tag-hole" r="1.5" cx="716.15625" cy="250.8"/><text x="724.15625" class="tag-label" y="254">cherry-pick:Intro</text><g transform="translate(-30.5315625, 27.2071875) rotate(-45, 800, 270)"><rect height="15" width="54.609375" y="283.5" x="782.6953125" class="commit-label-bkg"/><text class="commit-label" y="295" x="784.6953125">16-5e1e5f4</text></g><g transform="translate(-31.3746875, 27.9615625) rotate(-45, 850, 180)"><rect height="15" width="56.828125" y="193.5" x="831.5859375" class="commit-label-bkg"/><text class="commit-label" y="205" x="833.5859375">17-e6199c5</text></g><g transform="translate(-31.3746875, 27.9615625) rotate(-45, 950, 0)"><rect height="15" width="56.828125" y="13.5" x="931.5859375" class="commit-label-bkg"/><text class="commit-label" y="25" x="933.5859375">19-dd71ce1</text></g><polygon points="919.640625,-17.2  &#10;      919.640625,-21.2&#10;      927.640625,-26.7&#10;      992.359375,-26.7&#10;      992.359375,-11.7&#10;      927.640625,-11.7" class="tag-label-bkg"/><circle class="tag-hole" r="1.5" cx="923.640625" cy="-19.2"/><text x="931.640625" class="tag-label" y="-16">Beta Version</text><g transform="translate(-38.5471875, 34.3790625) rotate(-45, 1050, 180)"><rect height="15" width="75.703125" y="193.5" x="1022.1484375" class="commit-label-bkg"/><text class="commit-label" y="205" x="1024.1484375">Conflicts Solved</text></g><g transform="translate(-33.26875, 29.65625) rotate(-45, 1100, 180)"><rect height="15" width="61.8125" y="193.5" x="1079.09375" class="commit-label-bkg"/><text class="commit-label" y="205" x="1081.09375">Final Version</text></g><g transform="translate(-31.5884375, 28.1528125) rotate(-45, 1200, 0)"><rect height="15" width="57.390625" y="13.5" x="1181.3046875" class="commit-label-bkg"/><text class="commit-label" y="25" x="1183.3046875">24-a52aaa4</text></g><polygon points="1163.5390625,-17.2  &#10;      1163.5390625,-21.2&#10;      1171.5390625,-26.75224609375&#10;      1248.4609375,-26.75224609375&#10;      1248.4609375,-11.64775390625&#10;      1171.5390625,-11.64775390625" class="tag-label-bkg"/><circle class="tag-hole" r="1.5" cx="1167.5390625" cy="-19.2"/><text x="1175.5390625" class="tag-label" y="-16">Printing version</text></g></svg>