<?xml version="1.0" encoding="UTF-8" standalone="no"?>
<!DOCTYPE svg PUBLIC "-//W3C//DTD SVG 1.1//EN"
 "http://www.w3.org/Graphics/SVG/1.1/DTD/svg11.dtd">
<!-- Generated by graphviz version 12.1.2 (20240928.0832)
 -->
<!-- Title: mygraph Pages: 1 -->
<svg width="598pt" height="478pt"
 viewBox="0.00 0.00 598.25 477.83" xmlns="http://www.w3.org/2000/svg" xmlns:xlink="http://www.w3.org/1999/xlink">
<g id="graph0" class="graph" transform="scale(1 1) rotate(0) translate(4 473.83)">
<title>mygraph</title>
<polygon fill="white" stroke="none" points="-4,4 -4,-473.83 594.25,-473.83 594.25,4 -4,4"/>
<!-- ADF -->
<g id="node1" class="node">
<title>ADF</title>
<ellipse fill="#32cd32" stroke="black" cx="360.5" cy="-450.92" rx="36.77" ry="18.92"/>
<text text-anchor="middle" x="360.5" y="-443.19" font-family="Helvetica,Arial,sans-serif" font-size="18.00" fill="#000000">ADF</text>
</g>
<!-- DoSinglePoint -->
<g id="node2" class="node">
<title>DoSinglePoint</title>
<polygon fill="#add8e6" stroke="black" points="414.62,-396 306.38,-396 306.38,-360 414.62,-360 414.62,-396"/>
<text text-anchor="start" x="314.38" y="-377.7" font-family="Helvetica,Arial,sans-serif" font-weight="bold" font-size="14.00" fill="#000000">DoSinglePoint</text>
<text text-anchor="start" x="337.25" y="-367.5" font-family="Helvetica,Arial,sans-serif" font-size="10.00" fill="#000000">(adf/amol/)</text>
</g>
<!-- ADF&#45;&gt;DoSinglePoint -->
<g id="edge1" class="edge">
<title>ADF&#45;&gt;DoSinglePoint</title>
<path fill="none" stroke="#ff5733" stroke-width="2" d="M363.95,-431.81C364.47,-425.94 364.3,-419.59 363.44,-409.02"/>
<polygon fill="#ff5733" stroke="#ff5733" stroke-width="2" points="366.96,-408.99 362.57,-399.35 359.98,-409.62 366.96,-408.99"/>
</g>
<!-- DoPostSCF -->
<g id="node3" class="node">
<title>DoPostSCF</title>
<polygon fill="#add8e6" stroke="black" points="353.62,-324 263.38,-324 263.38,-288 353.62,-288 353.62,-324"/>
<text text-anchor="start" x="271.38" y="-305.7" font-family="Helvetica,Arial,sans-serif" font-weight="bold" font-size="14.00" fill="#000000">DoPostSCF</text>
<text text-anchor="start" x="285.25" y="-295.5" font-family="Helvetica,Arial,sans-serif" font-size="10.00" fill="#000000">(adf/amol/)</text>
</g>
<!-- DoSinglePoint&#45;&gt;DoPostSCF -->
<g id="edge2" class="edge">
<title>DoSinglePoint&#45;&gt;DoPostSCF</title>
<path fill="none" stroke="#ff5733" stroke-width="2" d="M342.92,-359.55C338.41,-353.91 333.78,-347.01 326.47,-335.28"/>
<polygon fill="#ff5733" stroke="#ff5733" stroke-width="2" points="329.46,-333.46 321.22,-326.8 323.5,-337.14 329.46,-333.46"/>
</g>
<!-- Symaexcit -->
<g id="node4" class="node">
<title>Symaexcit</title>
<polygon fill="#add8e6" stroke="black" points="486.25,-324 402.75,-324 402.75,-288 486.25,-288 486.25,-324"/>
<text text-anchor="start" x="410.75" y="-305.7" font-family="Helvetica,Arial,sans-serif" font-weight="bold" font-size="14.00" fill="#000000">Symaexcit</text>
<text text-anchor="start" x="410.75" y="-295.5" font-family="Helvetica,Arial,sans-serif" font-size="10.00" fill="#000000">(adf/excitation/)</text>
</g>
<!-- DoSinglePoint&#45;&gt;Symaexcit -->
<g id="edge3" class="edge">
<title>DoSinglePoint&#45;&gt;Symaexcit</title>
<path fill="none" stroke="#ff5733" stroke-width="2" d="M406.09,-359.52C415.82,-353.75 421.92,-346.95 428.9,-335.29"/>
<polygon fill="#ff5733" stroke="#ff5733" stroke-width="2" points="431.76,-337.34 433.59,-326.91 425.65,-333.93 431.76,-337.34"/>
</g>
<!-- atoten -->
<g id="node6" class="node">
<title>atoten</title>
<polygon fill="#add8e6" stroke="black" points="196.62,-252 124.38,-252 124.38,-216 196.62,-216 196.62,-252"/>
<text text-anchor="start" x="132.38" y="-233.7" font-family="Helvetica,Arial,sans-serif" font-weight="bold" font-size="14.00" fill="#000000">1&#45; atoten</text>
<text text-anchor="start" x="136.88" y="-223.5" font-family="Helvetica,Arial,sans-serif" font-size="10.00" fill="#000000">(adf/toten/)</text>
</g>
<!-- DoPostSCF&#45;&gt;atoten -->
<g id="edge4" class="edge">
<title>DoPostSCF&#45;&gt;atoten</title>
<path fill="none" stroke="#008080" stroke-width="1.5" d="M263.15,-297.13C219.74,-288.04 204.89,-281.51 184.83,-261.1"/>
<polygon fill="#008080" stroke="#008080" stroke-width="1.5" points="187.43,-258.76 178.04,-253.86 182.33,-263.55 187.43,-258.76"/>
</g>
<!-- adebye -->
<g id="node7" class="node">
<title>adebye</title>
<polygon fill="#add8e6" stroke="black" points="292.62,-252 214.38,-252 214.38,-216 292.62,-216 292.62,-252"/>
<text text-anchor="start" x="222.38" y="-233.7" font-family="Helvetica,Arial,sans-serif" font-weight="bold" font-size="14.00" fill="#000000">2&#45; adebye</text>
<text text-anchor="start" x="227.62" y="-223.5" font-family="Helvetica,Arial,sans-serif" font-size="10.00" fill="#000000">(adf/debye/)</text>
</g>
<!-- DoPostSCF&#45;&gt;adebye -->
<g id="edge5" class="edge">
<title>DoPostSCF&#45;&gt;adebye</title>
<path fill="none" stroke="#008080" stroke-width="1.5" d="M280.38,-287.65C274.62,-282.02 270.52,-275.11 265.37,-263.36"/>
<polygon fill="#008080" stroke="#008080" stroke-width="1.5" points="268.7,-262.24 261.61,-254.36 262.24,-264.94 268.7,-262.24"/>
</g>
<!-- AIMResults -->
<g id="node8" class="node">
<title>AIMResults</title>
<polygon fill="#add8e6" stroke="black" points="416.5,-252 310.5,-252 310.5,-216 416.5,-216 416.5,-252"/>
<text text-anchor="start" x="318.5" y="-233.7" font-family="Helvetica,Arial,sans-serif" font-weight="bold" font-size="14.00" fill="#000000">3&#45; AIMResults</text>
<text text-anchor="start" x="336.12" y="-223.5" font-family="Helvetica,Arial,sans-serif" font-size="10.00" fill="#000000">(adf/bader7/)</text>
</g>
<!-- DoPostSCF&#45;&gt;AIMResults -->
<g id="edge6" class="edge">
<title>DoPostSCF&#45;&gt;AIMResults</title>
<path fill="none" stroke="#008080" stroke-width="1.5" d="M337.25,-287.83C345.57,-281.29 349.99,-274.94 354.19,-263.94"/>
<polygon fill="#008080" stroke="#008080" stroke-width="1.5" points="357.48,-265.13 357.37,-254.54 350.85,-262.89 357.48,-265.13"/>
</g>
<!-- Exitations -->
<g id="node13" class="node">
<title>Exitations</title>
<polygon fill="#add8e6" stroke="black" points="518.25,-252 434.75,-252 434.75,-216 518.25,-216 518.25,-252"/>
<text text-anchor="start" x="444.25" y="-233.7" font-family="Helvetica,Arial,sans-serif" font-weight="bold" font-size="14.00" fill="#000000">Exitations</text>
<text text-anchor="start" x="442.75" y="-223.5" font-family="Helvetica,Arial,sans-serif" font-size="10.00" fill="#000000">(adf/excitation/)</text>
</g>
<!-- Symaexcit&#45;&gt;Exitations -->
<g id="edge16" class="edge">
<title>Symaexcit&#45;&gt;Exitations</title>
<path fill="none" stroke="#ff1493" stroke-width="1.5" d="M461.61,-287.7C469.25,-278.9 472.85,-272.81 474.61,-264.47"/>
<polygon fill="#ff1493" stroke="#ff1493" stroke-width="1.5" points="478.08,-264.92 475.76,-254.59 471.13,-264.11 478.08,-264.92"/>
</g>
<!-- toten -->
<g id="node5" class="node">
<title>toten</title>
<polygon fill="#add8e6" stroke="black" points="270.12,-180 206.88,-180 206.88,-144 270.12,-144 270.12,-180"/>
<text text-anchor="start" x="222" y="-161.7" font-family="Helvetica,Arial,sans-serif" font-weight="bold" font-size="14.00" fill="#000000">toten</text>
<text text-anchor="start" x="214.88" y="-151.5" font-family="Helvetica,Arial,sans-serif" font-size="10.00" fill="#000000">(adf/toten/)</text>
</g>
<!-- toten&#45;&gt;AIMResults -->
<g id="edge12" class="edge">
<title>toten&#45;&gt;AIMResults</title>
<path fill="none" stroke="#000000" stroke-width="1.2" d="M339.36,-207.43C311.9,-178.02 300.21,-170.69 270.5,-165.99"/>
<polygon fill="#000000" stroke="#000000" stroke-width="1.2" points="336.54,-209.53 345.89,-214.52 341.69,-204.79 336.54,-209.53"/>
</g>
<!-- ADFAIMCriticalPoints -->
<g id="node9" class="node">
<title>ADFAIMCriticalPoints</title>
<polygon fill="#add8e6" stroke="black" points="156.62,-108 0.38,-108 0.38,-72 156.62,-72 156.62,-108"/>
<text text-anchor="start" x="8.38" y="-89.7" font-family="Helvetica,Arial,sans-serif" font-weight="bold" font-size="14.00" fill="#000000">ADFAIMCriticalPoints</text>
<text text-anchor="start" x="51.12" y="-79.5" font-family="Helvetica,Arial,sans-serif" font-size="10.00" fill="#000000">(adf/bader7/)</text>
</g>
<!-- toten&#45;&gt;ADFAIMCriticalPoints -->
<g id="edge8" class="edge">
<title>toten&#45;&gt;ADFAIMCriticalPoints</title>
<path fill="none" stroke="#0000cd" stroke-width="1.2" d="M206.39,-144.72C178.76,-129.89 160.48,-120.27 146.17,-113.43"/>
<polygon fill="#0000cd" stroke="#0000cd" stroke-width="1.2" points="147.64,-110.25 137.09,-109.25 144.71,-116.61 147.64,-110.25"/>
</g>
<!-- UpdateAIMTerms -->
<g id="node10" class="node">
<title>UpdateAIMTerms</title>
<polygon fill="#add8e6" stroke="black" points="302.75,-108 174.25,-108 174.25,-72 302.75,-72 302.75,-108"/>
<text text-anchor="start" x="182.25" y="-89.7" font-family="Helvetica,Arial,sans-serif" font-weight="bold" font-size="14.00" fill="#000000">UpdateAIMTerms</text>
<text text-anchor="start" x="211.12" y="-79.5" font-family="Helvetica,Arial,sans-serif" font-size="10.00" fill="#000000">(adf/bader7/)</text>
</g>
<!-- toten&#45;&gt;UpdateAIMTerms -->
<g id="edge9" class="edge">
<title>toten&#45;&gt;UpdateAIMTerms</title>
<path fill="none" stroke="#0000cd" stroke-width="1.2" d="M236.04,-143.69C234.65,-133.08 233.84,-125.77 233.6,-119.94"/>
<polygon fill="#0000cd" stroke="#0000cd" stroke-width="1.2" points="237.09,-120.14 233.99,-110 230.1,-119.86 237.09,-120.14"/>
</g>
<!-- AIMdipole -->
<g id="node11" class="node">
<title>AIMdipole</title>
<polygon fill="#add8e6" stroke="black" points="419.12,-108 337.88,-108 337.88,-72 419.12,-72 419.12,-108"/>
<text text-anchor="start" x="345.88" y="-89.7" font-family="Helvetica,Arial,sans-serif" font-weight="bold" font-size="14.00" fill="#000000">AIMdipole</text>
<text text-anchor="start" x="351.12" y="-79.5" font-family="Helvetica,Arial,sans-serif" font-size="10.00" fill="#000000">(adf/bader7/)</text>
</g>
<!-- toten&#45;&gt;AIMdipole -->
<g id="edge10" class="edge">
<title>toten&#45;&gt;AIMdipole</title>
<path fill="none" stroke="#0000cd" stroke-width="1.2" d="M258.86,-143.52C291.17,-114.39 306.35,-102.49 325.97,-96.72"/>
<polygon fill="#0000cd" stroke="#0000cd" stroke-width="1.2" points="326.72,-100.14 335.68,-94.48 325.15,-93.32 326.72,-100.14"/>
</g>
<!-- atoten&#45;&gt;toten -->
<g id="edge7" class="edge">
<title>atoten&#45;&gt;toten</title>
<path fill="none" stroke="#0000cd" stroke-width="1.2" d="M168.74,-215.72C176.28,-200 182.21,-192.33 196.44,-183.55"/>
<polygon fill="#0000cd" stroke="#0000cd" stroke-width="1.2" points="197.91,-186.74 204.88,-178.76 194.46,-180.65 197.91,-186.74"/>
</g>
<!-- adebye&#45;&gt;AIMResults -->
<g id="edge11" class="edge">
<title>adebye&#45;&gt;AIMResults</title>
<path fill="none" stroke="#000000" stroke-width="1.2" d="M292.96,-233.25C294.8,-233.22 296.56,-233.19 298.26,-233.16"/>
<polygon fill="#000000" stroke="#000000" stroke-width="1.2" points="298.25,-236.66 308.2,-233.01 298.15,-229.66 298.25,-236.66"/>
</g>
<!-- ADFAIMCriticalPoints&#45;&gt;AIMdipole -->
<g id="edge14" class="edge">
<title>ADFAIMCriticalPoints&#45;&gt;AIMdipole</title>
<path fill="none" stroke="#000000" stroke-width="1.2" d="M121.52,-71.52C195.56,-40.89 220.06,-41.67 326.25,-73.86"/>
<polygon fill="#000000" stroke="#000000" stroke-width="1.2" points="325.16,-77.18 335.74,-76.75 327.2,-70.49 325.16,-77.18"/>
</g>
<!-- FindAIMCriticalPoints -->
<g id="node12" class="node">
<title>FindAIMCriticalPoints</title>
<polygon fill="#add8e6" stroke="black" points="157,-36 0,-36 0,0 157,0 157,-36"/>
<text text-anchor="start" x="8" y="-17.7" font-family="Helvetica,Arial,sans-serif" font-weight="bold" font-size="14.00" fill="#000000">FindAIMCriticalPoints</text>
<text text-anchor="start" x="52.62" y="-7.5" font-family="Helvetica,Arial,sans-serif" font-size="10.00" fill="#000000">(lib/dft/grid/)</text>
</g>
<!-- ADFAIMCriticalPoints&#45;&gt;FindAIMCriticalPoints -->
<g id="edge13" class="edge">
<title>ADFAIMCriticalPoints&#45;&gt;FindAIMCriticalPoints</title>
<path fill="none" stroke="#000000" stroke-width="1.2" d="M74.13,-71.84C71.63,-61.04 70.33,-53.91 70.22,-47.89"/>
<polygon fill="#000000" stroke="#000000" stroke-width="1.2" points="73.68,-48.45 71.45,-38.1 66.73,-47.58 73.68,-48.45"/>
</g>
<!-- UpdateAIMTerms&#45;&gt;AIMdipole -->
<g id="edge15" class="edge">
<title>UpdateAIMTerms&#45;&gt;AIMdipole</title>
<path fill="none" stroke="#000000" stroke-width="1.2" d="M291.44,-71.56C304.28,-68.49 314.38,-68.28 326.35,-70.94"/>
<polygon fill="#000000" stroke="#000000" stroke-width="1.2" points="325.15,-74.24 335.72,-73.54 327.02,-67.5 325.15,-74.24"/>
</g>
<!-- AllocDavisonso -->
<g id="node14" class="node">
<title>AllocDavisonso</title>
<polygon fill="#add8e6" stroke="black" points="471.12,-180 353.88,-180 353.88,-144 471.12,-144 471.12,-180"/>
<text text-anchor="start" x="361.88" y="-157.2" font-family="Helvetica,Arial,sans-serif" font-weight="bold" font-size="14.00" fill="#000000">AllocDavisonso</text>
</g>
<!-- Exitations&#45;&gt;AllocDavisonso -->
<g id="edge17" class="edge">
<title>Exitations&#45;&gt;AllocDavisonso</title>
<path fill="none" stroke="#ff1493" stroke-width="1.2" d="M470.25,-215.62C465.43,-202.72 460.99,-195.55 450.88,-187.33"/>
<polygon fill="#ff1493" stroke="#ff1493" stroke-width="1.2" points="453.04,-184.57 442.91,-181.46 448.89,-190.21 453.04,-184.57"/>
</g>
<!-- AllocDavison -->
<g id="node15" class="node">
<title>AllocDavison</title>
<polygon fill="#add8e6" stroke="black" points="590.25,-180 488.75,-180 488.75,-144 590.25,-144 590.25,-180"/>
<text text-anchor="start" x="496.75" y="-157.2" font-family="Helvetica,Arial,sans-serif" font-weight="bold" font-size="14.00" fill="#000000">AllocDavison</text>
</g>
<!-- Exitations&#45;&gt;AllocDavison -->
<g id="edge18" class="edge">
<title>Exitations&#45;&gt;AllocDavison</title>
<path fill="none" stroke="#ff1493" stroke-width="1.2" d="M499.93,-215.58C513.76,-204.46 521.09,-197.69 526.29,-190.28"/>
<polygon fill="#ff1493" stroke="#ff1493" stroke-width="1.2" points="529.24,-192.17 531.16,-181.75 523.16,-188.7 529.24,-192.17"/>
</g>
<!-- MajorTransition -->
<g id="node16" class="node">
<title>MajorTransition</title>
<polygon fill="#add8e6" stroke="black" points="584.5,-108 466.5,-108 466.5,-72 584.5,-72 584.5,-108"/>
<text text-anchor="start" x="474.5" y="-85.2" font-family="Helvetica,Arial,sans-serif" font-weight="bold" font-size="14.00" fill="#000000">MajorTransition</text>
</g>
<!-- AllocDavisonso&#45;&gt;MajorTransition -->
<g id="edge19" class="edge">
<title>AllocDavisonso&#45;&gt;MajorTransition</title>
<path fill="none" stroke="#ff1493" stroke-width="1.2" d="M441.53,-143.59C463.64,-129.57 476.91,-121.14 487.23,-114.56"/>
<polygon fill="#ff1493" stroke="#ff1493" stroke-width="1.2" points="489.1,-117.53 495.64,-109.19 485.33,-111.63 489.1,-117.53"/>
</g>
<!-- AllocDavison&#45;&gt;MajorTransition -->
<g id="edge20" class="edge">
<title>AllocDavison&#45;&gt;MajorTransition</title>
<path fill="none" stroke="#ff1493" stroke-width="1.2" d="M542.13,-143.65C543.53,-132.53 543.71,-125.56 541.94,-118.99"/>
<polygon fill="#ff1493" stroke="#ff1493" stroke-width="1.2" points="545.3,-117.94 538.16,-110.11 538.86,-120.69 545.3,-117.94"/>
</g>
<!-- AnalizeAOTrans -->
<g id="node17" class="node">
<title>AnalizeAOTrans</title>
<polygon fill="#add8e6" stroke="black" points="586,-36 465,-36 465,0 586,0 586,-36"/>
<text text-anchor="start" x="473" y="-13.2" font-family="Helvetica,Arial,sans-serif" font-weight="bold" font-size="14.00" fill="#000000">AnalizeAOTrans</text>
</g>
<!-- MajorTransition&#45;&gt;AnalizeAOTrans -->
<g id="edge21" class="edge">
<title>MajorTransition&#45;&gt;AnalizeAOTrans</title>
<path fill="none" stroke="#ff1493" stroke-width="1.2" d="M530.07,-71.59C532.59,-61 533.9,-53.98 533.99,-48.01"/>
<polygon fill="#ff1493" stroke="#ff1493" stroke-width="1.2" points="537.48,-47.7 532.71,-38.23 530.54,-48.6 537.48,-47.7"/>
</g>
</g>
</svg>
