<?xml version="1.0" encoding="UTF-8" standalone="no"?>
<!DOCTYPE svg PUBLIC "-//W3C//DTD SVG 1.1//EN"
 "http://www.w3.org/Graphics/SVG/1.1/DTD/svg11.dtd">
<!-- Generated by graphviz version 12.1.2 (20240928.0832)
 -->
<!-- Title: mygraph Pages: 1 -->
<svg width="358pt" height="334pt"
 viewBox="0.00 0.00 358.38 333.83" xmlns="http://www.w3.org/2000/svg" xmlns:xlink="http://www.w3.org/1999/xlink">
<g id="graph0" class="graph" transform="scale(1 1) rotate(0) translate(4 329.83)">
<title>mygraph</title>
<polygon fill="white" stroke="none" points="-4,4 -4,-329.83 354.38,-329.83 354.38,4 -4,4"/>
<!-- BAND -->
<g id="node1" class="node">
<title>BAND</title>
<ellipse fill="#7cb3e1" stroke="black" cx="169.38" cy="-306.92" rx="46.32" ry="18.92"/>
<text text-anchor="middle" x="169.38" y="-299.19" font-family="Helvetica,Arial,sans-serif" font-size="18.00" fill="#000000">BAND</text>
</g>
<!-- DoSinglePointCalculation -->
<g id="node2" class="node">
<title>DoSinglePointCalculation</title>
<polygon fill="#add8e6" stroke="black" points="259.88,-252 78.88,-252 78.88,-216 259.88,-216 259.88,-252"/>
<text text-anchor="start" x="86.88" y="-233.7" font-family="Helvetica,Arial,sans-serif" font-weight="bold" font-size="14.00" fill="#000000">DoSinglePointCalculation</text>
<text text-anchor="start" x="154.38" y="-223.5" font-family="Helvetica,Arial,sans-serif" font-size="10.00" fill="#000000">(band/)</text>
</g>
<!-- BAND&#45;&gt;DoSinglePointCalculation -->
<g id="edge1" class="edge">
<title>BAND&#45;&gt;DoSinglePointCalculation</title>
<path fill="none" stroke="#ff5733" stroke-width="2" d="M168.82,-287.67C168.75,-281.97 168.78,-275.56 168.92,-264.96"/>
<polygon fill="#ff5733" stroke="#ff5733" stroke-width="2" points="172.41,-265.33 169.05,-255.28 165.41,-265.23 172.41,-265.33"/>
</g>
<!-- bandd -->
<g id="node3" class="node">
<title>bandd</title>
<polygon fill="#add8e6" stroke="black" points="204.38,-180 134.38,-180 134.38,-144 204.38,-144 204.38,-180"/>
<text text-anchor="start" x="149.12" y="-161.7" font-family="Helvetica,Arial,sans-serif" font-weight="bold" font-size="14.00" fill="#000000">bandd</text>
<text text-anchor="start" x="142.38" y="-151.5" font-family="Helvetica,Arial,sans-serif" font-size="10.00" fill="#000000">(band/band/)</text>
</g>
<!-- DoSinglePointCalculation&#45;&gt;bandd -->
<g id="edge2" class="edge">
<title>DoSinglePointCalculation&#45;&gt;bandd</title>
<path fill="none" stroke="#ff5733" stroke-width="2" d="M167.75,-215.61C167.5,-209.88 167.58,-203.58 167.99,-193.03"/>
<polygon fill="#ff5733" stroke="#ff5733" stroke-width="2" points="171.47,-193.51 168.4,-183.37 164.48,-193.21 171.47,-193.51"/>
</g>
<!-- CalcGridBasedAIM -->
<g id="node4" class="node">
<title>CalcGridBasedAIM</title>
<polygon fill="#add8e6" stroke="black" points="154.75,-108 0,-108 0,-72 154.75,-72 154.75,-108"/>
<text text-anchor="start" x="8" y="-89.7" font-family="Helvetica,Arial,sans-serif" font-weight="bold" font-size="14.00" fill="#000000">1&#45; CalcGridBasedAIM</text>
<text text-anchor="start" x="50.38" y="-79.5" font-family="Helvetica,Arial,sans-serif" font-size="10.00" fill="#000000">(band/band/)</text>
</g>
<!-- bandd&#45;&gt;CalcGridBasedAIM -->
<g id="edge3" class="edge">
<title>bandd&#45;&gt;CalcGridBasedAIM</title>
<path fill="none" stroke="#ff5733" stroke-width="2" d="M145.26,-143.62C128.33,-130.7 117.77,-122.61 109.62,-116.23"/>
<polygon fill="#ff5733" stroke="#ff5733" stroke-width="2" points="112.02,-113.67 102,-110.2 107.67,-119.16 112.02,-113.67"/>
</g>
<!-- BandAIMCriticalPoints -->
<g id="node5" class="node">
<title>BandAIMCriticalPoints</title>
<polygon fill="#add8e6" stroke="black" points="350.38,-108 172.38,-108 172.38,-72 350.38,-72 350.38,-108"/>
<text text-anchor="start" x="180.38" y="-89.7" font-family="Helvetica,Arial,sans-serif" font-weight="bold" font-size="14.00" fill="#000000">2&#45; BandAIMCriticalPoints</text>
<text text-anchor="start" x="235.88" y="-79.5" font-family="Helvetica,Arial,sans-serif" font-size="10.00" fill="#000000">(band/anal/)</text>
</g>
<!-- bandd&#45;&gt;BandAIMCriticalPoints -->
<g id="edge4" class="edge">
<title>bandd&#45;&gt;BandAIMCriticalPoints</title>
<path fill="none" stroke="#ff5733" stroke-width="2" d="M191.71,-143.7C207.32,-130.93 217.52,-122.64 225.5,-116.33"/>
<polygon fill="#ff5733" stroke="#ff5733" stroke-width="2" points="227.5,-119.21 233.26,-110.32 223.21,-113.68 227.5,-119.21"/>
</g>
<!-- FindAIMCriticalPoints -->
<g id="node6" class="node">
<title>FindAIMCriticalPoints</title>
<polygon fill="#add8e6" stroke="black" points="339.88,-36 182.88,-36 182.88,0 339.88,0 339.88,-36"/>
<text text-anchor="start" x="190.88" y="-17.7" font-family="Helvetica,Arial,sans-serif" font-weight="bold" font-size="14.00" fill="#000000">FindAIMCriticalPoints</text>
<text text-anchor="start" x="235.5" y="-7.5" font-family="Helvetica,Arial,sans-serif" font-size="10.00" fill="#000000">(lib/dft/grid/)</text>
</g>
<!-- BandAIMCriticalPoints&#45;&gt;FindAIMCriticalPoints -->
<g id="edge5" class="edge">
<title>BandAIMCriticalPoints&#45;&gt;FindAIMCriticalPoints</title>
<path fill="none" stroke="#ff5733" stroke-width="2" d="M264.76,-71.83C266.54,-61.98 267.6,-55.06 267.95,-49.43"/>
<polygon fill="#ff5733" stroke="#ff5733" stroke-width="2" points="271.45,-49.26 267.38,-39.48 264.46,-49.66 271.45,-49.26"/>
</g>
</g>
</svg>
