<?xml version="1.0" encoding="UTF-8" standalone="no"?>
<!DOCTYPE svg PUBLIC "-//W3C//DTD SVG 1.1//EN"
 "http://www.w3.org/Graphics/SVG/1.1/DTD/svg11.dtd">
<!-- Generated by graphviz version 12.1.2 (20240928.0832)
 -->
<!-- Title: mygraph Pages: 1 -->
<svg width="167pt" height="334pt"
 viewBox="0.00 0.00 167.25 333.83" xmlns="http://www.w3.org/2000/svg" xmlns:xlink="http://www.w3.org/1999/xlink">
<g id="graph0" class="graph" transform="scale(1 1) rotate(0) translate(4 329.83)">
<title>mygraph</title>
<polygon fill="white" stroke="none" points="-4,4 -4,-329.83 163.25,-329.83 163.25,4 -4,4"/>
<!-- DFTB -->
<g id="node1" class="node">
<title>DFTB</title>
<ellipse fill="#f8f552" stroke="black" cx="79.62" cy="-306.92" rx="44.72" ry="18.92"/>
<text text-anchor="middle" x="79.62" y="-299.19" font-family="Helvetica,Arial,sans-serif" font-size="18.00" fill="#000000">DFTB</text>
</g>
<!-- NAOApplication1 -->
<g id="node2" class="node">
<title>NAOApplication1</title>
<polygon fill="#add8e6" stroke="black" points="143.5,-252 15.75,-252 15.75,-216 143.5,-216 143.5,-252"/>
<text text-anchor="start" x="23.75" y="-233.7" font-family="Helvetica,Arial,sans-serif" font-weight="bold" font-size="14.00" fill="#000000">NAOApplication1</text>
<text text-anchor="start" x="66.12" y="-223.5" font-family="Helvetica,Arial,sans-serif" font-size="10.00" fill="#000000">(utils/)</text>
</g>
<!-- DFTB&#45;&gt;NAOApplication1 -->
<g id="edge1" class="edge">
<title>DFTB&#45;&gt;NAOApplication1</title>
<path fill="none" stroke="#ff5733" stroke-width="2" d="M79.62,-287.69C79.62,-281.99 79.62,-275.58 79.62,-264.97"/>
<polygon fill="#ff5733" stroke="#ff5733" stroke-width="2" points="83.13,-265.29 79.63,-255.29 76.13,-265.29 83.13,-265.29"/>
</g>
<!-- DoAIM -->
<g id="node3" class="node">
<title>DoAIM</title>
<polygon fill="#add8e6" stroke="black" points="109.38,-180 49.88,-180 49.88,-144 109.38,-144 109.38,-180"/>
<text text-anchor="start" x="57.88" y="-161.7" font-family="Helvetica,Arial,sans-serif" font-weight="bold" font-size="14.00" fill="#000000">DoAIM</text>
<text text-anchor="start" x="66.12" y="-151.5" font-family="Helvetica,Arial,sans-serif" font-size="10.00" fill="#000000">(utils/)</text>
</g>
<!-- NAOApplication1&#45;&gt;DoAIM -->
<g id="edge2" class="edge">
<title>NAOApplication1&#45;&gt;DoAIM</title>
<path fill="none" stroke="#ff5733" stroke-width="2" d="M79.62,-215.74C79.62,-210.03 79.62,-203.73 79.62,-193.15"/>
<polygon fill="#ff5733" stroke="#ff5733" stroke-width="2" points="83.13,-193.44 79.63,-183.44 76.13,-193.44 83.13,-193.44"/>
</g>
<!-- NAOAIMCriticalPoints -->
<g id="node4" class="node">
<title>NAOAIMCriticalPoints</title>
<polygon fill="#add8e6" stroke="black" points="159.25,-108 0,-108 0,-72 159.25,-72 159.25,-108"/>
<text text-anchor="start" x="8" y="-89.7" font-family="Helvetica,Arial,sans-serif" font-weight="bold" font-size="14.00" fill="#000000">NAOAIMCriticalPoints</text>
<text text-anchor="start" x="12.12" y="-79.5" font-family="Helvetica,Arial,sans-serif" font-size="10.00" fill="#000000">(utils/nao/atoms_in_molecules)</text>
</g>
<!-- DoAIM&#45;&gt;NAOAIMCriticalPoints -->
<g id="edge3" class="edge">
<title>DoAIM&#45;&gt;NAOAIMCriticalPoints</title>
<path fill="none" stroke="#ff5733" stroke-width="2" d="M79.62,-143.53C79.62,-133.88 79.62,-126.88 79.62,-121.31"/>
<polygon fill="#ff5733" stroke="#ff5733" stroke-width="2" points="83.13,-121.43 79.63,-111.43 76.13,-121.43 83.13,-121.43"/>
</g>
<!-- FindAIMCriticalPoints -->
<g id="node5" class="node">
<title>FindAIMCriticalPoints</title>
<polygon fill="#add8e6" stroke="black" points="158.12,-36 1.12,-36 1.12,0 158.12,0 158.12,-36"/>
<text text-anchor="start" x="9.12" y="-17.7" font-family="Helvetica,Arial,sans-serif" font-weight="bold" font-size="14.00" fill="#000000">FindAIMCriticalPoints</text>
<text text-anchor="start" x="53.75" y="-7.5" font-family="Helvetica,Arial,sans-serif" font-size="10.00" fill="#000000">(lib/dft/grid/)</text>
</g>
<!-- NAOAIMCriticalPoints&#45;&gt;FindAIMCriticalPoints -->
<g id="edge4" class="edge">
<title>NAOAIMCriticalPoints&#45;&gt;FindAIMCriticalPoints</title>
<path fill="none" stroke="#ff5733" stroke-width="2" d="M79.62,-71.53C79.62,-61.88 79.62,-54.88 79.62,-49.31"/>
<polygon fill="#ff5733" stroke="#ff5733" stroke-width="2" points="83.13,-49.43 79.63,-39.43 76.13,-49.43 83.13,-49.43"/>
</g>
</g>
</svg>
