<?xml version="1.0" encoding="UTF-8" standalone="no"?>
<!DOCTYPE svg PUBLIC "-//W3C//DTD SVG 1.1//EN"
 "http://www.w3.org/Graphics/SVG/1.1/DTD/svg11.dtd">
<!-- Generated by graphviz version 12.2.1 (20241206.2353)
 -->
<!-- Title: scmqtaimgraph Pages: 1 -->
<svg width="828pt" height="716pt"
 viewBox="0.00 0.00 827.50 715.66" xmlns="http://www.w3.org/2000/svg" xmlns:xlink="http://www.w3.org/1999/xlink">
<g id="graph0" class="graph" transform="scale(1 1) rotate(0) translate(4 711.66)">
<title>scmqtaimgraph</title>
<polygon fill="white" stroke="none" points="-4,4 -4,-711.66 823.5,-711.66 823.5,4 -4,4"/>
<!-- AMS -->
<g id="node1" class="node">
<title>AMS</title>
<ellipse fill="#ff931e" stroke="black" cx="557" cy="-688.75" rx="38.89" ry="18.92"/>
<text text-anchor="middle" x="557" y="-681.02" font-family="Helvetica,Arial,sans-serif" font-size="18.00" fill="#000000">AMS</text>
</g>
<!-- ADF -->
<g id="node2" class="node">
<title>ADF</title>
<ellipse fill="#32cd32" stroke="black" cx="440" cy="-614.92" rx="36.77" ry="18.92"/>
<text text-anchor="middle" x="440" y="-607.19" font-family="Helvetica,Arial,sans-serif" font-size="18.00" fill="#000000">ADF</text>
</g>
<!-- AMS&#45;&gt;ADF -->
<g id="edge1" class="edge">
<title>AMS&#45;&gt;ADF</title>
<path fill="none" stroke="#32cd32" stroke-width="2" d="M533.6,-673.38C516.52,-662.89 493.08,-648.5 473.94,-636.75"/>
<polygon fill="#32cd32" stroke="#32cd32" stroke-width="2" points="475.89,-633.84 465.54,-631.59 472.23,-639.81 475.89,-633.84"/>
</g>
<!-- BAND -->
<g id="node3" class="node">
<title>BAND</title>
<ellipse fill="#7cb3e1" stroke="black" cx="697" cy="-614.92" rx="46.32" ry="18.92"/>
<text text-anchor="middle" x="697" y="-607.19" font-family="Helvetica,Arial,sans-serif" font-size="18.00" fill="#000000">BAND</text>
</g>
<!-- AMS&#45;&gt;BAND -->
<g id="edge2" class="edge">
<title>AMS&#45;&gt;BAND</title>
<path fill="none" stroke="#7cb3e1" stroke-width="2" d="M583,-674.4C603.98,-663.64 633.81,-648.34 657.69,-636.08"/>
<polygon fill="#7cb3e1" stroke="#7cb3e1" stroke-width="2" points="659.22,-639.23 666.52,-631.55 656.03,-633 659.22,-639.23"/>
</g>
<!-- DFTB -->
<g id="node4" class="node">
<title>DFTB</title>
<ellipse fill="#f8f552" stroke="black" cx="557" cy="-614.92" rx="44.72" ry="18.92"/>
<text text-anchor="middle" x="557" y="-607.19" font-family="Helvetica,Arial,sans-serif" font-size="18.00" fill="#000000">DFTB</text>
</g>
<!-- AMS&#45;&gt;DFTB -->
<g id="edge3" class="edge">
<title>AMS&#45;&gt;DFTB</title>
<path fill="none" stroke="#f8f552" stroke-width="2" d="M557,-669.62C557,-662.78 557,-654.79 557,-647.1"/>
<polygon fill="#f8f552" stroke="#f8f552" stroke-width="2" points="560.5,-647.31 557,-637.31 553.5,-647.31 560.5,-647.31"/>
</g>
<!-- DoSinglePoint -->
<g id="node5" class="node">
<title>DoSinglePoint</title>
<polygon fill="#add8e6" stroke="black" points="467.12,-560 358.88,-560 358.88,-524 467.12,-524 467.12,-560"/>
<text text-anchor="start" x="366.88" y="-541.7" font-family="Helvetica,Arial,sans-serif" font-weight="bold" font-size="14.00" fill="#000000">DoSinglePoint</text>
<text text-anchor="start" x="389.75" y="-531.5" font-family="Helvetica,Arial,sans-serif" font-size="10.00" fill="#000000">(adf/amol/)</text>
</g>
<!-- ADF&#45;&gt;DoSinglePoint -->
<g id="edge4" class="edge">
<title>ADF&#45;&gt;DoSinglePoint</title>
<path fill="none" stroke="#000000" stroke-width="2" d="M433.19,-596.02C430.44,-588.8 427.2,-580.29 424.12,-572.22"/>
<polygon fill="#000000" stroke="#000000" stroke-width="2" points="427.44,-571.08 420.61,-562.98 420.9,-573.58 427.44,-571.08"/>
</g>
<!-- DoSinglePointCalculation -->
<g id="node8" class="node">
<title>DoSinglePointCalculation</title>
<polygon fill="#add8e6" stroke="black" points="819.5,-560 638.5,-560 638.5,-524 819.5,-524 819.5,-560"/>
<text text-anchor="start" x="646.5" y="-541.7" font-family="Helvetica,Arial,sans-serif" font-weight="bold" font-size="14.00" fill="#000000">DoSinglePointCalculation</text>
<text text-anchor="start" x="714" y="-531.5" font-family="Helvetica,Arial,sans-serif" font-size="10.00" fill="#000000">(band/)</text>
</g>
<!-- BAND&#45;&gt;DoSinglePointCalculation -->
<g id="edge24" class="edge">
<title>BAND&#45;&gt;DoSinglePointCalculation</title>
<path fill="none" stroke="#000000" stroke-width="2" d="M705.07,-596.02C708.37,-588.72 712.27,-580.09 715.94,-571.93"/>
<polygon fill="#000000" stroke="#000000" stroke-width="2" points="719.09,-573.47 720.01,-562.91 712.71,-570.59 719.09,-573.47"/>
</g>
<!-- NAOApplication1 -->
<g id="node9" class="node">
<title>NAOApplication1</title>
<polygon fill="#add8e6" stroke="black" points="620.88,-560 493.12,-560 493.12,-524 620.88,-524 620.88,-560"/>
<text text-anchor="start" x="501.12" y="-541.7" font-family="Helvetica,Arial,sans-serif" font-weight="bold" font-size="14.00" fill="#000000">NAOApplication1</text>
<text text-anchor="start" x="543.5" y="-531.5" font-family="Helvetica,Arial,sans-serif" font-size="10.00" fill="#000000">(utils/)</text>
</g>
<!-- DFTB&#45;&gt;NAOApplication1 -->
<g id="edge32" class="edge">
<title>DFTB&#45;&gt;NAOApplication1</title>
<path fill="none" stroke="#000000" stroke-width="2" d="M557,-595.65C557,-588.88 557,-581.01 557,-573.44"/>
<polygon fill="#000000" stroke="#000000" stroke-width="2" points="560.5,-573.49 557,-563.49 553.5,-573.49 560.5,-573.49"/>
</g>
<!-- DoPostSCF -->
<g id="node6" class="node">
<title>DoPostSCF</title>
<polygon fill="#add8e6" stroke="black" points="458.12,-488 367.88,-488 367.88,-452 458.12,-452 458.12,-488"/>
<text text-anchor="start" x="375.88" y="-469.7" font-family="Helvetica,Arial,sans-serif" font-weight="bold" font-size="14.00" fill="#000000">DoPostSCF</text>
<text text-anchor="start" x="389.75" y="-459.5" font-family="Helvetica,Arial,sans-serif" font-size="10.00" fill="#000000">(adf/amol/)</text>
</g>
<!-- DoSinglePoint&#45;&gt;DoPostSCF -->
<g id="edge5" class="edge">
<title>DoSinglePoint&#45;&gt;DoPostSCF</title>
<path fill="none" stroke="#000000" stroke-width="1.5" d="M413,-523.7C413,-516.58 413,-508.13 413,-500.11"/>
<polygon fill="#000000" stroke="#000000" stroke-width="1.5" points="416.5,-500.37 413,-490.37 409.5,-500.37 416.5,-500.37"/>
</g>
<!-- Symaexcit -->
<g id="node7" class="node">
<title>Symaexcit</title>
<polygon fill="#add8e6" stroke="black" points="326.75,-488 243.25,-488 243.25,-452 326.75,-452 326.75,-488"/>
<text text-anchor="start" x="251.25" y="-469.7" font-family="Helvetica,Arial,sans-serif" font-weight="bold" font-size="14.00" fill="#000000">Symaexcit</text>
<text text-anchor="start" x="251.25" y="-459.5" font-family="Helvetica,Arial,sans-serif" font-size="10.00" fill="#000000">(adf/excitation/)</text>
</g>
<!-- DoSinglePoint&#45;&gt;Symaexcit -->
<g id="edge6" class="edge">
<title>DoSinglePoint&#45;&gt;Symaexcit</title>
<path fill="none" stroke="#000000" stroke-width="1.5" d="M381.03,-523.52C364.72,-514.6 344.67,-503.63 327.11,-494.03"/>
<polygon fill="#000000" stroke="#000000" stroke-width="1.5" points="329.01,-491.08 318.55,-489.35 325.65,-497.22 329.01,-491.08"/>
</g>
<!-- atoten -->
<g id="node18" class="node">
<title>atoten</title>
<polygon fill="#add8e6" stroke="black" points="372.62,-416 309.38,-416 309.38,-380 372.62,-380 372.62,-416"/>
<text text-anchor="start" x="320.75" y="-397.7" font-family="Helvetica,Arial,sans-serif" font-weight="bold" font-size="14.00" fill="#000000">atoten</text>
<text text-anchor="start" x="317.38" y="-387.5" font-family="Helvetica,Arial,sans-serif" font-size="10.00" fill="#000000">(adf/toten/)</text>
</g>
<!-- DoPostSCF&#45;&gt;atoten -->
<g id="edge7" class="edge">
<title>DoPostSCF&#45;&gt;atoten</title>
<path fill="none" stroke="#000000" stroke-width="1.5" d="M395.2,-451.7C386.81,-443.54 376.62,-433.63 367.36,-424.62"/>
<polygon fill="#000000" stroke="#000000" stroke-width="1.5" points="370.08,-422.39 360.47,-417.93 365.2,-427.41 370.08,-422.39"/>
</g>
<!-- adebye -->
<g id="node19" class="node">
<title>adebye</title>
<polygon fill="#add8e6" stroke="black" points="446.88,-334 379.12,-334 379.12,-298 446.88,-298 446.88,-334"/>
<text text-anchor="start" x="389.75" y="-315.7" font-family="Helvetica,Arial,sans-serif" font-weight="bold" font-size="14.00" fill="#000000">adebye</text>
<text text-anchor="start" x="387.12" y="-305.5" font-family="Helvetica,Arial,sans-serif" font-size="10.00" fill="#000000">(adf/debye/)</text>
</g>
<!-- DoPostSCF&#45;&gt;adebye -->
<g id="edge8" class="edge">
<title>DoPostSCF&#45;&gt;adebye</title>
<path fill="none" stroke="#000000" stroke-width="1.5" d="M413,-451.56C413,-425.91 413,-377.66 413,-346.45"/>
<polygon fill="#000000" stroke="#000000" stroke-width="1.5" points="416.5,-346.5 413,-336.5 409.5,-346.5 416.5,-346.5"/>
</g>
<!-- AIMResults -->
<g id="node23" class="node">
<title>AIMResults</title>
<polygon fill="#add8e6" stroke="black" points="538.12,-252 447.88,-252 447.88,-216 538.12,-216 538.12,-252"/>
<text text-anchor="start" x="455.88" y="-233.7" font-family="Helvetica,Arial,sans-serif" font-weight="bold" font-size="14.00" fill="#000000">AIMResults</text>
<text text-anchor="start" x="465.62" y="-223.5" font-family="Helvetica,Arial,sans-serif" font-size="10.00" fill="#000000">(adf/bader7/)</text>
</g>
<!-- DoPostSCF&#45;&gt;AIMResults -->
<g id="edge9" class="edge">
<title>DoPostSCF&#45;&gt;AIMResults</title>
<path fill="none" stroke="#000000" stroke-width="1.5" d="M419,-451.62C427.34,-427.48 442.86,-382.44 456,-344 465.28,-316.84 475.79,-285.85 483.23,-263.88"/>
<polygon fill="#000000" stroke="#000000" stroke-width="1.5" points="486.51,-265.12 486.4,-254.53 479.88,-262.88 486.51,-265.12"/>
</g>
<!-- Exitations -->
<g id="node24" class="node">
<title>Exitations</title>
<polygon fill="#add8e6" stroke="black" points="235.75,-416 152.25,-416 152.25,-380 235.75,-380 235.75,-416"/>
<text text-anchor="start" x="161.75" y="-397.7" font-family="Helvetica,Arial,sans-serif" font-weight="bold" font-size="14.00" fill="#000000">Exitations</text>
<text text-anchor="start" x="160.25" y="-387.5" font-family="Helvetica,Arial,sans-serif" font-size="10.00" fill="#000000">(adf/excitation/)</text>
</g>
<!-- Symaexcit&#45;&gt;Exitations -->
<g id="edge19" class="edge">
<title>Symaexcit&#45;&gt;Exitations</title>
<path fill="none" stroke="#000000" stroke-width="1.2" d="M262.51,-451.7C251.46,-443.2 237.96,-432.81 225.87,-423.51"/>
<polygon fill="#000000" stroke="#000000" stroke-width="1.2" points="228.05,-420.78 217.99,-417.45 223.78,-426.33 228.05,-420.78"/>
</g>
<!-- bandd -->
<g id="node10" class="node">
<title>bandd</title>
<polygon fill="#add8e6" stroke="black" points="764,-334 694,-334 694,-298 764,-298 764,-334"/>
<text text-anchor="start" x="708.75" y="-315.7" font-family="Helvetica,Arial,sans-serif" font-weight="bold" font-size="14.00" fill="#000000">bandd</text>
<text text-anchor="start" x="702" y="-305.5" font-family="Helvetica,Arial,sans-serif" font-size="10.00" fill="#000000">(band/band/)</text>
</g>
<!-- DoSinglePointCalculation&#45;&gt;bandd -->
<g id="edge25" class="edge">
<title>DoSinglePointCalculation&#45;&gt;bandd</title>
<path fill="none" stroke="#000000" stroke-width="2" d="M729,-523.8C729,-485.93 729,-394.95 729,-347.29"/>
<polygon fill="#000000" stroke="#000000" stroke-width="2" points="732.5,-347.29 729,-337.29 725.5,-347.29 732.5,-347.29"/>
</g>
<!-- DoAIM -->
<g id="node13" class="node">
<title>DoAIM</title>
<polygon fill="#add8e6" stroke="black" points="595.75,-488 536.25,-488 536.25,-452 595.75,-452 595.75,-488"/>
<text text-anchor="start" x="544.25" y="-469.7" font-family="Helvetica,Arial,sans-serif" font-weight="bold" font-size="14.00" fill="#000000">DoAIM</text>
<text text-anchor="start" x="552.5" y="-459.5" font-family="Helvetica,Arial,sans-serif" font-size="10.00" fill="#000000">(utils/)</text>
</g>
<!-- NAOApplication1&#45;&gt;DoAIM -->
<g id="edge33" class="edge">
<title>NAOApplication1&#45;&gt;DoAIM</title>
<path fill="none" stroke="#000000" stroke-width="2" d="M559.22,-523.7C560.11,-516.83 561.15,-508.73 562.15,-500.97"/>
<polygon fill="#000000" stroke="#000000" stroke-width="2" points="565.61,-501.47 563.41,-491.11 558.67,-500.58 565.61,-501.47"/>
</g>
<!-- CalcGridBasedAIM -->
<g id="node11" class="node">
<title>CalcGridBasedAIM</title>
<polygon fill="#add8e6" stroke="black" points="633.5,-108 494.5,-108 494.5,-72 633.5,-72 633.5,-108"/>
<text text-anchor="start" x="502.5" y="-89.7" font-family="Helvetica,Arial,sans-serif" font-weight="bold" font-size="14.00" fill="#000000">CalcGridBasedAIM</text>
<text text-anchor="start" x="537" y="-79.5" font-family="Helvetica,Arial,sans-serif" font-size="10.00" fill="#000000">(band/band/)</text>
</g>
<!-- bandd&#45;&gt;CalcGridBasedAIM -->
<g id="edge26" class="edge">
<title>bandd&#45;&gt;CalcGridBasedAIM</title>
<path fill="none" stroke="#000000" stroke-width="1.2" d="M744.04,-297.52C759.58,-277.2 779.67,-243 765,-216 737.06,-164.58 678.01,-131.69 631.1,-112.62"/>
<polygon fill="#000000" stroke="#000000" stroke-width="1.2" points="632.66,-109.47 622.07,-109.08 630.1,-115.99 632.66,-109.47"/>
</g>
<!-- BandAIMCriticalPoints -->
<g id="node12" class="node">
<title>BandAIMCriticalPoints</title>
<polygon fill="#add8e6" stroke="black" points="756.12,-252 593.88,-252 593.88,-216 756.12,-216 756.12,-252"/>
<text text-anchor="start" x="601.88" y="-233.7" font-family="Helvetica,Arial,sans-serif" font-weight="bold" font-size="14.00" fill="#000000">BandAIMCriticalPoints</text>
<text text-anchor="start" x="649.5" y="-223.5" font-family="Helvetica,Arial,sans-serif" font-size="10.00" fill="#000000">(band/anal/)</text>
</g>
<!-- bandd&#45;&gt;BandAIMCriticalPoints -->
<g id="edge27" class="edge">
<title>bandd&#45;&gt;BandAIMCriticalPoints</title>
<path fill="none" stroke="#000000" stroke-width="1.2" d="M717.28,-297.64C710.28,-287.26 701.23,-273.85 693.29,-262.1"/>
<polygon fill="#000000" stroke="#000000" stroke-width="1.2" points="696.21,-260.16 687.71,-253.83 690.4,-264.08 696.21,-260.16"/>
</g>
<!-- AIMGridAtomMapper -->
<g id="node16" class="node">
<title>AIMGridAtomMapper</title>
<polygon fill="#add8e6" stroke="black" points="323,-36 169,-36 169,0 323,0 323,-36"/>
<text text-anchor="start" x="177" y="-17.7" font-family="Helvetica,Arial,sans-serif" font-weight="bold" font-size="14.00" fill="#000000">AIMGridAtomMapper</text>
<text text-anchor="start" x="220.12" y="-7.5" font-family="Helvetica,Arial,sans-serif" font-size="10.00" fill="#000000">(lib/dft/grid/)</text>
</g>
<!-- CalcGridBasedAIM&#45;&gt;AIMGridAtomMapper -->
<g id="edge29" class="edge">
<title>CalcGridBasedAIM&#45;&gt;AIMGridAtomMapper</title>
<path fill="none" stroke="#0000ff" stroke-width="2" d="M494.21,-73.64C447.69,-63.4 386.11,-49.84 335.93,-38.8"/>
<polygon fill="#0000ff" stroke="#0000ff" stroke-width="2" points="336.9,-35.43 326.39,-36.69 335.4,-42.26 336.9,-35.43"/>
</g>
<!-- FindAIMCriticalPoints -->
<g id="node15" class="node">
<title>FindAIMCriticalPoints</title>
<polygon fill="#add8e6" stroke="black" points="644.5,-180 487.5,-180 487.5,-144 644.5,-144 644.5,-180"/>
<text text-anchor="start" x="495.5" y="-161.7" font-family="Helvetica,Arial,sans-serif" font-weight="bold" font-size="14.00" fill="#000000">FindAIMCriticalPoints</text>
<text text-anchor="start" x="540.12" y="-151.5" font-family="Helvetica,Arial,sans-serif" font-size="10.00" fill="#000000">(lib/dft/grid/)</text>
</g>
<!-- BandAIMCriticalPoints&#45;&gt;FindAIMCriticalPoints -->
<g id="edge28" class="edge">
<title>BandAIMCriticalPoints&#45;&gt;FindAIMCriticalPoints</title>
<path fill="none" stroke="#0000ff" stroke-width="2" d="M647.78,-215.52C634.41,-206.93 618.09,-196.46 603.56,-187.12"/>
<polygon fill="#0000ff" stroke="#0000ff" stroke-width="2" points="605.73,-184.36 595.42,-181.9 601.95,-190.25 605.73,-184.36"/>
</g>
<!-- NAOAIMCriticalPoints -->
<g id="node14" class="node">
<title>NAOAIMCriticalPoints</title>
<polygon fill="#add8e6" stroke="black" points="662.62,-416 503.38,-416 503.38,-380 662.62,-380 662.62,-416"/>
<text text-anchor="start" x="511.38" y="-397.7" font-family="Helvetica,Arial,sans-serif" font-weight="bold" font-size="14.00" fill="#000000">NAOAIMCriticalPoints</text>
<text text-anchor="start" x="515.5" y="-387.5" font-family="Helvetica,Arial,sans-serif" font-size="10.00" fill="#000000">(utils/nao/atoms_in_molecules)</text>
</g>
<!-- DoAIM&#45;&gt;NAOAIMCriticalPoints -->
<g id="edge34" class="edge">
<title>DoAIM&#45;&gt;NAOAIMCriticalPoints</title>
<path fill="none" stroke="#000000" stroke-width="2" d="M570.2,-451.7C571.89,-444.75 573.89,-436.53 575.79,-428.68"/>
<polygon fill="#000000" stroke="#000000" stroke-width="2" points="579.17,-429.59 578.13,-419.05 572.37,-427.94 579.17,-429.59"/>
</g>
<!-- NAOAIMCriticalPoints&#45;&gt;FindAIMCriticalPoints -->
<g id="edge35" class="edge">
<title>NAOAIMCriticalPoints&#45;&gt;FindAIMCriticalPoints</title>
<path fill="none" stroke="#0000ff" stroke-width="2" d="M581.75,-379.79C578.88,-340.32 571.8,-242.86 568.19,-193.17"/>
<polygon fill="#0000ff" stroke="#0000ff" stroke-width="2" points="571.69,-192.97 567.47,-183.25 564.71,-193.48 571.69,-192.97"/>
</g>
<!-- toten -->
<g id="node17" class="node">
<title>toten</title>
<polygon fill="#add8e6" stroke="black" points="360.62,-334 297.38,-334 297.38,-298 360.62,-298 360.62,-334"/>
<text text-anchor="start" x="312.5" y="-315.7" font-family="Helvetica,Arial,sans-serif" font-weight="bold" font-size="14.00" fill="#000000">toten</text>
<text text-anchor="start" x="305.38" y="-305.5" font-family="Helvetica,Arial,sans-serif" font-size="10.00" fill="#000000">(adf/toten/)</text>
</g>
<!-- ADFAIMCriticalPoints -->
<g id="node20" class="node">
<title>ADFAIMCriticalPoints</title>
<polygon fill="#add8e6" stroke="black" points="430.12,-252 273.88,-252 273.88,-216 430.12,-216 430.12,-252"/>
<text text-anchor="start" x="281.88" y="-233.7" font-family="Helvetica,Arial,sans-serif" font-weight="bold" font-size="14.00" fill="#000000">ADFAIMCriticalPoints</text>
<text text-anchor="start" x="324.62" y="-223.5" font-family="Helvetica,Arial,sans-serif" font-size="10.00" fill="#000000">(adf/bader7/)</text>
</g>
<!-- toten&#45;&gt;ADFAIMCriticalPoints -->
<g id="edge11" class="edge">
<title>toten&#45;&gt;ADFAIMCriticalPoints</title>
<path fill="none" stroke="#000000" stroke-width="1.2" d="M333.99,-297.64C336.85,-287.68 340.52,-274.93 343.8,-263.54"/>
<polygon fill="#000000" stroke="#000000" stroke-width="1.2" points="347.12,-264.65 346.52,-254.07 340.39,-262.71 347.12,-264.65"/>
</g>
<!-- UpdateAIMTerms -->
<g id="node21" class="node">
<title>UpdateAIMTerms</title>
<polygon fill="#add8e6" stroke="black" points="310.25,-180 181.75,-180 181.75,-144 310.25,-144 310.25,-180"/>
<text text-anchor="start" x="189.75" y="-161.7" font-family="Helvetica,Arial,sans-serif" font-weight="bold" font-size="14.00" fill="#000000">UpdateAIMTerms</text>
<text text-anchor="start" x="218.62" y="-151.5" font-family="Helvetica,Arial,sans-serif" font-size="10.00" fill="#000000">(adf/bader7/)</text>
</g>
<!-- toten&#45;&gt;UpdateAIMTerms -->
<g id="edge12" class="edge">
<title>toten&#45;&gt;UpdateAIMTerms</title>
<path fill="none" stroke="#000000" stroke-width="1.2" d="M305.47,-297.68C291.61,-286.23 274.9,-270.04 265,-252 254.87,-233.54 250.14,-210.19 247.93,-192.03"/>
<polygon fill="#000000" stroke="#000000" stroke-width="1.2" points="251.43,-191.83 246.95,-182.23 244.46,-192.53 251.43,-191.83"/>
</g>
<!-- AIMdipole -->
<g id="node22" class="node">
<title>AIMdipole</title>
<polygon fill="#add8e6" stroke="black" points="217.62,-252 136.38,-252 136.38,-216 217.62,-216 217.62,-252"/>
<text text-anchor="start" x="144.38" y="-233.7" font-family="Helvetica,Arial,sans-serif" font-weight="bold" font-size="14.00" fill="#000000">AIMdipole</text>
<text text-anchor="start" x="149.62" y="-223.5" font-family="Helvetica,Arial,sans-serif" font-size="10.00" fill="#000000">(adf/bader7/)</text>
</g>
<!-- toten&#45;&gt;AIMdipole -->
<g id="edge13" class="edge">
<title>toten&#45;&gt;AIMdipole</title>
<path fill="none" stroke="#000000" stroke-width="1.2" d="M297.14,-298.23C274.92,-286.54 245,-270.79 220.57,-257.93"/>
<polygon fill="#000000" stroke="#000000" stroke-width="1.2" points="222.22,-254.85 211.74,-253.29 218.96,-261.04 222.22,-254.85"/>
</g>
<!-- toten&#45;&gt;AIMResults -->
<g id="edge15" class="edge">
<title>toten&#45;&gt;AIMResults</title>
<path fill="none" stroke="#800000" stroke-width="1.2" d="M363.61,-291.61C365.75,-290.35 367.89,-289.14 370,-288 394.87,-274.59 423.83,-261.97 447.41,-252.41"/>
<polygon fill="#800000" stroke="#800000" stroke-width="1.2" points="361.94,-288.53 355.27,-296.77 365.62,-294.49 361.94,-288.53"/>
</g>
<!-- atoten&#45;&gt;toten -->
<g id="edge10" class="edge">
<title>atoten&#45;&gt;toten</title>
<path fill="none" stroke="#000000" stroke-width="1.5" d="M338.4,-379.64C336.93,-369.89 335.07,-357.47 333.39,-346.26"/>
<polygon fill="#000000" stroke="#000000" stroke-width="1.5" points="336.88,-345.94 331.94,-336.57 329.96,-346.98 336.88,-345.94"/>
</g>
<!-- adebye&#45;&gt;AIMResults -->
<g id="edge14" class="edge">
<title>adebye&#45;&gt;AIMResults</title>
<path fill="none" stroke="#800000" stroke-width="1.2" d="M438.37,-289.63C450.53,-277.47 464.78,-263.22 475.68,-252.32"/>
<polygon fill="#800000" stroke="#800000" stroke-width="1.2" points="436.24,-286.81 431.64,-296.36 441.19,-291.76 436.24,-286.81"/>
</g>
<!-- ADFAIMCriticalPoints&#45;&gt;FindAIMCriticalPoints -->
<g id="edge16" class="edge">
<title>ADFAIMCriticalPoints&#45;&gt;FindAIMCriticalPoints</title>
<path fill="none" stroke="#0000ff" stroke-width="1.2" d="M405.45,-215.52C434.67,-205.96 471.06,-194.05 501.81,-184"/>
<polygon fill="#0000ff" stroke="#0000ff" stroke-width="1.2" points="502.72,-187.38 511.14,-180.95 500.54,-180.73 502.72,-187.38"/>
</g>
<!-- ADFAIMCriticalPoints&#45;&gt;AIMdipole -->
<g id="edge17" class="edge">
<title>ADFAIMCriticalPoints&#45;&gt;AIMdipole</title>
<path fill="none" stroke="#800000" stroke-width="1.2" d="M261.79,-234C247.2,-234 232.61,-234 218.02,-234"/>
<polygon fill="#800000" stroke="#800000" stroke-width="1.2" points="261.68,-237.5 271.68,-234 261.68,-230.5 261.68,-237.5"/>
</g>
<!-- UpdateAIMTerms&#45;&gt;AIMGridAtomMapper -->
<g id="edge30" class="edge">
<title>UpdateAIMTerms&#45;&gt;AIMGridAtomMapper</title>
<path fill="none" stroke="#0000ff" stroke-width="2" d="M246,-143.59C246,-120.04 246,-77.69 246,-48.97"/>
<polygon fill="#0000ff" stroke="#0000ff" stroke-width="2" points="249.5,-49.14 246,-39.14 242.5,-49.14 249.5,-49.14"/>
</g>
<!-- UpdateAIMTerms&#45;&gt;AIMdipole -->
<g id="edge18" class="edge">
<title>UpdateAIMTerms&#45;&gt;AIMdipole</title>
<path fill="none" stroke="#800000" stroke-width="1.2" d="M220.94,-188.42C212.01,-197.48 202.16,-207.47 194.06,-215.7"/>
<polygon fill="#800000" stroke="#800000" stroke-width="1.2" points="223.34,-190.98 227.87,-181.4 218.35,-186.06 223.34,-190.98"/>
</g>
<!-- AllocDavison -->
<g id="node25" class="node">
<title>AllocDavison</title>
<polygon fill="#add8e6" stroke="black" points="207.62,-344 90.38,-344 90.38,-288 207.62,-288 207.62,-344"/>
<text text-anchor="start" x="106.25" y="-327.7" font-family="Helvetica,Arial,sans-serif" font-weight="bold" font-size="14.00" fill="#000000">AllocDavison</text>
<text text-anchor="start" x="141.88" y="-317.5" font-family="Helvetica,Arial,sans-serif" font-size="10.00" fill="#000000">[or]</text>
<text text-anchor="start" x="98.38" y="-303.7" font-family="Helvetica,Arial,sans-serif" font-weight="bold" font-size="14.00" fill="#000000">AllocDavisonso</text>
<text text-anchor="start" x="115.25" y="-293.5" font-family="Helvetica,Arial,sans-serif" font-size="10.00" fill="#000000">(adf/excitation/)</text>
</g>
<!-- Exitations&#45;&gt;AllocDavison -->
<g id="edge20" class="edge">
<title>Exitations&#45;&gt;AllocDavison</title>
<path fill="none" stroke="#000000" stroke-width="1.2" d="M184.24,-379.64C180.07,-372.24 175.05,-363.3 170.11,-354.52"/>
<polygon fill="#000000" stroke="#000000" stroke-width="1.2" points="173.25,-352.97 165.3,-345.97 167.15,-356.41 173.25,-352.97"/>
</g>
<!-- MajorTransition -->
<g id="node26" class="node">
<title>MajorTransition</title>
<polygon fill="#add8e6" stroke="black" points="118,-252 0,-252 0,-216 118,-216 118,-252"/>
<text text-anchor="start" x="8" y="-233.7" font-family="Helvetica,Arial,sans-serif" font-weight="bold" font-size="14.00" fill="#000000">MajorTransition</text>
<text text-anchor="start" x="25.25" y="-223.5" font-family="Helvetica,Arial,sans-serif" font-size="10.00" fill="#000000">(adf/excitation/)</text>
</g>
<!-- AllocDavison&#45;&gt;MajorTransition -->
<g id="edge21" class="edge">
<title>AllocDavison&#45;&gt;MajorTransition</title>
<path fill="none" stroke="#000000" stroke-width="1.2" d="M118.28,-287.69C108.22,-278.75 97.1,-268.87 87.23,-260.1"/>
<polygon fill="#000000" stroke="#000000" stroke-width="1.2" points="89.75,-257.65 79.95,-253.62 85.1,-262.88 89.75,-257.65"/>
</g>
<!-- AnalizeAOTrans -->
<g id="node27" class="node">
<title>AnalizeAOTrans</title>
<polygon fill="#add8e6" stroke="black" points="141.5,-180 20.5,-180 20.5,-144 141.5,-144 141.5,-180"/>
<text text-anchor="start" x="28.5" y="-161.7" font-family="Helvetica,Arial,sans-serif" font-weight="bold" font-size="14.00" fill="#000000">AnalizeAOTrans</text>
<text text-anchor="start" x="47.25" y="-151.5" font-family="Helvetica,Arial,sans-serif" font-size="10.00" fill="#000000">(adf/excitation/)</text>
</g>
<!-- MajorTransition&#45;&gt;AnalizeAOTrans -->
<g id="edge22" class="edge">
<title>MajorTransition&#45;&gt;AnalizeAOTrans</title>
<path fill="none" stroke="#000000" stroke-width="1.2" d="M64.44,-215.7C66.76,-208.32 69.52,-199.52 72.12,-191.25"/>
<polygon fill="#000000" stroke="#000000" stroke-width="1.2" points="75.42,-192.43 75.08,-181.84 68.74,-190.33 75.42,-192.43"/>
</g>
<!-- AIMChargeTransfer -->
<g id="node28" class="node">
<title>AIMChargeTransfer</title>
<polygon fill="#add8e6" stroke="black" points="196,-108 54,-108 54,-72 196,-72 196,-108"/>
<text text-anchor="start" x="62" y="-89.7" font-family="Helvetica,Arial,sans-serif" font-weight="bold" font-size="14.00" fill="#000000">AIMChargeTransfer</text>
<text text-anchor="start" x="91.25" y="-79.5" font-family="Helvetica,Arial,sans-serif" font-size="10.00" fill="#000000">(adf/excitation/)</text>
</g>
<!-- AnalizeAOTrans&#45;&gt;AIMChargeTransfer -->
<g id="edge23" class="edge">
<title>AnalizeAOTrans&#45;&gt;AIMChargeTransfer</title>
<path fill="none" stroke="#000000" stroke-width="1.2" d="M91.88,-143.7C96.78,-135.9 102.68,-126.51 108.14,-117.83"/>
<polygon fill="#000000" stroke="#000000" stroke-width="1.2" points="110.92,-119.97 113.28,-109.64 105,-116.25 110.92,-119.97"/>
</g>
<!-- AIMChargeTransfer&#45;&gt;AIMGridAtomMapper -->
<g id="edge31" class="edge">
<title>AIMChargeTransfer&#45;&gt;AIMGridAtomMapper</title>
<path fill="none" stroke="#0000ff" stroke-width="2" d="M155.22,-71.52C170.35,-62.76 188.88,-52.04 205.25,-42.58"/>
<polygon fill="#0000ff" stroke="#0000ff" stroke-width="2" points="206.64,-45.81 213.54,-37.78 203.14,-39.75 206.64,-45.81"/>
</g>
</g>
</svg>
