<?xml version="1.0" encoding="UTF-8" standalone="no"?>
<!DOCTYPE svg PUBLIC "-//W3C//DTD SVG 1.1//EN"
 "http://www.w3.org/Graphics/SVG/1.1/DTD/svg11.dtd">
<!-- Generated by graphviz version 12.1.1 (20240910.0053)
 -->
<!-- Title: prof Pages: 1 -->
<svg width="2037pt" height="620pt"
 viewBox="0.00 0.00 2037.18 620.00" xmlns="http://www.w3.org/2000/svg" xmlns:xlink="http://www.w3.org/1999/xlink">
<g id="graph0" class="graph" transform="scale(1 1) rotate(0) translate(4 616)">
<title>prof</title>
<polygon fill="white" stroke="none" points="-4,4 -4,-616 2033.18,-616 2033.18,4 -4,4"/>
<!-- start -->
<g id="node1" class="node">
<title>start</title>
<ellipse fill="lightgrey" stroke="black" cx="1471.28" cy="-594" rx="27.46" ry="18"/>
<text text-anchor="middle" x="1471.28" y="-588.2" font-family="Helvetica,Arial,sans-serif" font-size="14.00">start</text>
</g>
<!-- main -->
<g id="node2" class="node">
<title>main</title>
<ellipse fill="#ccd1ff" stroke="#ccd1ff" cx="980.28" cy="-450" rx="29.9" ry="18"/>
<text text-anchor="middle" x="980.28" y="-444.2" font-family="Helvetica,Arial,sans-serif" font-size="14.00">main</text>
</g>
<!-- start&#45;&gt;main -->
<g id="edge1" class="edge">
<title>start&#45;&gt;main</title>
<path fill="none" stroke="#fe0300" d="M1446.26,-585.76C1365.89,-562.52 1113.96,-489.66 1017.96,-461.89"/>
<polygon fill="#fe0300" stroke="#fe0300" points="1019.08,-458.58 1008.5,-459.16 1017.13,-465.3 1019.08,-458.58"/>
</g>
<!-- on_exit -->
<g id="node3" class="node">
<title>on_exit</title>
<ellipse fill="#ccd1ff" stroke="#ccd1ff" cx="1491.28" cy="-522" rx="38.67" ry="18"/>
<text text-anchor="middle" x="1491.28" y="-516.2" font-family="Helvetica,Arial,sans-serif" font-size="14.00">on_exit</text>
</g>
<!-- start&#45;&gt;on_exit -->
<g id="edge2" class="edge">
<title>start&#45;&gt;on_exit</title>
<path fill="none" stroke="#3542b2" d="M1476.13,-576.05C1478.26,-568.6 1480.82,-559.64 1483.22,-551.22"/>
<polygon fill="#3542b2" stroke="#3542b2" points="1486.55,-552.31 1485.93,-541.73 1479.82,-550.38 1486.55,-552.31"/>
</g>
<!-- sort -->
<g id="node4" class="node">
<title>sort</title>
<ellipse fill="#80ffb8" stroke="#80ffb8" cx="341.28" cy="-378" rx="27" ry="18"/>
<text text-anchor="middle" x="341.28" y="-372.2" font-family="Helvetica,Arial,sans-serif" font-size="14.00">sort</text>
</g>
<!-- main&#45;&gt;sort -->
<g id="edge3" class="edge">
<title>main&#45;&gt;sort</title>
<path fill="none" stroke="#22d532" d="M950.21,-449.53C861.71,-450.42 595.1,-448.24 382.28,-396 379.3,-395.27 376.25,-394.35 373.23,-393.32"/>
<polygon fill="#22d532" stroke="#22d532" points="374.58,-390.09 363.99,-389.8 372.09,-396.63 374.58,-390.09"/>
</g>
<!-- merge -->
<g id="node5" class="node">
<title>merge</title>
<ellipse fill="#bdd6ff" stroke="#bdd6ff" cx="460.28" cy="-378" rx="35.75" ry="18"/>
<text text-anchor="middle" x="460.28" y="-372.2" font-family="Helvetica,Arial,sans-serif" font-size="14.00">merge</text>
</g>
<!-- main&#45;&gt;merge -->
<g id="edge4" class="edge">
<title>main&#45;&gt;merge</title>
<path fill="none" stroke="#2eb4c2" d="M951.21,-445.09C865.02,-433.48 610.4,-399.21 505.86,-385.14"/>
<polygon fill="#2eb4c2" stroke="#2eb4c2" points="506.34,-381.67 495.97,-383.8 505.41,-388.61 506.34,-381.67"/>
</g>
<!-- term -->
<g id="node6" class="node">
<title>term</title>
<ellipse fill="#ccd1ff" stroke="#ccd1ff" cx="834.28" cy="-378" rx="28.43" ry="18"/>
<text text-anchor="middle" x="834.28" y="-372.2" font-family="Helvetica,Arial,sans-serif" font-size="14.00">term</text>
</g>
<!-- main&#45;&gt;term -->
<g id="edge5" class="edge">
<title>main&#45;&gt;term</title>
<path fill="none" stroke="#3544b3" d="M957.47,-438.06C933.12,-426.39 894.31,-407.78 866.77,-394.58"/>
<polygon fill="#3544b3" stroke="#3544b3" points="868.35,-391.45 857.82,-390.29 865.33,-397.77 868.35,-391.45"/>
</g>
<!-- signal -->
<g id="node7" class="node">
<title>signal</title>
<ellipse fill="#cad1ff" stroke="#cad1ff" cx="1156.28" cy="-306" rx="33.31" ry="18"/>
<text text-anchor="middle" x="1156.28" y="-300.2" font-family="Helvetica,Arial,sans-serif" font-size="14.00">signal</text>
</g>
<!-- main&#45;&gt;signal -->
<g id="edge6" class="edge">
<title>main&#45;&gt;signal</title>
<path fill="none" stroke="#3542b2" d="M1010.53,-448.15C1077.82,-445.54 1236.55,-435.29 1269.28,-396 1279.53,-383.71 1277.87,-373.5 1269.28,-360 1253.79,-335.63 1223.81,-322.27 1198.61,-315.06"/>
<polygon fill="#3542b2" stroke="#3542b2" points="1199.83,-311.76 1189.27,-312.63 1198.07,-318.53 1199.83,-311.76"/>
</g>
<!-- sbrk -->
<g id="node8" class="node">
<title>sbrk</title>
<ellipse fill="#cad1ff" stroke="#cad1ff" cx="1651.28" cy="-90" rx="27" ry="18"/>
<text text-anchor="middle" x="1651.28" y="-84.2" font-family="Helvetica,Arial,sans-serif" font-size="14.00">sbrk</text>
</g>
<!-- main&#45;&gt;sbrk -->
<g id="edge7" class="edge">
<title>main&#45;&gt;sbrk</title>
<path fill="none" stroke="#3542b2" d="M1010.43,-448.32C1125.27,-445.48 1531.06,-432.87 1574.28,-396 1656.69,-325.7 1657.63,-181.26 1653.87,-119.75"/>
<polygon fill="#3542b2" stroke="#3542b2" points="1657.36,-119.51 1653.16,-109.78 1650.38,-120.01 1657.36,-119.51"/>
</g>
<!-- unlink -->
<g id="node9" class="node">
<title>unlink</title>
<ellipse fill="#c5d2ff" stroke="#c5d2ff" cx="829.28" cy="-306" rx="33.31" ry="18"/>
<text text-anchor="middle" x="829.28" y="-300.2" font-family="Helvetica,Arial,sans-serif" font-size="14.00">unlink</text>
</g>
<!-- main&#45;&gt;unlink -->
<g id="edge8" class="edge">
<title>main&#45;&gt;unlink</title>
<path fill="none" stroke="#3542b2" d="M950.37,-447.36C889.25,-443.31 753.39,-430.55 725.28,-396 715.19,-383.59 716.92,-373.64 725.28,-360 732.94,-347.51 765.12,-332.22 791.68,-321.28"/>
<polygon fill="#3542b2" stroke="#3542b2" points="792.89,-324.57 800.86,-317.59 790.27,-318.08 792.89,-324.57"/>
</g>
<!-- newfile -->
<g id="node10" class="node">
<title>newfile</title>
<ellipse fill="#ccd1ff" stroke="#ccd1ff" cx="702.28" cy="-306" rx="37.7" ry="18"/>
<text text-anchor="middle" x="702.28" y="-300.2" font-family="Helvetica,Arial,sans-serif" font-size="14.00">newfile</text>
</g>
<!-- main&#45;&gt;newfile -->
<g id="edge9" class="edge">
<title>main&#45;&gt;newfile</title>
<path fill="none" stroke="#3542b2" d="M950.42,-447.3C887.87,-443.1 746.2,-429.98 714.28,-396 699.35,-380.09 697.15,-354.98 698.24,-335.48"/>
<polygon fill="#3542b2" stroke="#3542b2" points="701.71,-335.98 699.11,-325.7 694.73,-335.35 701.71,-335.98"/>
</g>
<!-- fclose -->
<g id="node11" class="node">
<title>fclose</title>
<ellipse fill="#ccd1ff" stroke="#ccd1ff" cx="351.28" cy="-306" rx="33.31" ry="18"/>
<text text-anchor="middle" x="351.28" y="-300.2" font-family="Helvetica,Arial,sans-serif" font-size="14.00">fclose</text>
</g>
<!-- main&#45;&gt;fclose -->
<g id="edge10" class="edge">
<title>main&#45;&gt;fclose</title>
<path fill="none" stroke="#3542b2" d="M949.97,-449.4C846.36,-450.27 507.6,-448.91 415.28,-396 390.96,-382.06 373.44,-354.69 362.94,-333.96"/>
<polygon fill="#3542b2" stroke="#3542b2" points="366.22,-332.71 358.75,-325.2 359.91,-335.73 366.22,-332.71"/>
</g>
<!-- close -->
<g id="node12" class="node">
<title>close</title>
<ellipse fill="#ccd1ff" stroke="#ccd1ff" cx="611.28" cy="-234" rx="30.87" ry="18"/>
<text text-anchor="middle" x="611.28" y="-228.2" font-family="Helvetica,Arial,sans-serif" font-size="14.00">close</text>
</g>
<!-- main&#45;&gt;close -->
<g id="edge11" class="edge">
<title>main&#45;&gt;close</title>
<path fill="none" stroke="#3542b2" d="M950.72,-446.68C886.35,-441.13 736.03,-425.32 695.28,-396 650.37,-363.68 627.56,-300 617.66,-263.16"/>
<polygon fill="#3542b2" stroke="#3542b2" points="621.1,-262.51 615.25,-253.68 614.32,-264.23 621.1,-262.51"/>
</g>
<!-- brk -->
<g id="node13" class="node">
<title>brk</title>
<ellipse fill="#ccd1ff" stroke="#ccd1ff" cx="761.28" cy="-378" rx="27" ry="18"/>
<text text-anchor="middle" x="761.28" y="-372.2" font-family="Helvetica,Arial,sans-serif" font-size="14.00">brk</text>
</g>
<!-- main&#45;&gt;brk -->
<g id="edge12" class="edge">
<title>main&#45;&gt;brk</title>
<path fill="none" stroke="#3542b2" d="M952.55,-442.44C916.31,-433.53 851.12,-416.36 797.28,-396 795.75,-395.42 794.19,-394.8 792.62,-394.15"/>
<polygon fill="#3542b2" stroke="#3542b2" points="794.31,-391.07 783.75,-390.25 791.49,-397.48 794.31,-391.07"/>
</g>
<!-- setbuf -->
<g id="node14" class="node">
<title>setbuf</title>
<ellipse fill="#ccd1ff" stroke="#ccd1ff" cx="34.28" cy="-306" rx="34.28" ry="18"/>
<text text-anchor="middle" x="34.28" y="-300.2" font-family="Helvetica,Arial,sans-serif" font-size="14.00">setbuf</text>
</g>
<!-- main&#45;&gt;setbuf -->
<g id="edge13" class="edge">
<title>main&#45;&gt;setbuf</title>
<path fill="none" stroke="#3542b2" d="M949.99,-449.18C854.33,-449.21 550.49,-445.15 305.28,-396 219.34,-378.77 122.68,-342.82 71.22,-322.27"/>
<polygon fill="#3542b2" stroke="#3542b2" points="72.63,-319.06 62.04,-318.57 70.01,-325.56 72.63,-319.06"/>
</g>
<!-- copyproto -->
<g id="node15" class="node">
<title>copyproto</title>
<ellipse fill="#ccd1ff" stroke="#ccd1ff" cx="929.28" cy="-378" rx="48.91" ry="18"/>
<text text-anchor="middle" x="929.28" y="-372.2" font-family="Helvetica,Arial,sans-serif" font-size="14.00">copyproto</text>
</g>
<!-- main&#45;&gt;copyproto -->
<g id="edge14" class="edge">
<title>main&#45;&gt;copyproto</title>
<path fill="none" stroke="#3542b2" d="M968.71,-433.12C962.63,-424.77 955.02,-414.32 948.11,-404.84"/>
<polygon fill="#3542b2" stroke="#3542b2" points="951.13,-403.04 942.41,-397.02 945.47,-407.16 951.13,-403.04"/>
</g>
<!-- initree -->
<g id="node16" class="node">
<title>initree</title>
<ellipse fill="#ccd1ff" stroke="#ccd1ff" cx="1030.28" cy="-378" rx="34.28" ry="18"/>
<text text-anchor="middle" x="1030.28" y="-372.2" font-family="Helvetica,Arial,sans-serif" font-size="14.00">initree</text>
</g>
<!-- main&#45;&gt;initree -->
<g id="edge15" class="edge">
<title>main&#45;&gt;initree</title>
<path fill="none" stroke="#3542b2" d="M991.63,-433.12C997.68,-424.64 1005.27,-414.02 1012.12,-404.43"/>
<polygon fill="#3542b2" stroke="#3542b2" points="1014.79,-406.71 1017.76,-396.54 1009.1,-402.64 1014.79,-406.71"/>
</g>
<!-- safeoutfil -->
<g id="node17" class="node">
<title>safeoutfil</title>
<ellipse fill="#ccd1ff" stroke="#ccd1ff" cx="1128.28" cy="-378" rx="45.5" ry="18"/>
<text text-anchor="middle" x="1128.28" y="-372.2" font-family="Helvetica,Arial,sans-serif" font-size="14.00">safeoutfil</text>
</g>
<!-- main&#45;&gt;safeoutfil -->
<g id="edge16" class="edge">
<title>main&#45;&gt;safeoutfil</title>
<path fill="none" stroke="#3542b2" d="M1003.41,-438.06C1026.38,-427.2 1062.02,-410.34 1089.35,-397.41"/>
<polygon fill="#3542b2" stroke="#3542b2" points="1090.84,-400.58 1098.38,-393.14 1087.84,-394.26 1090.84,-400.58"/>
</g>
<!-- getpid -->
<g id="node18" class="node">
<title>getpid</title>
<ellipse fill="#ccd1ff" stroke="#ccd1ff" cx="1226.28" cy="-378" rx="34.28" ry="18"/>
<text text-anchor="middle" x="1226.28" y="-372.2" font-family="Helvetica,Arial,sans-serif" font-size="14.00">getpid</text>
</g>
<!-- main&#45;&gt;getpid -->
<g id="edge17" class="edge">
<title>main&#45;&gt;getpid</title>
<path fill="none" stroke="#3542b2" d="M1008.01,-442.77C1047.21,-433.72 1120.88,-415.85 1182.28,-396 1184.54,-395.27 1186.84,-394.49 1189.16,-393.68"/>
<polygon fill="#3542b2" stroke="#3542b2" points="1190.32,-396.98 1198.51,-390.25 1187.92,-390.41 1190.32,-396.98"/>
</g>
<!-- sprintf -->
<g id="node19" class="node">
<title>sprintf</title>
<ellipse fill="#ccd1ff" stroke="#ccd1ff" cx="1428.28" cy="-378" rx="34.28" ry="18"/>
<text text-anchor="middle" x="1428.28" y="-372.2" font-family="Helvetica,Arial,sans-serif" font-size="14.00">sprintf</text>
</g>
<!-- main&#45;&gt;sprintf -->
<g id="edge18" class="edge">
<title>main&#45;&gt;sprintf</title>
<path fill="none" stroke="#3542b2" d="M1010.24,-447.6C1078.02,-443.9 1247.99,-431.54 1385.28,-396 1387.53,-395.42 1389.82,-394.75 1392.11,-394.03"/>
<polygon fill="#3542b2" stroke="#3542b2" points="1393,-397.42 1401.28,-390.8 1390.68,-390.82 1393,-397.42"/>
</g>
<!-- creat -->
<g id="node20" class="node">
<title>creat</title>
<ellipse fill="#ccd1ff" stroke="#ccd1ff" cx="1346.28" cy="-378" rx="29.9" ry="18"/>
<text text-anchor="middle" x="1346.28" y="-372.2" font-family="Helvetica,Arial,sans-serif" font-size="14.00">creat</text>
</g>
<!-- main&#45;&gt;creat -->
<g id="edge19" class="edge">
<title>main&#45;&gt;creat</title>
<path fill="none" stroke="#3542b2" d="M1010.02,-446.17C1067.34,-440.27 1196.78,-424.73 1302.28,-396 1305.4,-395.15 1308.59,-394.16 1311.77,-393.1"/>
<polygon fill="#3542b2" stroke="#3542b2" points="1312.74,-396.47 1320.95,-389.78 1310.36,-389.89 1312.74,-396.47"/>
</g>
<!-- rem -->
<g id="node21" class="node">
<title>rem</title>
<ellipse fill="#ccd1ff" stroke="#ccd1ff" cx="1056.28" cy="-162" rx="27" ry="18"/>
<text text-anchor="middle" x="1056.28" y="-156.2" font-family="Helvetica,Arial,sans-serif" font-size="14.00">rem</text>
</g>
<!-- main&#45;&gt;rem -->
<g id="edge20" class="edge">
<title>main&#45;&gt;rem</title>
<path fill="none" stroke="#3542b2" d="M1010.58,-448.54C1124.04,-446.53 1519.23,-436.62 1556.28,-396 1581.34,-368.53 1544.77,-257.33 1484.28,-216 1412.05,-166.65 1176.68,-203.03 1092.28,-180 1090.66,-179.56 1089.02,-179.04 1087.38,-178.48"/>
<polygon fill="#3542b2" stroke="#3542b2" points="1088.74,-175.25 1078.15,-174.74 1086.11,-181.74 1088.74,-175.25"/>
</g>
<!-- oldfile -->
<g id="node22" class="node">
<title>oldfile</title>
<ellipse fill="#ccd1ff" stroke="#ccd1ff" cx="1514.28" cy="-378" rx="33.31" ry="18"/>
<text text-anchor="middle" x="1514.28" y="-372.2" font-family="Helvetica,Arial,sans-serif" font-size="14.00">oldfile</text>
</g>
<!-- main&#45;&gt;oldfile -->
<g id="edge21" class="edge">
<title>main&#45;&gt;oldfile</title>
<path fill="none" stroke="#3542b2" d="M1010.38,-448.55C1087.92,-446.79 1300.43,-438.17 1471.28,-396 1473.69,-395.41 1476.14,-394.71 1478.59,-393.94"/>
<polygon fill="#3542b2" stroke="#3542b2" points="1479.48,-397.34 1487.76,-390.73 1477.17,-390.73 1479.48,-397.34"/>
</g>
<!-- malloc -->
<g id="node44" class="node">
<title>malloc</title>
<ellipse fill="#ccd1ff" stroke="#ccd1ff" cx="1689.28" cy="-450" rx="36.23" ry="18"/>
<text text-anchor="middle" x="1689.28" y="-444.2" font-family="Helvetica,Arial,sans-serif" font-size="14.00">malloc</text>
</g>
<!-- on_exit&#45;&gt;malloc -->
<g id="edge71" class="edge">
<title>on_exit&#45;&gt;malloc</title>
<path fill="none" stroke="#29d820" d="M1521.36,-510.37C1555.62,-498.25 1611.76,-478.41 1649.59,-465.03"/>
<polygon fill="#29d820" stroke="#29d820" points="1650.53,-468.41 1658.79,-461.78 1648.2,-461.81 1650.53,-468.41"/>
</g>
<!-- sort&#45;&gt;newfile -->
<g id="edge24" class="edge">
<title>sort&#45;&gt;newfile</title>
<path fill="none" stroke="#3542b2" d="M366.56,-370.87C380.83,-367.49 399.01,-363.32 415.28,-360 504.64,-341.79 527.68,-340.94 617.28,-324 630.21,-321.56 644.21,-318.8 657.06,-316.23"/>
<polygon fill="#3542b2" stroke="#3542b2" points="657.39,-319.73 666.51,-314.33 656.01,-312.87 657.39,-319.73"/>
</g>
<!-- sort&#45;&gt;fclose -->
<g id="edge25" class="edge">
<title>sort&#45;&gt;fclose</title>
<path fill="none" stroke="#3542b2" d="M343.76,-359.7C344.81,-352.32 346.07,-343.52 347.25,-335.25"/>
<polygon fill="#3542b2" stroke="#3542b2" points="350.68,-336 348.63,-325.6 343.75,-335.01 350.68,-336"/>
</g>
<!-- sort&#45;&gt;setbuf -->
<g id="edge26" class="edge">
<title>sort&#45;&gt;setbuf</title>
<path fill="none" stroke="#3542b2" d="M314.9,-372.84C267.74,-365.14 166.08,-347.29 82.28,-324 78.98,-323.08 75.58,-322.05 72.19,-320.97"/>
<polygon fill="#3542b2" stroke="#3542b2" points="73.52,-317.72 62.92,-317.85 71.29,-324.36 73.52,-317.72"/>
</g>
<!-- msort -->
<g id="node23" class="node">
<title>msort</title>
<ellipse fill="#b9d9ff" stroke="#b9d9ff" cx="267.28" cy="-306" rx="32.82" ry="18"/>
<text text-anchor="middle" x="267.28" y="-300.2" font-family="Helvetica,Arial,sans-serif" font-size="14.00">msort</text>
</g>
<!-- sort&#45;&gt;msort -->
<g id="edge22" class="edge">
<title>sort&#45;&gt;msort</title>
<path fill="none" stroke="#3459b6" d="M326.31,-362.83C316.35,-353.41 303.04,-340.82 291.58,-329.98"/>
<polygon fill="#3459b6" stroke="#3459b6" points="294.03,-327.48 284.36,-323.15 289.22,-332.57 294.03,-327.48"/>
</g>
<!-- filbuf -->
<g id="node24" class="node">
<title>filbuf</title>
<ellipse fill="#c8d1ff" stroke="#c8d1ff" cx="101.28" cy="-234" rx="28.92" ry="18"/>
<text text-anchor="middle" x="101.28" y="-228.2" font-family="Helvetica,Arial,sans-serif" font-size="14.00">filbuf</text>
</g>
<!-- sort&#45;&gt;filbuf -->
<g id="edge23" class="edge">
<title>sort&#45;&gt;filbuf</title>
<path fill="none" stroke="#3542b2" d="M314.7,-374.44C260.96,-368.72 142.22,-353.02 115.28,-324 100.39,-307.96 97.6,-282.86 98.13,-263.39"/>
<polygon fill="#3542b2" stroke="#3542b2" points="101.6,-263.84 98.71,-253.65 94.62,-263.42 101.6,-263.84"/>
</g>
<!-- setfil -->
<g id="node25" class="node">
<title>setfil</title>
<ellipse fill="#ccd1ff" stroke="#ccd1ff" cx="772.28" cy="-234" rx="28.43" ry="18"/>
<text text-anchor="middle" x="772.28" y="-228.2" font-family="Helvetica,Arial,sans-serif" font-size="14.00">setfil</text>
</g>
<!-- sort&#45;&gt;setfil -->
<g id="edge27" class="edge">
<title>sort&#45;&gt;setfil</title>
<path fill="none" stroke="#3542b2" d="M362.13,-366.05C398.4,-347.41 475.89,-309.49 545.28,-288 626.55,-262.84 652.01,-277.15 733.28,-252 735.4,-251.34 737.56,-250.61 739.71,-249.82"/>
<polygon fill="#3542b2" stroke="#3542b2" points="740.94,-253.1 748.93,-246.14 738.34,-246.6 740.94,-253.1"/>
</g>
<!-- merge&#45;&gt;unlink -->
<g id="edge36" class="edge">
<title>merge&#45;&gt;unlink</title>
<path fill="none" stroke="#3542b2" d="M495.03,-373.4C554.54,-366.78 679.49,-350.81 782.28,-324 785.62,-323.13 789.05,-322.12 792.47,-321.04"/>
<polygon fill="#3542b2" stroke="#3542b2" points="793.42,-324.41 801.77,-317.88 791.18,-317.78 793.42,-324.41"/>
</g>
<!-- merge&#45;&gt;fclose -->
<g id="edge38" class="edge">
<title>merge&#45;&gt;fclose</title>
<path fill="none" stroke="#3542b2" d="M438.75,-363.17C422.42,-352.68 399.76,-338.13 381.59,-326.46"/>
<polygon fill="#3542b2" stroke="#3542b2" points="383.61,-323.6 373.31,-321.14 379.83,-329.49 383.61,-323.6"/>
</g>
<!-- merge&#45;&gt;setbuf -->
<g id="edge41" class="edge">
<title>merge&#45;&gt;setbuf</title>
<path fill="none" stroke="#3542b2" d="M428.06,-369.89C412.72,-366.63 394.1,-362.87 377.28,-360 261.43,-340.2 231.09,-344.08 115.28,-324 102.6,-321.8 88.88,-319.06 76.39,-316.42"/>
<polygon fill="#3542b2" stroke="#3542b2" points="77.33,-313.05 66.82,-314.37 75.86,-319.89 77.33,-313.05"/>
</g>
<!-- merge&#45;&gt;setfil -->
<g id="edge39" class="edge">
<title>merge&#45;&gt;setfil</title>
<path fill="none" stroke="#3542b2" d="M496.02,-375.15C565.02,-370.83 712.97,-357.8 749.28,-324 765.63,-308.78 770.98,-283.6 772.47,-263.9"/>
<polygon fill="#3542b2" stroke="#3542b2" points="775.96,-264.14 772.9,-254 768.97,-263.84 775.96,-264.14"/>
</g>
<!-- insert -->
<g id="node27" class="node">
<title>insert</title>
<ellipse fill="#ccd1ff" stroke="#ccd1ff" cx="530.28" cy="-234" rx="31.85" ry="18"/>
<text text-anchor="middle" x="530.28" y="-228.2" font-family="Helvetica,Arial,sans-serif" font-size="14.00">insert</text>
</g>
<!-- merge&#45;&gt;insert -->
<g id="edge33" class="edge">
<title>merge&#45;&gt;insert</title>
<path fill="none" stroke="#3542b2" d="M459.78,-359.57C459.95,-340.84 462.34,-310.7 474.28,-288 480.84,-275.54 491.47,-264.37 501.71,-255.54"/>
<polygon fill="#3542b2" stroke="#3542b2" points="503.76,-258.37 509.32,-249.35 499.35,-252.94 503.76,-258.37"/>
</g>
<!-- wline -->
<g id="node28" class="node">
<title>wline</title>
<ellipse fill="#d7ff3e" stroke="#d7ff3e" cx="186.28" cy="-234" rx="30.38" ry="18"/>
<text text-anchor="middle" x="186.28" y="-228.2" font-family="Helvetica,Arial,sans-serif" font-size="14.00">wline</text>
</g>
<!-- merge&#45;&gt;wline -->
<g id="edge35" class="edge">
<title>merge&#45;&gt;wline</title>
<path fill="none" stroke="#3542b2" d="M427.77,-370.06C364.2,-356.45 229.23,-327.25 225.28,-324 206.88,-308.81 196.91,-283.24 191.67,-263.39"/>
<polygon fill="#3542b2" stroke="#3542b2" points="195.08,-262.61 189.39,-253.68 188.26,-264.21 195.08,-262.61"/>
</g>
<!-- cmpsave -->
<g id="node30" class="node">
<title>cmpsave</title>
<ellipse fill="#ccd1ff" stroke="#ccd1ff" cx="396.28" cy="-234" rx="45.98" ry="18"/>
<text text-anchor="middle" x="396.28" y="-228.2" font-family="Helvetica,Arial,sans-serif" font-size="14.00">cmpsave</text>
</g>
<!-- merge&#45;&gt;cmpsave -->
<g id="edge42" class="edge">
<title>merge&#45;&gt;cmpsave</title>
<path fill="none" stroke="#3542b2" d="M452.71,-360.3C447.98,-349.86 441.77,-336.15 436.28,-324 426.98,-303.38 416.5,-280.06 408.6,-262.46"/>
<polygon fill="#3542b2" stroke="#3542b2" points="411.85,-261.14 404.56,-253.45 405.46,-264.01 411.85,-261.14"/>
</g>
<!-- rline -->
<g id="node31" class="node">
<title>rline</title>
<ellipse fill="#6fff82" stroke="#6fff82" cx="151.28" cy="-306" rx="27" ry="18"/>
<text text-anchor="middle" x="151.28" y="-300.2" font-family="Helvetica,Arial,sans-serif" font-size="14.00">rline</text>
</g>
<!-- merge&#45;&gt;rline -->
<g id="edge34" class="edge">
<title>merge&#45;&gt;rline</title>
<path fill="none" stroke="#3542b2" d="M427.58,-370.22C412.31,-367.08 393.87,-363.31 377.28,-360 295.14,-343.6 272.49,-348.16 192.28,-324 189.51,-323.16 186.66,-322.21 183.83,-321.18"/>
<polygon fill="#3542b2" stroke="#3542b2" points="185.12,-317.93 174.53,-317.55 182.57,-324.45 185.12,-317.93"/>
</g>
<!-- fopen -->
<g id="node32" class="node">
<title>fopen</title>
<ellipse fill="#ccd1ff" stroke="#ccd1ff" cx="692.28" cy="-234" rx="32.33" ry="18"/>
<text text-anchor="middle" x="692.28" y="-228.2" font-family="Helvetica,Arial,sans-serif" font-size="14.00">fopen</text>
</g>
<!-- merge&#45;&gt;fopen -->
<g id="edge37" class="edge">
<title>merge&#45;&gt;fopen</title>
<path fill="none" stroke="#3542b2" d="M471.99,-360.58C486.9,-340.76 514.48,-307.65 545.28,-288 587.23,-261.24 604.72,-269.54 651.28,-252 653.07,-251.33 654.89,-250.63 656.73,-249.91"/>
<polygon fill="#3542b2" stroke="#3542b2" points="657.85,-253.23 665.83,-246.26 655.25,-246.73 657.85,-253.23"/>
</g>
<!-- mul -->
<g id="node33" class="node">
<title>mul</title>
<ellipse fill="#ccd1ff" stroke="#ccd1ff" cx="581.28" cy="-306" rx="27" ry="18"/>
<text text-anchor="middle" x="581.28" y="-300.2" font-family="Helvetica,Arial,sans-serif" font-size="14.00">mul</text>
</g>
<!-- merge&#45;&gt;mul -->
<g id="edge40" class="edge">
<title>merge&#45;&gt;mul</title>
<path fill="none" stroke="#3542b2" d="M483.04,-363.83C502.46,-352.6 530.51,-336.38 551.67,-324.13"/>
<polygon fill="#3542b2" stroke="#3542b2" points="553.22,-327.28 560.12,-319.24 549.71,-321.22 553.22,-327.28"/>
</g>
<!-- term&#45;&gt;signal -->
<g id="edge51" class="edge">
<title>term&#45;&gt;signal</title>
<path fill="none" stroke="#3542b2" d="M855.84,-366.02C860.82,-363.78 866.16,-361.63 871.28,-360 954.36,-333.64 1055.46,-318.69 1112.18,-311.77"/>
<polygon fill="#3542b2" stroke="#3542b2" points="1112.57,-315.25 1122.09,-310.6 1111.75,-308.3 1112.57,-315.25"/>
</g>
<!-- term&#45;&gt;unlink -->
<g id="edge50" class="edge">
<title>term&#45;&gt;unlink</title>
<path fill="none" stroke="#3542b2" d="M833.05,-359.7C832.53,-352.41 831.91,-343.73 831.32,-335.54"/>
<polygon fill="#3542b2" stroke="#3542b2" points="834.82,-335.34 830.61,-325.61 827.84,-335.84 834.82,-335.34"/>
</g>
<!-- term&#45;&gt;setfil -->
<g id="edge52" class="edge">
<title>term&#45;&gt;setfil</title>
<path fill="none" stroke="#3542b2" d="M856.81,-366.41C888.35,-351.54 942.03,-326.01 943.28,-324 951.77,-310.44 952.78,-300.88 943.28,-288 913.41,-247.47 852.86,-237.01 812.43,-234.79"/>
<polygon fill="#3542b2" stroke="#3542b2" points="812.73,-231.3 802.61,-234.42 812.46,-238.3 812.73,-231.3"/>
</g>
<!-- exit -->
<g id="node39" class="node">
<title>exit</title>
<ellipse fill="#ccd1ff" stroke="#ccd1ff" cx="907.28" cy="-306" rx="27" ry="18"/>
<text text-anchor="middle" x="907.28" y="-300.2" font-family="Helvetica,Arial,sans-serif" font-size="14.00">exit</text>
</g>
<!-- term&#45;&gt;exit -->
<g id="edge53" class="edge">
<title>term&#45;&gt;exit</title>
<path fill="none" stroke="#3542b2" d="M849.41,-362.5C859.46,-352.86 872.85,-340.02 884.22,-329.12"/>
<polygon fill="#3542b2" stroke="#3542b2" points="886.54,-331.74 891.34,-322.29 881.7,-326.69 886.54,-331.74"/>
</g>
<!-- sigvec -->
<g id="node53" class="node">
<title>sigvec</title>
<ellipse fill="#ccd1ff" stroke="#ccd1ff" cx="1156.28" cy="-234" rx="35.26" ry="18"/>
<text text-anchor="middle" x="1156.28" y="-228.2" font-family="Helvetica,Arial,sans-serif" font-size="14.00">sigvec</text>
</g>
<!-- signal&#45;&gt;sigvec -->
<g id="edge72" class="edge">
<title>signal&#45;&gt;sigvec</title>
<path fill="none" stroke="#3542b2" d="M1156.28,-287.7C1156.28,-280.41 1156.28,-271.73 1156.28,-263.54"/>
<polygon fill="#3542b2" stroke="#3542b2" points="1159.78,-263.62 1156.28,-253.62 1152.78,-263.62 1159.78,-263.62"/>
</g>
<!-- newfile&#45;&gt;setfil -->
<g id="edge58" class="edge">
<title>newfile&#45;&gt;setfil</title>
<path fill="none" stroke="#3542b2" d="M717.82,-289.46C727.23,-280.06 739.39,-267.9 749.83,-257.46"/>
<polygon fill="#3542b2" stroke="#3542b2" points="752.08,-260.15 756.68,-250.61 747.13,-255.2 752.08,-260.15"/>
</g>
<!-- newfile&#45;&gt;fopen -->
<g id="edge57" class="edge">
<title>newfile&#45;&gt;fopen</title>
<path fill="none" stroke="#344db4" d="M699.81,-287.7C698.76,-280.32 697.5,-271.52 696.32,-263.25"/>
<polygon fill="#344db4" stroke="#344db4" points="699.82,-263.01 694.94,-253.6 692.89,-264 699.82,-263.01"/>
</g>
<!-- fclose&#45;&gt;close -->
<g id="edge60" class="edge">
<title>fclose&#45;&gt;close</title>
<path fill="none" stroke="#3542b2" d="M382.34,-299.21C425.36,-290.8 505.26,-273.82 571.28,-252 573.11,-251.4 574.96,-250.75 576.83,-250.06"/>
<polygon fill="#3542b2" stroke="#3542b2" points="577.98,-253.37 586.01,-246.46 575.42,-246.86 577.98,-253.37"/>
</g>
<!-- fflush -->
<g id="node43" class="node">
<title>fflush</title>
<ellipse fill="#ccd1ff" stroke="#ccd1ff" cx="359.28" cy="-162" rx="31.36" ry="18"/>
<text text-anchor="middle" x="359.28" y="-156.2" font-family="Helvetica,Arial,sans-serif" font-size="14.00">fflush</text>
</g>
<!-- fclose&#45;&gt;fflush -->
<g id="edge59" class="edge">
<title>fclose&#45;&gt;fflush</title>
<path fill="none" stroke="#3547b3" d="M381.66,-297.96C405.21,-290.74 436.29,-276.92 451.28,-252 459.53,-238.29 459.29,-229.85 451.28,-216 439.77,-196.07 417.59,-182.97 397.9,-174.78"/>
<polygon fill="#3547b3" stroke="#3547b3" points="399.31,-171.57 388.72,-171.27 396.8,-178.11 399.31,-171.57"/>
</g>
<!-- doprnt -->
<g id="node58" class="node">
<title>doprnt</title>
<ellipse fill="#ccd1ff" stroke="#ccd1ff" cx="1428.28" cy="-306" rx="35.26" ry="18"/>
<text text-anchor="middle" x="1428.28" y="-300.2" font-family="Helvetica,Arial,sans-serif" font-size="14.00">doprnt</text>
</g>
<!-- sprintf&#45;&gt;doprnt -->
<g id="edge85" class="edge">
<title>sprintf&#45;&gt;doprnt</title>
<path fill="none" stroke="#3542b2" d="M1428.28,-359.7C1428.28,-352.41 1428.28,-343.73 1428.28,-335.54"/>
<polygon fill="#3542b2" stroke="#3542b2" points="1431.78,-335.62 1428.28,-325.62 1424.78,-335.62 1431.78,-335.62"/>
</g>
<!-- qsort -->
<g id="node26" class="node">
<title>qsort</title>
<ellipse fill="#8dffdc" stroke="#8dffdc" cx="264.28" cy="-234" rx="29.9" ry="18"/>
<text text-anchor="middle" x="264.28" y="-228.2" font-family="Helvetica,Arial,sans-serif" font-size="14.00">qsort</text>
</g>
<!-- msort&#45;&gt;qsort -->
<g id="edge28" class="edge">
<title>msort&#45;&gt;qsort</title>
<path fill="none" stroke="#3542b2" d="M266.54,-287.7C266.23,-280.41 265.86,-271.73 265.51,-263.54"/>
<polygon fill="#3542b2" stroke="#3542b2" points="269.01,-263.46 265.08,-253.62 262.01,-263.76 269.01,-263.46"/>
</g>
<!-- msort&#45;&gt;insert -->
<g id="edge29" class="edge">
<title>msort&#45;&gt;insert</title>
<path fill="none" stroke="#3542b2" d="M292.38,-294.13C297.89,-291.95 303.74,-289.78 309.28,-288 342.61,-277.33 435.86,-256 489.99,-243.9"/>
<polygon fill="#3542b2" stroke="#3542b2" points="490.43,-247.39 499.43,-241.8 488.91,-240.56 490.43,-247.39"/>
</g>
<!-- msort&#45;&gt;wline -->
<g id="edge30" class="edge">
<title>msort&#45;&gt;wline</title>
<path fill="none" stroke="#3542b2" d="M250.11,-290.15C238.9,-280.47 224.07,-267.65 211.53,-256.81"/>
<polygon fill="#3542b2" stroke="#3542b2" points="213.88,-254.23 204.03,-250.33 209.31,-259.52 213.88,-254.23"/>
</g>
<!-- div -->
<g id="node29" class="node">
<title>div</title>
<ellipse fill="#ccd1ff" stroke="#ccd1ff" cx="772.28" cy="-162" rx="27" ry="18"/>
<text text-anchor="middle" x="772.28" y="-156.2" font-family="Helvetica,Arial,sans-serif" font-size="14.00">div</text>
</g>
<!-- msort&#45;&gt;div -->
<g id="edge31" class="edge">
<title>msort&#45;&gt;div</title>
<path fill="none" stroke="#3542b2" d="M278.47,-288.74C294.86,-265.45 325.19,-224.46 341.28,-216 497.32,-133.97 566.2,-226.35 736.28,-180 737.91,-179.56 739.55,-179.04 741.19,-178.48"/>
<polygon fill="#3542b2" stroke="#3542b2" points="742.46,-181.74 750.42,-174.74 739.83,-175.25 742.46,-181.74"/>
</g>
<!-- msort&#45;&gt;cmpsave -->
<g id="edge32" class="edge">
<title>msort&#45;&gt;cmpsave</title>
<path fill="none" stroke="#3542b2" d="M290.05,-292.65C309.49,-282.1 337.81,-266.73 360.31,-254.52"/>
<polygon fill="#3542b2" stroke="#3542b2" points="361.74,-257.72 368.86,-249.88 358.41,-251.57 361.74,-257.72"/>
</g>
<!-- read -->
<g id="node38" class="node">
<title>read</title>
<ellipse fill="#b5dcff" stroke="#b5dcff" cx="101.28" cy="-162" rx="27.95" ry="18"/>
<text text-anchor="middle" x="101.28" y="-156.2" font-family="Helvetica,Arial,sans-serif" font-size="14.00">read</text>
</g>
<!-- filbuf&#45;&gt;read -->
<g id="edge49" class="edge">
<title>filbuf&#45;&gt;read</title>
<path fill="none" stroke="#3542b2" d="M101.28,-215.7C101.28,-208.41 101.28,-199.73 101.28,-191.54"/>
<polygon fill="#3542b2" stroke="#3542b2" points="104.78,-191.62 101.28,-181.62 97.78,-191.62 104.78,-191.62"/>
</g>
<!-- setfil&#45;&gt;rem -->
<g id="edge78" class="edge">
<title>setfil&#45;&gt;rem</title>
<path fill="none" stroke="#3542b2" d="M799.99,-229.21C846.42,-222.4 942.49,-206.29 1020.28,-180 1021.84,-179.47 1023.42,-178.9 1025,-178.29"/>
<polygon fill="#3542b2" stroke="#3542b2" points="1026.08,-181.63 1033.91,-174.49 1023.34,-175.19 1026.08,-181.63"/>
</g>
<!-- setfil&#45;&gt;div -->
<g id="edge77" class="edge">
<title>setfil&#45;&gt;div</title>
<path fill="none" stroke="#3542b2" d="M772.28,-215.7C772.28,-208.41 772.28,-199.73 772.28,-191.54"/>
<polygon fill="#3542b2" stroke="#3542b2" points="775.78,-191.62 772.28,-181.62 768.78,-191.62 775.78,-191.62"/>
</g>
<!-- cmpa -->
<g id="node34" class="node">
<title>cmpa</title>
<ellipse fill="#ff0000" stroke="#ff0000" cx="478.28" cy="-162" rx="32.33" ry="18"/>
<text text-anchor="middle" x="478.28" y="-156.2" font-family="Helvetica,Arial,sans-serif" font-size="14.00">cmpa</text>
</g>
<!-- qsort&#45;&gt;cmpa -->
<g id="edge45" class="edge">
<title>qsort&#45;&gt;cmpa</title>
<path fill="none" stroke="#3542b2" d="M288.85,-223.18C295.15,-220.75 301.94,-218.21 308.28,-216 352.93,-200.43 404.91,-184.55 439.52,-174.28"/>
<polygon fill="#3542b2" stroke="#3542b2" points="440.07,-177.77 448.67,-171.58 438.09,-171.06 440.07,-177.77"/>
</g>
<!-- insert&#45;&gt;cmpa -->
<g id="edge43" class="edge">
<title>insert&#45;&gt;cmpa</title>
<path fill="none" stroke="#3542b2" d="M518.48,-217.12C512.1,-208.52 504.07,-197.72 496.87,-188.02"/>
<polygon fill="#3542b2" stroke="#3542b2" points="499.71,-185.98 490.94,-180.04 494.09,-190.15 499.71,-185.98"/>
</g>
<!-- getfreehdr -->
<g id="node47" class="node">
<title>getfreehdr</title>
<ellipse fill="#ccd1ff" stroke="#ccd1ff" cx="961.28" cy="-162" rx="50.37" ry="18"/>
<text text-anchor="middle" x="961.28" y="-156.2" font-family="Helvetica,Arial,sans-serif" font-size="14.00">getfreehdr</text>
</g>
<!-- insert&#45;&gt;getfreehdr -->
<g id="edge76" class="edge">
<title>insert&#45;&gt;getfreehdr</title>
<path fill="none" stroke="#3542b2" d="M554.2,-221.87C559.72,-219.65 565.63,-217.53 571.28,-216 602.6,-207.53 802.12,-182.46 903.02,-170.08"/>
<polygon fill="#3542b2" stroke="#3542b2" points="903.23,-173.58 912.73,-168.89 902.38,-166.63 903.23,-173.58"/>
</g>
<!-- flsbuf -->
<g id="node35" class="node">
<title>flsbuf</title>
<ellipse fill="#ccd1ff" stroke="#ccd1ff" cx="204.28" cy="-162" rx="31.36" ry="18"/>
<text text-anchor="middle" x="204.28" y="-156.2" font-family="Helvetica,Arial,sans-serif" font-size="14.00">flsbuf</text>
</g>
<!-- wline&#45;&gt;flsbuf -->
<g id="edge44" class="edge">
<title>wline&#45;&gt;flsbuf</title>
<path fill="none" stroke="#3542b2" d="M190.73,-215.7C192.63,-208.32 194.89,-199.52 197.02,-191.25"/>
<polygon fill="#3542b2" stroke="#3542b2" points="200.41,-192.13 199.51,-181.57 193.63,-190.38 200.41,-192.13"/>
</g>
<!-- rline&#45;&gt;filbuf -->
<g id="edge46" class="edge">
<title>rline&#45;&gt;filbuf</title>
<path fill="none" stroke="#3542b2" d="M140.19,-289.46C134.06,-280.89 126.3,-270.02 119.32,-260.25"/>
<polygon fill="#3542b2" stroke="#3542b2" points="122.24,-258.31 113.58,-252.21 116.54,-262.38 122.24,-258.31"/>
</g>
<!-- endopen -->
<g id="node40" class="node">
<title>endopen</title>
<ellipse fill="#ccd1ff" stroke="#ccd1ff" cx="592.28" cy="-162" rx="44.52" ry="18"/>
<text text-anchor="middle" x="592.28" y="-156.2" font-family="Helvetica,Arial,sans-serif" font-size="14.00">endopen</text>
</g>
<!-- fopen&#45;&gt;endopen -->
<g id="edge55" class="edge">
<title>fopen&#45;&gt;endopen</title>
<path fill="none" stroke="#354ab3" d="M673,-219.5C658.87,-209.61 639.38,-195.96 623.09,-184.56"/>
<polygon fill="#354ab3" stroke="#354ab3" points="625.38,-181.89 615.18,-179.02 621.36,-187.63 625.38,-181.89"/>
</g>
<!-- findiop -->
<g id="node42" class="node">
<title>findiop</title>
<ellipse fill="#ccd1ff" stroke="#ccd1ff" cx="691.28" cy="-162" rx="36.23" ry="18"/>
<text text-anchor="middle" x="691.28" y="-156.2" font-family="Helvetica,Arial,sans-serif" font-size="14.00">findiop</text>
</g>
<!-- fopen&#45;&gt;findiop -->
<g id="edge56" class="edge">
<title>fopen&#45;&gt;findiop</title>
<path fill="none" stroke="#3542b2" d="M692.04,-215.7C691.93,-208.41 691.81,-199.73 691.69,-191.54"/>
<polygon fill="#3542b2" stroke="#3542b2" points="695.19,-191.57 691.55,-181.62 688.19,-191.67 695.19,-191.57"/>
</g>
<!-- xflsbuf -->
<g id="node36" class="node">
<title>xflsbuf</title>
<ellipse fill="#ccd1ff" stroke="#ccd1ff" cx="282.28" cy="-90" rx="35.75" ry="18"/>
<text text-anchor="middle" x="282.28" y="-84.2" font-family="Helvetica,Arial,sans-serif" font-size="14.00">xflsbuf</text>
</g>
<!-- flsbuf&#45;&gt;xflsbuf -->
<g id="edge48" class="edge">
<title>flsbuf&#45;&gt;xflsbuf</title>
<path fill="none" stroke="#3542b2" d="M220.45,-146.5C231,-137.02 245.01,-124.45 257.02,-113.68"/>
<polygon fill="#3542b2" stroke="#3542b2" points="259.1,-116.51 264.21,-107.22 254.43,-111.3 259.1,-116.51"/>
</g>
<!-- write -->
<g id="node37" class="node">
<title>write</title>
<ellipse fill="#9cfffe" stroke="#9cfffe" cx="282.28" cy="-18" rx="28.92" ry="18"/>
<text text-anchor="middle" x="282.28" y="-12.2" font-family="Helvetica,Arial,sans-serif" font-size="14.00">write</text>
</g>
<!-- xflsbuf&#45;&gt;write -->
<g id="edge47" class="edge">
<title>xflsbuf&#45;&gt;write</title>
<path fill="none" stroke="#3542b2" d="M282.28,-71.7C282.28,-64.41 282.28,-55.73 282.28,-47.54"/>
<polygon fill="#3542b2" stroke="#3542b2" points="285.78,-47.62 282.28,-37.62 278.78,-47.62 285.78,-47.62"/>
</g>
<!-- open -->
<g id="node41" class="node">
<title>open</title>
<ellipse fill="#c8d1ff" stroke="#c8d1ff" cx="592.28" cy="-90" rx="29.9" ry="18"/>
<text text-anchor="middle" x="592.28" y="-84.2" font-family="Helvetica,Arial,sans-serif" font-size="14.00">open</text>
</g>
<!-- endopen&#45;&gt;open -->
<g id="edge54" class="edge">
<title>endopen&#45;&gt;open</title>
<path fill="none" stroke="#3542b2" d="M592.28,-143.7C592.28,-136.41 592.28,-127.73 592.28,-119.54"/>
<polygon fill="#3542b2" stroke="#3542b2" points="595.78,-119.62 592.28,-109.62 588.78,-119.62 595.78,-119.62"/>
</g>
<!-- fflush&#45;&gt;xflsbuf -->
<g id="edge61" class="edge">
<title>fflush&#45;&gt;xflsbuf</title>
<path fill="none" stroke="#344db4" d="M342.95,-146.15C332.68,-136.82 319.22,-124.57 307.58,-114"/>
<polygon fill="#344db4" stroke="#344db4" points="310,-111.46 300.24,-107.33 305.29,-116.64 310,-111.46"/>
</g>
<!-- morecore -->
<g id="node45" class="node">
<title>morecore</title>
<ellipse fill="#ccd1ff" stroke="#ccd1ff" cx="1689.28" cy="-378" rx="47.93" ry="18"/>
<text text-anchor="middle" x="1689.28" y="-372.2" font-family="Helvetica,Arial,sans-serif" font-size="14.00">morecore</text>
</g>
<!-- malloc&#45;&gt;morecore -->
<g id="edge62" class="edge">
<title>malloc&#45;&gt;morecore</title>
<path fill="none" stroke="#29d820" d="M1689.28,-431.7C1689.28,-424.41 1689.28,-415.73 1689.28,-407.54"/>
<polygon fill="#29d820" stroke="#29d820" points="1692.78,-407.62 1689.28,-397.62 1685.78,-407.62 1692.78,-407.62"/>
</g>
<!-- demote -->
<g id="node46" class="node">
<title>demote</title>
<ellipse fill="#ccd1ff" stroke="#ccd1ff" cx="1795.28" cy="-378" rx="40.13" ry="18"/>
<text text-anchor="middle" x="1795.28" y="-372.2" font-family="Helvetica,Arial,sans-serif" font-size="14.00">demote</text>
</g>
<!-- malloc&#45;&gt;demote -->
<g id="edge63" class="edge">
<title>malloc&#45;&gt;demote</title>
<path fill="none" stroke="#3542b2" d="M1710.48,-435C1725.88,-424.84 1746.95,-410.92 1764.24,-399.5"/>
<polygon fill="#3542b2" stroke="#3542b2" points="1765.72,-402.72 1772.13,-394.29 1761.86,-396.88 1765.72,-402.72"/>
</g>
<!-- morecore&#45;&gt;sbrk -->
<g id="edge64" class="edge">
<title>morecore&#45;&gt;sbrk</title>
<path fill="none" stroke="#3542b2" d="M1688.42,-359.62C1686.29,-320.73 1679.84,-223.81 1665.28,-144 1663.79,-135.82 1661.69,-127.06 1659.56,-119.05"/>
<polygon fill="#3542b2" stroke="#3542b2" points="1662.96,-118.19 1656.91,-109.49 1656.21,-120.06 1662.96,-118.19"/>
</g>
<!-- morecore&#45;&gt;getfreehdr -->
<g id="edge65" class="edge">
<title>morecore&#45;&gt;getfreehdr</title>
<path fill="none" stroke="#3542b2" d="M1684.94,-359.83C1675.25,-325.57 1648.37,-249.17 1594.28,-216 1485.34,-149.18 1146.21,-201.82 1020.28,-180 1016.49,-179.34 1012.6,-178.53 1008.7,-177.63"/>
<polygon fill="#3542b2" stroke="#3542b2" points="1009.84,-174.3 999.29,-175.24 1008.12,-181.09 1009.84,-174.3"/>
</g>
<!-- free -->
<g id="node48" class="node">
<title>free</title>
<ellipse fill="#ccd1ff" stroke="#ccd1ff" cx="1291.28" cy="-306" rx="27" ry="18"/>
<text text-anchor="middle" x="1291.28" y="-300.2" font-family="Helvetica,Arial,sans-serif" font-size="14.00">free</text>
</g>
<!-- morecore&#45;&gt;free -->
<g id="edge66" class="edge">
<title>morecore&#45;&gt;free</title>
<path fill="none" stroke="#3542b2" d="M1646.33,-369.66C1587.27,-359.53 1477.67,-340.65 1384.28,-324 1365.9,-320.72 1345.5,-317 1328.49,-313.88"/>
<polygon fill="#3542b2" stroke="#3542b2" points="1329.29,-310.47 1318.82,-312.1 1328.02,-317.35 1329.29,-310.47"/>
</g>
<!-- getpagesize -->
<g id="node49" class="node">
<title>getpagesize</title>
<ellipse fill="#ccd1ff" stroke="#ccd1ff" cx="1775.28" cy="-306" rx="57.68" ry="18"/>
<text text-anchor="middle" x="1775.28" y="-300.2" font-family="Helvetica,Arial,sans-serif" font-size="14.00">getpagesize</text>
</g>
<!-- morecore&#45;&gt;getpagesize -->
<g id="edge67" class="edge">
<title>morecore&#45;&gt;getpagesize</title>
<path fill="none" stroke="#3542b2" d="M1708.8,-361.12C1719.97,-352.03 1734.18,-340.46 1746.6,-330.35"/>
<polygon fill="#3542b2" stroke="#3542b2" points="1748.53,-333.29 1754.08,-324.26 1744.11,-327.86 1748.53,-333.29"/>
</g>
<!-- putfreehdr -->
<g id="node50" class="node">
<title>putfreehdr</title>
<ellipse fill="#ccd1ff" stroke="#ccd1ff" cx="1901.28" cy="-306" rx="50.37" ry="18"/>
<text text-anchor="middle" x="1901.28" y="-300.2" font-family="Helvetica,Arial,sans-serif" font-size="14.00">putfreehdr</text>
</g>
<!-- morecore&#45;&gt;putfreehdr -->
<g id="edge68" class="edge">
<title>morecore&#45;&gt;putfreehdr</title>
<path fill="none" stroke="#3542b2" d="M1724.29,-365.44C1759.8,-353.72 1814.97,-335.5 1854.27,-322.52"/>
<polygon fill="#3542b2" stroke="#3542b2" points="1855.32,-325.86 1863.72,-319.4 1853.13,-319.21 1855.32,-325.86"/>
</g>
<!-- udiv -->
<g id="node51" class="node">
<title>udiv</title>
<ellipse fill="#ccd1ff" stroke="#ccd1ff" cx="1558.28" cy="-234" rx="27" ry="18"/>
<text text-anchor="middle" x="1558.28" y="-228.2" font-family="Helvetica,Arial,sans-serif" font-size="14.00">udiv</text>
</g>
<!-- morecore&#45;&gt;udiv -->
<g id="edge69" class="edge">
<title>morecore&#45;&gt;udiv</title>
<path fill="none" stroke="#3542b2" d="M1673.14,-360.97C1662.76,-350.56 1649.07,-336.63 1637.28,-324 1616.81,-302.06 1594.14,-276.37 1578.36,-258.25"/>
<polygon fill="#3542b2" stroke="#3542b2" points="1581.39,-256.4 1572.19,-251.15 1576.11,-260.99 1581.39,-256.4"/>
</g>
<!-- umul -->
<g id="node52" class="node">
<title>umul</title>
<ellipse fill="#ccd1ff" stroke="#ccd1ff" cx="1999.28" cy="-306" rx="29.9" ry="18"/>
<text text-anchor="middle" x="1999.28" y="-300.2" font-family="Helvetica,Arial,sans-serif" font-size="14.00">umul</text>
</g>
<!-- morecore&#45;&gt;umul -->
<g id="edge70" class="edge">
<title>morecore&#45;&gt;umul</title>
<path fill="none" stroke="#3542b2" d="M1724.98,-365.62C1732,-363.59 1739.34,-361.61 1746.28,-360 1840.23,-338.18 1867.83,-351.47 1960.28,-324 1962.13,-323.45 1964.01,-322.84 1965.89,-322.18"/>
<polygon fill="#3542b2" stroke="#3542b2" points="1967.08,-325.47 1975.13,-318.57 1964.54,-318.95 1967.08,-325.47"/>
</g>
<!-- getfreehdr&#45;&gt;sbrk -->
<g id="edge74" class="edge">
<title>getfreehdr&#45;&gt;sbrk</title>
<path fill="none" stroke="#3542b2" d="M997.84,-149.26C1005.21,-147.24 1012.95,-145.35 1020.28,-144 1242.09,-103.14 1513.65,-93.73 1612.75,-91.61"/>
<polygon fill="#3542b2" stroke="#3542b2" points="1612.53,-95.11 1622.46,-91.41 1612.39,-88.11 1612.53,-95.11"/>
</g>
<!-- free&#45;&gt;insert -->
<g id="edge75" class="edge">
<title>free&#45;&gt;insert</title>
<path fill="none" stroke="#3542b2" d="M1265.76,-299.45C1247.14,-295.63 1221.26,-290.75 1198.28,-288 921.14,-254.84 843.36,-314.33 571.28,-252 569.14,-251.51 566.97,-250.92 564.8,-250.25"/>
<polygon fill="#3542b2" stroke="#3542b2" points="566.14,-247.02 555.55,-246.96 563.8,-253.61 566.14,-247.02"/>
</g>
<!-- sigblock -->
<g id="node56" class="node">
<title>sigblock</title>
<ellipse fill="#ccd1ff" stroke="#ccd1ff" cx="1271.28" cy="-162" rx="42.08" ry="18"/>
<text text-anchor="middle" x="1271.28" y="-156.2" font-family="Helvetica,Arial,sans-serif" font-size="14.00">sigblock</text>
</g>
<!-- sigvec&#45;&gt;sigblock -->
<g id="edge79" class="edge">
<title>sigvec&#45;&gt;sigblock</title>
<path fill="none" stroke="#3542b2" d="M1178.46,-219.5C1195.47,-209.15 1219.21,-194.7 1238.42,-183"/>
<polygon fill="#3542b2" stroke="#3542b2" points="1239.98,-186.15 1246.7,-177.96 1236.34,-180.17 1239.98,-186.15"/>
</g>
<!-- sigsetmask -->
<g id="node57" class="node">
<title>sigsetmask</title>
<ellipse fill="#ccd1ff" stroke="#ccd1ff" cx="1156.28" cy="-162" rx="54.76" ry="18"/>
<text text-anchor="middle" x="1156.28" y="-156.2" font-family="Helvetica,Arial,sans-serif" font-size="14.00">sigsetmask</text>
</g>
<!-- sigvec&#45;&gt;sigsetmask -->
<g id="edge80" class="edge">
<title>sigvec&#45;&gt;sigsetmask</title>
<path fill="none" stroke="#3542b2" d="M1156.28,-215.7C1156.28,-208.41 1156.28,-199.73 1156.28,-191.54"/>
<polygon fill="#3542b2" stroke="#3542b2" points="1159.78,-191.62 1156.28,-181.62 1152.78,-191.62 1159.78,-191.62"/>
</g>
<!-- moncontrol -->
<g id="node54" class="node">
<title>moncontrol</title>
<ellipse fill="#cad1ff" stroke="#cad1ff" cx="1597.28" cy="-594" rx="54.27" ry="18"/>
<text text-anchor="middle" x="1597.28" y="-588.2" font-family="Helvetica,Arial,sans-serif" font-size="14.00">moncontrol</text>
</g>
<!-- profil -->
<g id="node55" class="node">
<title>profil</title>
<ellipse fill="#ccd1ff" stroke="#ccd1ff" cx="1597.28" cy="-522" rx="29.41" ry="18"/>
<text text-anchor="middle" x="1597.28" y="-516.2" font-family="Helvetica,Arial,sans-serif" font-size="14.00">profil</text>
</g>
<!-- moncontrol&#45;&gt;profil -->
<g id="edge73" class="edge">
<title>moncontrol&#45;&gt;profil</title>
<path fill="none" stroke="#3542b2" d="M1597.28,-575.7C1597.28,-568.41 1597.28,-559.73 1597.28,-551.54"/>
<polygon fill="#3542b2" stroke="#3542b2" points="1600.78,-551.62 1597.28,-541.62 1593.78,-551.62 1600.78,-551.62"/>
</g>
<!-- doprnt&#45;&gt;udiv -->
<g id="edge82" class="edge">
<title>doprnt&#45;&gt;udiv</title>
<path fill="none" stroke="#3542b2" d="M1451.83,-292.32C1473.15,-280.84 1504.68,-263.86 1527.89,-251.36"/>
<polygon fill="#3542b2" stroke="#3542b2" points="1529.43,-254.51 1536.58,-246.69 1526.11,-248.35 1529.43,-254.51"/>
</g>
<!-- urem -->
<g id="node59" class="node">
<title>urem</title>
<ellipse fill="#ccd1ff" stroke="#ccd1ff" cx="1444.28" cy="-234" rx="30.87" ry="18"/>
<text text-anchor="middle" x="1444.28" y="-228.2" font-family="Helvetica,Arial,sans-serif" font-size="14.00">urem</text>
</g>
<!-- doprnt&#45;&gt;urem -->
<g id="edge81" class="edge">
<title>doprnt&#45;&gt;urem</title>
<path fill="none" stroke="#3542b2" d="M1432.24,-287.7C1433.93,-280.32 1435.94,-271.52 1437.83,-263.25"/>
<polygon fill="#3542b2" stroke="#3542b2" points="1441.22,-264.11 1440.04,-253.58 1434.4,-262.55 1441.22,-264.11"/>
</g>
<!-- strlen -->
<g id="node60" class="node">
<title>strlen</title>
<ellipse fill="#ccd1ff" stroke="#ccd1ff" cx="1241.28" cy="-234" rx="31.85" ry="18"/>
<text text-anchor="middle" x="1241.28" y="-228.2" font-family="Helvetica,Arial,sans-serif" font-size="14.00">strlen</text>
</g>
<!-- doprnt&#45;&gt;strlen -->
<g id="edge83" class="edge">
<title>doprnt&#45;&gt;strlen</title>
<path fill="none" stroke="#3542b2" d="M1399.61,-295.02C1370.06,-284.63 1322.75,-267.73 1282.28,-252 1280.51,-251.31 1278.69,-250.59 1276.86,-249.86"/>
<polygon fill="#3542b2" stroke="#3542b2" points="1278.35,-246.69 1267.77,-246.18 1275.72,-253.18 1278.35,-246.69"/>
</g>
<!-- localeconv -->
<g id="node61" class="node">
<title>localeconv</title>
<ellipse fill="#ccd1ff" stroke="#ccd1ff" cx="1343.28" cy="-234" rx="51.83" ry="18"/>
<text text-anchor="middle" x="1343.28" y="-228.2" font-family="Helvetica,Arial,sans-serif" font-size="14.00">localeconv</text>
</g>
<!-- doprnt&#45;&gt;localeconv -->
<g id="edge84" class="edge">
<title>doprnt&#45;&gt;localeconv</title>
<path fill="none" stroke="#3542b2" d="M1410.26,-290.15C1399.04,-280.92 1384.38,-268.84 1371.63,-258.34"/>
<polygon fill="#3542b2" stroke="#3542b2" points="1373.88,-255.66 1363.93,-252.01 1369.43,-261.06 1373.88,-255.66"/>
</g>
</g>
</svg>
