<?xml version="1.0" encoding="UTF-8" standalone="no"?>
<!-- Uploaded to: SVG Repo, www.svgrepo.com, Generator: SVG Repo Mixer Tools -->

<svg
   width="737.52246"
   height="699.29413"
   viewBox="0 0 944.02875 895.09648"
   class="icon"
   version="1.1"
   id="svg3"
   sodipodi:docname="heaven.svg"
   inkscape:version="1.4 (e7c3feb1, 2024-10-09)"
   xml:space="preserve"
   xmlns:inkscape="http://www.inkscape.org/namespaces/inkscape"
   xmlns:sodipodi="http://sodipodi.sourceforge.net/DTD/sodipodi-0.dtd"
   xmlns="http://www.w3.org/2000/svg"
   xmlns:svg="http://www.w3.org/2000/svg"><defs
     id="defs3" /><sodipodi:namedview
     id="namedview3"
     pagecolor="#ffffff"
     bordercolor="#666666"
     borderopacity="1.0"
     inkscape:showpageshadow="2"
     inkscape:pageopacity="0.0"
     inkscape:pagecheckerboard="0"
     inkscape:deskcolor="#d1d1d1"
     inkscape:zoom="0.77684287"
     inkscape:cx="-39.90511"
     inkscape:cy="371.37497"
     inkscape:window-width="2048"
     inkscape:window-height="1056"
     inkscape:window-x="1754"
     inkscape:window-y="66"
     inkscape:window-maximized="0"
     inkscape:current-layer="svg3" /><g
     inkscape:groupmode="layer"
     id="layer1"
     inkscape:label="helper"
     style="display:none"><path
       style="fill:none;stroke:#014d72;stroke-width:3.2"
       d="M 2.4624861,893.88248 470.33486,301.24415 943.1322,895.52413"
       id="path11" /></g><g
     inkscape:groupmode="layer"
     id="layer2"
     inkscape:label="newEscalones"><path
       id="rect11"
       style="fill:#039be5;stroke:#014d72;stroke-width:3.19706"
       d="M 8.4429549,849.55627 H 935.58579 c 3.70464,0 6.68707,3.37886 6.68707,7.57591 v 28.35505 c 0,4.19705 -2.98243,7.57591 -6.68707,7.57591 H 8.4429549 c -3.7046346,0 -6.6870661,-3.37886 -6.6870661,-7.57591 v -28.35505 c 0,-4.19705 2.9824315,-7.57591 6.6870661,-7.57591 z" /><path
       id="rect12"
       style="fill:#039be5;stroke:#014d72;stroke-width:2.8515"
       d="M 107.59874,765.45435 H 836.43 c 3.72915,0 6.73132,3.4057 6.73132,7.6361 v 28.5802 c 0,4.23041 -3.00217,7.63611 -6.73132,7.63611 H 107.59874 c -3.72914,0 -6.73131,-3.4057 -6.73131,-7.63611 v -28.5802 c 0,-4.2304 3.00217,-7.6361 6.73131,-7.6361 z" /><path
       id="rect13"
       style="fill:#039be5;stroke:#014d72;stroke-width:2.59338"
       d="m 173.27012,681.39612 h 597.48851 c 3.57564,0 6.45423,3.07212 6.45423,6.88816 v 30.33422 c 0,3.81604 -2.87859,6.88816 -6.45423,6.88816 H 173.27012 c -3.57564,0 -6.45423,-3.07212 -6.45423,-6.88816 v -30.33422 c 0,-3.81604 2.87859,-6.88816 6.45423,-6.88816 z" /><path
       id="rect14"
       style="fill:#039be5;stroke:#014d72;stroke-width:2.28484"
       d="m 243.41166,597.31268 h 457.20543 c 3.6835,0 6.64892,3.09608 6.64892,6.94187 v 30.53535 c 0,3.84579 -2.96542,6.94187 -6.64892,6.94187 H 243.41166 c -3.6835,0 -6.64892,-3.09608 -6.64892,-6.94187 v -30.53535 c 0,-3.84579 2.96542,-6.94187 6.64892,-6.94187 z" /><path
       id="rect15"
       style="fill:#039be5;stroke:#014d72;stroke-width:1.93379"
       d="m 309.84088,513.20801 h 324.34699 c 2.78131,0 5.02041,2.76973 5.02041,6.21015 v 32.34983 c 0,3.44042 -2.2391,6.21015 -5.02041,6.21015 H 309.84088 c -2.78131,0 -5.02041,-2.76973 -5.02041,-6.21015 v -32.34983 c 0,-3.44042 2.2391,-6.21015 5.02041,-6.21015 z" /></g><path
     d="M 322.68104,513.6 H 621.3477 v 42.66666 H 322.68104 Z M 237.3477,598.93333 H 706.68104 V 641.6 H 237.3477 Z m -85.33333,85.33333 h 640 v 42.66667 h -640 z M 66.681043,769.6 H 877.3477 v 42.66666 H 66.681043 Z"
     fill="#039be5"
     id="path1"
     style="display:none;opacity:0.201;stroke:#014d72;stroke-width:3.2;stroke-dasharray:none;stroke-opacity:1"
     inkscape:label="escalones"
     sodipodi:insensitive="true" /><path
     d="m 706.68104,172.26666 c -8.53334,0 -17.06667,0 -25.6,2.13334 C 661.88104,76.26666 576.5477,1.6 472.01437,1.6 384.5477,1.6 309.88104,54.93333 275.7477,129.6 h -17.06666 c -93.86667,0 -170.666672,76.8 -170.666672,170.66666 0,93.86667 76.800002,170.66667 170.666672,170.66667 h 448 c 83.2,0 149.33333,-66.13333 149.33333,-149.33333 0,-83.2 -66.13333,-149.33334 -149.33333,-149.33334 z"
     fill="#81d4fa"
     id="path2"
     inkscape:label="nube"
     style="display:inline;stroke:#088ac5;stroke-width:3.2;stroke-dasharray:none;stroke-opacity:1" /><path
     d="m 539.30489,369.99756 c 0,-37.00979 -30.28073,-67.29052 -67.29052,-67.29052 -37.00978,0 -67.29051,30.28073 -67.29051,67.29052 v 100.93577 h 134.58103 z"
     fill="#039be5"
     id="path3"
     style="display:inline;stroke:#014d72;stroke-width:2.56;stroke-dasharray:none;stroke-opacity:1"
     inkscape:label="puerta" /><path
     d="m 1.6,850.82985 h 940.82874 v 42.66666 H 1.6 Z"
     fill="#039be5"
     id="path5"
     inkscape:label="escalones_extra"
     sodipodi:nodetypes="ccccc"
     style="display:none;opacity:0.214;fill:#039be5;fill-opacity:1;stroke:#014d72;stroke-width:3.2;stroke-dasharray:none;stroke-opacity:1"
     sodipodi:insensitive="true" /><path
     d="m 453.60769,884.7359 h -17.27002 v -27.29836 h 3.63 v 24.07169 h 13.64002 z m 26.69335,-13.62168 q 0,3.72167 -1.63167,6.74667 -1.61333,3.02501 -4.30833,4.69334 -1.87,1.155 -4.18001,1.66834 -2.29166,0.51333 -6.05,0.51333 h -6.89334 v -27.29836 h 6.82001 q 3.99667,0 6.34333,0.58667 2.36501,0.56833 3.99667,1.57667 2.78667,1.74167 4.34501,4.63834 1.55833,2.89667 1.55833,6.875 z m -3.795,-0.055 q 0,-3.20833 -1.11834,-5.40834 -1.11833,-2.2 -3.33666,-3.465 -1.61334,-0.91667 -3.42834,-1.265 -1.815,-0.36667 -4.345,-0.36667 h -3.41001 v 21.06502 h 3.41001 q 2.62166,0 4.565,-0.385 1.96167,-0.385 3.59334,-1.43 2.035,-1.30167 3.04333,-3.42834 1.02667,-2.12666 1.02667,-5.31667 z m 31.18503,13.67668 h -3.86834 l -2.67667,-7.60834 h -11.80668 l -2.67667,7.60834 h -3.685 l 9.93668,-27.29836 h 4.84 z m -7.66334,-10.72501 -4.78501,-13.40168 -4.80334,13.40168 z"
     id="text6"
     style="font-size:37.5467px;line-height:1.25;-inkscape-font-specification:'sans-serif, Normal';stroke-width:1.28"
     inkscape:label="lda"
     aria-label="LDA" /><path
     d="m 455.68852,799.01293 q -2.23667,1.02667 -4.895,1.79667 -2.64001,0.75167 -5.11501,0.75167 -3.19,0 -5.84834,-0.88 -2.65833,-0.88 -4.52833,-2.64 -1.88834,-1.77834 -2.91501,-4.43667 -1.02666,-2.67667 -1.02666,-6.25168 0,-6.545 3.81333,-10.32167 3.83167,-3.79501 10.50501,-3.79501 2.32834,0 4.74834,0.56834 2.43834,0.55 5.24334,1.88833 v 4.30834 h -0.33 q -0.56834,-0.44 -1.65,-1.155 -1.08167,-0.715 -2.12667,-1.19167 -1.265,-0.56833 -2.87834,-0.935 -1.595,-0.385 -3.63,-0.385 -4.58334,0 -7.26001,2.95167 -2.65833,2.93334 -2.65833,7.95667 0,5.29834 2.78667,8.25001 2.78666,2.93334 7.59,2.93334 1.76,0 3.50167,-0.34834 1.76,-0.34833 3.08,-0.89833 v -6.69167 h -7.315 v -3.19001 h 10.90834 z m 29.11336,0 q -2.23667,1.02667 -4.895,1.79667 -2.64001,0.75167 -5.11501,0.75167 -3.19,0 -5.84834,-0.88 -2.65833,-0.88 -4.52833,-2.64 -1.88834,-1.77834 -2.91501,-4.43667 -1.02666,-2.67667 -1.02666,-6.25168 0,-6.545 3.81333,-10.32167 3.83167,-3.79501 10.50501,-3.79501 2.32834,0 4.74834,0.56834 2.43833,0.55 5.24334,1.88833 v 4.30834 h -0.33 q -0.56834,-0.44 -1.65,-1.155 -1.08167,-0.715 -2.12667,-1.19167 -1.265,-0.56833 -2.87834,-0.935 -1.595,-0.385 -3.63,-0.385 -4.58334,0 -7.26001,2.95167 -2.65833,2.93334 -2.65833,7.95667 0,5.29834 2.78666,8.25001 2.78667,2.93334 7.59001,2.93334 1.76,0 3.50167,-0.34834 1.76,-0.34833 3.08,-0.89833 v -6.69167 h -7.315 v -3.19001 h 10.90834 z m 27.86669,2.01667 h -3.86833 l -2.67667,-7.60834 h -11.80668 l -2.67667,7.60834 h -3.685 l 9.93667,-27.29836 h 4.84001 z m -7.66334,-10.72501 -4.785,-13.40168 -4.80334,13.40168 z"
     id="text5"
     style="font-size:37.5467px;line-height:1.25;-inkscape-font-specification:'sans-serif, Normal';stroke-width:1.28"
     inkscape:label="gga"
     aria-label="GGA" /><path
     d="m 405.24428,716.59839 h -3.44667 v -11.66001 q 0,-1.32 -0.12833,-2.54834 -0.11,-1.22833 -0.49501,-1.96167 -0.42166,-0.78833 -1.21,-1.19166 -0.78833,-0.40334 -2.27333,-0.40334 -1.44834,0 -2.89667,0.73334 -1.44834,0.715 -2.89667,1.83333 0.055,0.42167 0.0917,0.99 0.0367,0.55 0.0367,1.1 v 13.10835 h -3.44667 v -11.66001 q 0,-1.35667 -0.12833,-2.56667 -0.11,-1.22833 -0.495,-1.96167 -0.42167,-0.78833 -1.21,-1.17333 -0.78834,-0.40334 -2.27334,-0.40334 -1.41166,0 -2.84167,0.69667 -1.41166,0.69667 -2.82333,1.77834 v 15.29001 h -3.44667 v -20.47835 h 3.44667 v 2.27333 q 1.61333,-1.33833 3.20833,-2.09 1.61334,-0.75167 3.42834,-0.75167 2.09,0 3.53834,0.88 1.46667,0.88001 2.18167,2.43834 2.09,-1.76 3.81333,-2.53 1.72334,-0.78834 3.68501,-0.78834 3.37333,0 4.96833,2.05334 1.61334,2.035 1.61334,5.70167 z m 23.77835,-9.88168 h -15.08834 q 0,1.88834 0.56833,3.30001 0.56833,1.39333 1.55833,2.29166 0.95334,0.88001 2.25501,1.32001 1.32,0.44 2.89666,0.44 2.09001,0 4.19834,-0.825 2.12667,-0.84334 3.025,-1.65001 h 0.18334 v 3.75834 q -1.74167,0.73333 -3.55667,1.22834 -1.815,0.495 -3.81334,0.495 -5.09667,0 -7.95667,-2.75001 -2.86,-2.76833 -2.86,-7.84667 0,-5.02334 2.73166,-7.97501 2.75001,-2.95167 7.22334,-2.95167 4.14334,0 6.38001,2.42001 2.255,2.42 2.255,6.875 z m -3.355,-2.64 q -0.0183,-2.71333 -1.375,-4.19834 -1.33834,-1.485 -4.08834,-1.485 -2.76834,0 -4.41834,1.63167 -1.63166,1.63167 -1.85166,4.05167 z m 19.21335,12.33835 q -0.97167,0.25666 -2.12667,0.42166 -1.13667,0.165 -2.035,0.165 -3.135,0 -4.76667,-1.68667 -1.63167,-1.68666 -1.63167,-5.40833 v -10.89001 h -2.32833 v -2.89667 h 2.32833 v -5.88501 h 3.44667 v 5.88501 h 7.11334 v 2.89667 h -7.11334 v 9.33167 q 0,1.61334 0.0733,2.53 0.0733,0.89834 0.51334,1.68667 0.40333,0.73334 1.1,1.08167 0.715,0.33 2.16333,0.33 0.84334,0 1.76001,-0.23833 0.91666,-0.25667 1.32,-0.42167 h 0.18333 z m 20.07502,0.18333 h -3.42834 v -2.18167 q -0.45833,0.31167 -1.24667,0.88 -0.77,0.55 -1.50333,0.88 -0.86167,0.42167 -1.98,0.69667 -1.11834,0.29333 -2.62167,0.29333 -2.76834,0 -4.69334,-1.83333 -1.925,-1.83334 -1.925,-4.67501 0,-2.32833 0.99,-3.75833 1.00833,-1.44834 2.86,-2.27334 1.87,-0.825 4.49167,-1.11833 2.62167,-0.29334 5.62834,-0.44 v -0.53167 q 0,-1.17333 -0.42166,-1.94334 -0.40334,-0.77 -1.17334,-1.21 -0.73333,-0.42166 -1.76,-0.56833 -1.02667,-0.14667 -2.145,-0.14667 -1.35667,0 -3.02501,0.36667 -1.66833,0.34833 -3.44667,1.02667 h -0.18333 v -3.50167 q 1.00834,-0.275 2.915,-0.605 1.90667,-0.33 3.75834,-0.33 2.16334,0 3.75834,0.36666 1.61333,0.34834 2.78667,1.21001 1.155,0.84333 1.76,2.18166 0.605,1.33834 0.605,3.31834 z m -3.42834,-5.04167 v -5.70167 q -1.57667,0.0917 -3.72167,0.275 -2.12667,0.18333 -3.37333,0.53166 -1.48501,0.42167 -2.40167,1.32 -0.91667,0.88001 -0.91667,2.43834 0,1.76 1.06333,2.65834 1.06334,0.88 3.24501,0.88 1.815,0 3.31833,-0.69667 1.50334,-0.715 2.78667,-1.705 z m 20.91835,-5.24334 H 471.006 v -3.31834 h 11.44001 z m 29.24169,8.26834 q -2.23667,1.02667 -4.895,1.79667 -2.64001,0.75167 -5.11501,0.75167 -3.19,0 -5.84834,-0.88 -2.65833,-0.88001 -4.52833,-2.64001 -1.88834,-1.77833 -2.91501,-4.43667 -1.02666,-2.67667 -1.02666,-6.25167 0,-6.54501 3.81333,-10.32168 3.83167,-3.795 10.50501,-3.795 2.32834,0 4.74834,0.56833 2.43833,0.55001 5.24334,1.88834 v 4.30834 h -0.33 q -0.56834,-0.44 -1.65,-1.155 -1.08167,-0.715 -2.12667,-1.19167 -1.265,-0.56834 -2.87834,-0.935 -1.595,-0.385 -3.63,-0.385 -4.58334,0 -7.26001,2.95167 -2.65833,2.93333 -2.65833,7.95667 0,5.29834 2.78666,8.25001 2.78667,2.93333 7.59001,2.93333 1.76,0 3.50167,-0.34833 1.76,-0.34833 3.08,-0.89833 v -6.69168 h -7.315 v -3.19 h 10.90834 z m 29.11337,0 q -2.23667,1.02667 -4.89501,1.79667 -2.64,0.75167 -5.115,0.75167 -3.19001,0 -5.84834,-0.88 -2.65834,-0.88001 -4.52834,-2.64001 -1.88833,-1.77833 -2.915,-4.43667 -1.02667,-2.67667 -1.02667,-6.25167 0,-6.54501 3.81334,-10.32168 3.83167,-3.795 10.50501,-3.795 2.32833,0 4.74833,0.56833 2.43834,0.55001 5.24334,1.88834 v 4.30834 h -0.33 q -0.56833,-0.44 -1.65,-1.155 -1.08167,-0.715 -2.12667,-1.19167 -1.265,-0.56834 -2.87833,-0.935 -1.59501,-0.385 -3.63001,-0.385 -4.58333,0 -7.26,2.95167 -2.65834,2.93333 -2.65834,7.95667 0,5.29834 2.78667,8.25001 2.78667,2.93333 7.59001,2.93333 1.76,0 3.50167,-0.34833 1.76,-0.34833 3.08,-0.89833 v -6.69168 h -7.31501 v -3.19 h 10.90835 z m 27.86669,2.01667 h -3.86834 l -2.67667,-7.60834 h -11.80668 l -2.67667,7.60834 h -3.685 l 9.93668,-27.29836 h 4.84 z m -7.66334,-10.72501 -4.78501,-13.40168 -4.80334,13.40168 z"
     id="text4"
     style="font-size:37.5467px;line-height:1.25;-inkscape-font-specification:'sans-serif, Normal';stroke-width:1.28"
     inkscape:label="metagga"
     aria-label="meta-GGA" /><path
     d="m 433.16601,630.32208 h -3.44667 v -11.66001 q 0,-1.41167 -0.165,-2.64 -0.165,-1.24667 -0.605,-1.94334 -0.45834,-0.77 -1.32,-1.13666 -0.86167,-0.385 -2.23667,-0.385 -1.41167,0 -2.95167,0.69666 -1.54,0.69667 -2.95167,1.77834 v 15.29001 h -3.44667 v -28.52669 h 3.44667 v 10.32168 q 1.61334,-1.33834 3.33667,-2.09001 1.72333,-0.75166 3.53834,-0.75166 3.31833,0 5.06,1.99833 1.74167,1.99834 1.74167,5.75667 z m 23.98002,-20.47835 -11.95335,28.03169 h -3.685 l 3.81334,-8.54334 -8.15834,-19.48835 h 3.74 l 6.28834,15.18001 6.34334,-15.18001 z m 22.53169,10.08334 q 0,2.56667 -0.73334,4.62001 -0.715,2.05333 -1.94333,3.44667 -1.30167,1.44833 -2.86001,2.18167 -1.55833,0.715 -3.42833,0.715 -1.74167,0 -3.04334,-0.42167 -1.30167,-0.40333 -2.56667,-1.1 l -0.22,0.95333 h -3.22667 v -28.52669 h 3.44667 v 10.19334 q 1.44834,-1.19166 3.08001,-1.94333 1.63166,-0.77 3.66667,-0.77 3.63,0 5.72,2.78667 2.10834,2.78667 2.10834,7.865 z m -3.55667,0.0917 q 0,-3.66667 -1.21,-5.555 -1.21001,-1.90667 -3.90501,-1.90667 -1.50333,0 -3.04333,0.66 -1.54001,0.64166 -2.86001,1.66833 v 11.73335 q 1.46667,0.66 2.51167,0.91666 1.06334,0.25667 2.40167,0.25667 2.86,0 4.47334,-1.87 1.63167,-1.88834 1.63167,-5.90334 z m 21.70668,-6.41667 h -0.18333 q -0.77,-0.18334 -1.50333,-0.25667 -0.715,-0.0917 -1.70501,-0.0917 -1.595,0 -3.08,0.715 -1.485,0.69667 -2.86,1.81501 v 14.53834 h -3.44667 v -20.47835 h 3.44667 v 3.025 q 2.05333,-1.65 3.61167,-2.32833 1.57667,-0.69667 3.20834,-0.69667 0.89833,0 1.30166,0.055 0.40334,0.0367 1.21,0.165 z m 6.94834,-7.18668 h -3.88667 v -3.575 h 3.88667 z m -0.22,23.90669 h -3.44667 v -20.47835 h 3.44667 z m 23.43002,0 h -3.44666 v -2.145 q -1.48501,1.28334 -3.09834,1.99834 -1.61334,0.715 -3.50167,0.715 -3.66667,0 -5.83001,-2.82334 -2.145,-2.82334 -2.145,-7.82834 0,-2.60334 0.73334,-4.63834 0.75166,-2.035 2.01666,-3.465 1.24667,-1.39333 2.89667,-2.12667 1.66834,-0.73333 3.44667,-0.73333 1.61334,0 2.86001,0.34833 1.24666,0.33 2.62167,1.045 v -8.87334 h 3.44666 z m -3.44666,-5.04167 v -11.75168 q -1.39334,-0.62333 -2.49334,-0.86166 -1.1,-0.23834 -2.40167,-0.23834 -2.89667,0 -4.51,2.01667 -1.61334,2.01667 -1.61334,5.72001 0,3.64833 1.24667,5.555 1.24667,1.88834 3.99667,1.88834 1.46667,0 2.97,-0.64167 1.50334,-0.66 2.80501,-1.68667 z"
     id="text3"
     style="font-size:37.5467px;line-height:1.25;-inkscape-font-specification:'sans-serif, Normal';stroke-width:1.28"
     inkscape:label="hybrid"
     aria-label="hybrid" /><path
     d="m 375.83484,546.06099 h -3.28579 v -11.11578 q 0,-1.34578 -0.1573,-2.51679 -0.1573,-1.18848 -0.57676,-1.85262 -0.43694,-0.73407 -1.2584,-1.08362 -0.82144,-0.36703 -2.13227,-0.36703 -1.34577,0 -2.8139,0.66415 -1.46812,0.66415 -2.8139,1.69533 v 14.57636 h -3.2858 v -27.19522 h 3.2858 v 9.83992 q 1.53803,-1.27588 3.18093,-1.99246 1.6429,-0.71658 3.37319,-0.71658 3.16345,0 4.82383,1.90507 1.66037,1.90506 1.66037,5.48797 z m 22.86078,-19.52253 -11.39543,26.72333 h -3.51301 l 3.63535,-8.14459 -7.77755,-18.57874 h 3.56544 l 5.99484,14.47149 6.04726,-14.47149 z m 21.48003,9.52532 q 0,2.37696 -0.68163,4.35193 -0.68163,1.9575 -1.92254,3.32076 -1.15353,1.29334 -2.72651,2.00993 -1.55551,0.6991 -3.30328,0.6991 -1.52056,0 -2.76146,-0.33207 -1.22344,-0.33208 -2.49931,-1.03119 v 8.17955 h -3.2858 v -26.72333 h 3.2858 v 2.04489 q 1.31082,-1.1011 2.93625,-1.83516 1.64289,-0.75154 3.49552,-0.75154 3.53049,0 5.48799,2.67408 1.97497,2.6566 1.97497,7.39305 z m -3.39066,0.0874 q 0,-3.53048 -1.20596,-5.27825 -1.20595,-1.74776 -3.70526,-1.74776 -1.41569,0 -2.84886,0.61172 -1.43317,0.61171 -2.74399,1.60794 v 11.06335 q 1.39821,0.6292 2.39444,0.85641 1.0137,0.22721 2.28957,0.22721 2.74399,0 4.28203,-1.85263 1.53803,-1.85263 1.53803,-5.48799 z m 24.85322,0.48938 H 427.2541 q 0,1.8002 0.54181,3.14598 0.54181,1.3283 1.4856,2.1847 0.90884,0.83893 2.14976,1.2584 1.25838,0.41946 2.76147,0.41946 1.99245,0 4.00237,-0.7865 2.02742,-0.80397 2.88382,-1.57299 h 0.17478 v 3.58293 q -1.66039,0.6991 -3.39067,1.17099 -1.73029,0.47191 -3.63535,0.47191 -4.85879,0 -7.5853,-2.62166 -2.72652,-2.63912 -2.72652,-7.48043 0,-4.78888 2.60418,-7.60278 2.62164,-2.8139 6.88619,-2.8139 3.94994,0 6.08222,2.30705 2.14975,2.30705 2.14975,6.55412 z m -3.19841,-2.51678 q -0.0175,-2.58669 -1.31082,-4.00238 -1.27587,-1.41569 -3.89752,-1.41569 -2.63912,0 -4.21211,1.55551 -1.55551,1.55551 -1.76525,3.86256 z m 20.36146,-4.00238 h -0.17478 q -0.73405,-0.17478 -1.43316,-0.24469 -0.68163,-0.0874 -1.62542,-0.0874 -1.52056,0 -2.93624,0.68163 -1.4157,0.66415 -2.72652,1.73029 V 546.061 h -3.2858 v -19.52253 h 3.2858 v 2.88381 q 1.9575,-1.57299 3.4431,-2.21966 1.50307,-0.66415 3.05858,-0.66415 0.85641,0 1.24092,0.0524 0.3845,0.0349 1.15352,0.15731 z m 13.09077,6.13465 h -10.90605 v -3.16345 h 10.90605 z m 22.23157,9.80496 h -3.2858 v -11.11578 q 0,-1.34578 -0.1573,-2.51679 -0.1573,-1.18848 -0.57676,-1.85262 -0.43695,-0.73407 -1.25839,-1.08362 -0.82146,-0.36703 -2.13228,-0.36703 -1.34577,0 -2.8139,0.66415 -1.46812,0.66415 -2.8139,1.69533 v 14.57636 h -3.2858 v -27.19522 h 3.2858 v 9.83992 q 1.53803,-1.27588 3.18093,-1.99246 1.6429,-0.71658 3.37319,-0.71658 3.16346,0 4.82383,1.90507 1.66038,1.90506 1.66038,5.48797 z m 22.86076,-19.52253 -11.39542,26.72333 h -3.51301 l 3.63536,-8.14459 -7.77757,-18.57874 h 3.56545 l 5.99483,14.47149 6.04727,-14.47149 z m 21.48004,9.6127 q 0,2.44688 -0.6991,4.40438 -0.68163,1.95749 -1.85264,3.2858 -1.24091,1.38073 -2.72651,2.07983 -1.4856,0.68163 -3.26832,0.68163 -1.66038,0 -2.90129,-0.40199 -1.24092,-0.3845 -2.44687,-1.04865 l -0.20973,0.90883 h -3.07607 v -27.19522 h 3.2858 v 9.71758 q 1.38073,-1.13606 2.93625,-1.85264 1.55551,-0.73406 3.49552,-0.73406 3.46058,0 5.45303,2.6566 2.00993,2.6566 2.00993,7.49791 z m -3.39067,0.0874 q 0,-3.49553 -1.15352,-5.29573 -1.15352,-1.81767 -3.72274,-1.81767 -1.43317,0 -2.90129,0.62919 -1.46812,0.61172 -2.72651,1.59047 v 11.1857 q 1.39821,0.6292 2.39443,0.87388 1.01371,0.24469 2.28958,0.24469 2.72651,0 4.26454,-1.78272 1.55551,-1.8002 1.55551,-5.62781 z m 20.69355,-6.11717 h -0.17478 q -0.73406,-0.17478 -1.43316,-0.24469 -0.68163,-0.0874 -1.62543,-0.0874 -1.52056,0 -2.93624,0.68163 -1.4157,0.66415 -2.72652,1.73029 v 13.85977 h -3.2858 v -19.52253 h 3.2858 v 2.88381 q 1.9575,-1.57299 3.4431,-2.21966 1.50308,-0.66415 3.05859,-0.66415 0.85641,0 1.24091,0.0524 0.38452,0.0349 1.15353,0.15731 z m 6.62403,-6.85124 h -3.70527 v -3.40815 h 3.70527 z m -0.20973,22.79085 h -3.2858 v -19.52253 h 3.2858 z m 22.33644,0 h -3.2858 v -2.04488 q -1.41569,1.22344 -2.95372,1.90506 -1.53803,0.68163 -3.33823,0.68163 -3.49554,0 -5.5579,-2.69155 -2.04488,-2.69157 -2.04488,-7.46296 0,-2.48183 0.69911,-4.42185 0.71658,-1.94002 1.92253,-3.30328 1.18849,-1.3283 2.76147,-2.0274 1.59048,-0.69911 3.2858,-0.69911 1.53804,0 2.72652,0.33207 1.18848,0.3146 2.4993,0.99623 v -8.45918 h 3.2858 z m -3.2858,-4.80635 V 530.0515 q -1.3283,-0.59424 -2.37696,-0.82146 -1.04866,-0.2272 -2.28957,-0.2272 -2.76147,0 -4.2995,1.92254 -1.53804,1.92254 -1.53804,5.45302 0,3.47806 1.18848,5.29574 1.18849,1.80019 3.81013,1.80019 1.39821,0 2.83138,-0.61172 1.43317,-0.62919 2.67408,-1.60794 z"
     id="text1"
     style="font-size:41.2992px;line-height:1.25;stroke-width:0.894856"
     inkscape:label="chemical"
     aria-label="hyper-hybrid" /><text
     xml:space="preserve"
     style="font-style:normal;font-weight:normal;font-size:41.2992px;line-height:1.25;font-family:sans-serif;fill:#000000;fill-opacity:1;stroke:none;stroke-width:1.03248"
     x="431.33316"
     y="279.7691"
     id="text10"
     inkscape:label="accuracy"><tspan
       sodipodi:role="line"
       style="stroke-width:1.03248"
       x="431.33316"
       y="279.7691"
       id="tspan11">Accuracy</tspan></text><text
     xml:space="preserve"
     style="font-style:normal;font-weight:normal;font-size:41.2992px;line-height:1.25;font-family:sans-serif;fill:#000000;fill-opacity:1;stroke:none;stroke-width:1.03248"
     x="346.56604"
     y="227.92598"
     id="text8"
     inkscape:label="chemical"
     sodipodi:insensitive="true"><tspan
       sodipodi:role="line"
       style="stroke-width:1.03248"
       x="346.56604"
       y="227.92598"
       id="tspan9">Chemical</tspan></text><g
     id="g1"
     transform="matrix(0.31638822,0,0,0.31638822,396.70241,22.60653)"
     style="display:inline;stroke-width:7.07991;stroke-dasharray:none"
     inkscape:label="eye"><path
       style="fill:#f7b239;stroke:#a66c07;stroke-width:7.07991;stroke-dasharray:none;stroke-opacity:1"
       d="M 256,39.378 506.135,472.623 H 5.854 Z"
       id="path1-7" /><path
       style="fill:#f2f2f2;stroke-width:7.07991;stroke-dasharray:none"
       d="m 302.485,259.071 c 39.527,12.869 71.855,41.701 89.358,78.893 -23.99,50.947 -75.799,86.23 -135.843,86.23 -60.055,0 -111.853,-35.283 -135.843,-86.23 17.504,-37.181 49.82,-66.013 89.347,-78.882 -18.401,14.008 111.37,14.008 92.981,-0.011 z"
       id="path2-9" /><path
       style="fill:#666666;stroke-width:7.07991;stroke-dasharray:none"
       d="m 302.485,259.071 c 18.389,14.019 30.269,36.157 30.269,61.079 0,42.402 -34.363,76.766 -76.754,76.766 -42.402,0 -76.765,-34.363 -76.765,-76.766 0,-24.91 11.868,-47.06 30.269,-61.067 14.64,-4.773 30.269,-7.349 46.496,-7.349 16.216,0 31.845,2.576 46.473,7.337 z"
       id="path3-3" /><g
       id="g9"
       style="stroke-width:7.07991;stroke-dasharray:none">
	<path
   style="fill:#f95428;stroke:#bd2c05;stroke-width:5.05708;stroke-dasharray:none;stroke-opacity:1"
   d="m 89.685,204.581 c -1.801,0 -3.618,-0.562 -5.169,-1.726 L 22.425,156.278 c -3.81,-2.858 -4.583,-8.265 -1.724,-12.075 2.858,-3.81 8.265,-4.583 12.075,-1.724 l 62.091,46.577 c 3.81,2.858 4.583,8.265 1.724,12.075 -1.693,2.259 -4.284,3.45 -6.906,3.45 z"
   id="path4" />
	<path
   style="fill:#f95428;stroke:#bd2c05;stroke-width:5.05708;stroke-dasharray:none;stroke-opacity:1"
   d="m 143.166,144.206 c -3.701,0 -7.122,-2.401 -8.252,-6.126 L 117.663,81.153 c -1.381,-4.559 1.195,-9.374 5.753,-10.756 4.561,-1.381 9.375,1.195 10.756,5.754 l 17.251,56.927 c 1.381,4.559 -1.195,9.374 -5.753,10.756 -0.833,0.252 -1.675,0.372 -2.504,0.372 z"
   id="path5-8" />
	<path
   style="fill:#f95428;stroke:#bd2c05;stroke-width:5.05708;stroke-dasharray:none;stroke-opacity:1"
   d="M 56.916,280.484 H 8.625 C 3.862,280.484 0,276.622 0,271.859 c 0,-4.763 3.862,-8.625 8.625,-8.625 h 48.29 c 4.763,0 8.625,3.862 8.625,8.625 0,4.763 -3.861,8.625 -8.624,8.625 z"
   id="path6" />
	<path
   style="fill:#f95428;stroke:#bd2c05;stroke-width:5.05708;stroke-dasharray:none;stroke-opacity:1"
   d="m 422.303,204.581 c -2.622,0 -5.212,-1.191 -6.907,-3.45 -2.858,-3.811 -2.085,-9.218 1.725,-12.075 l 62.102,-46.577 c 3.811,-2.858 9.218,-2.085 12.075,1.725 2.858,3.811 2.085,9.218 -1.725,12.075 l -62.102,46.577 c -1.551,1.164 -3.368,1.725 -5.168,1.725 z"
   id="path7" />
	<path
   style="fill:#f95428;stroke:#bd2c05;stroke-width:5.05708;stroke-dasharray:none;stroke-opacity:1"
   d="m 368.823,144.206 c -0.829,0 -1.671,-0.12 -2.505,-0.373 -4.56,-1.381 -7.135,-6.198 -5.754,-10.756 L 377.815,76.15 c 1.381,-4.56 6.202,-7.135 10.756,-5.754 4.56,1.381 7.135,6.198 5.754,10.756 l -17.251,56.927 c -1.129,3.726 -4.551,6.127 -8.251,6.127 z"
   id="path8" />
	<path
   style="fill:#f95428;stroke:#bd2c05;stroke-width:5.05708;stroke-dasharray:none;stroke-opacity:1"
   d="m 503.375,280.484 h -48.302 c -4.765,0 -8.625,-3.862 -8.625,-8.625 0,-4.763 3.861,-8.625 8.625,-8.625 h 48.302 c 4.765,0 8.625,3.862 8.625,8.625 0,4.763 -3.862,8.625 -8.625,8.625 z"
   id="path9" />
</g></g></svg>
